STARTFONT 2.1
COMMENT This font was automaticaly reencoded from ISO8859-2 to ISO10646-1.
COMMENT by trbdf utility (ftp://lml.bas.bg/home/anton/linux/trscripts-1.5.tar.gz)
COMMENT The COMMENTs below (if any) are from the original font.
COMMENT ---------------------------------------------------------
FONT -ucw.cz-Haxor-Narrow-R-Normal--16-120-72-72-M-72-ISO10646-1
SIZE 13 72 72
FONTBOUNDINGBOX 9 21 0 -5
STARTPROPERTIES 17
POINT_SIZE 120
PIXEL_SIZE 16
RESOLUTION_X 72
RESOLUTION_Y 72
FONT_ASCENT 15
FONT_DESCENT 3
AVERAGE_WIDTH 72
SPACING "M"
_GBDFED_INFO "Edited with gbdfed 1.6."
CHARSET_ENCODING "1"
CHARSET_REGISTRY "ISO10646"
FAMILY_NAME "Haxor"
FOUNDRY "ucw.cz"
SETWIDTH_NAME "Normal"
SLANT "R"
WEIGHT_NAME "Narrow"
DEFAULT_CHAR 63
ENDPROPERTIES
CHARS 1727
STARTCHAR uni0000
ENCODING 0
SWIDTH 692 0
DWIDTH 9 0
BBX 9 13 0 0
BITMAP
FF80
FF80
FF80
FF80
FF80
FF80
FF80
FF80
FF80
FF80
FF80
FF80
FF80
ENDCHAR
STARTCHAR uni0001
ENCODING 1
SWIDTH 692 0
DWIDTH 9 0
BBX 9 9 0 2
BITMAP
0800
1C00
3E00
7F00
FF80
7F00
3E00
1C00
0800
ENDCHAR
STARTCHAR uni0002
ENCODING 2
SWIDTH 692 0
DWIDTH 9 0
BBX 9 13 0 0
BITMAP
5500
AA80
5500
AA80
5500
AA80
5500
AA80
5500
AA80
5500
AA80
5500
ENDCHAR
STARTCHAR uni0003
ENCODING 3
SWIDTH 692 0
DWIDTH 9 0
BBX 5 12 0 0
BITMAP
F8
20
20
20
20
20
20
20
20
20
20
F8
ENDCHAR
STARTCHAR uni0004
ENCODING 4
SWIDTH 692 0
DWIDTH 9 0
BBX 6 12 0 0
BITMAP
80
80
80
80
80
80
80
80
80
80
80
FC
ENDCHAR
STARTCHAR uni0005
ENCODING 5
SWIDTH 692 0
DWIDTH 9 0
BBX 7 12 0 0
BITMAP
82
C6
AA
AA
92
82
82
82
82
82
82
82
ENDCHAR
STARTCHAR uni0006
ENCODING 6
SWIDTH 692 0
DWIDTH 9 0
BBX 6 12 0 0
BITMAP
FC
04
04
04
04
04
04
04
04
84
84
78
ENDCHAR
STARTCHAR uni0007
ENCODING 7
SWIDTH 692 0
DWIDTH 9 0
BBX 4 4 1 8
BITMAP
60
90
90
60
ENDCHAR
STARTCHAR uni000A
ENCODING 10
SWIDTH 692 0
DWIDTH 9 0
BBX 6 12 0 0
BITMAP
84
84
88
90
90
A0
E0
90
88
88
84
84
ENDCHAR
STARTCHAR uni000B
ENCODING 11
SWIDTH 692 0
DWIDTH 9 0
BBX 5 10 0 5
BITMAP
08
08
08
08
08
08
08
08
10
E0
ENDCHAR
STARTCHAR uni000C
ENCODING 12
SWIDTH 692 0
DWIDTH 9 0
BBX 5 11 0 -5
BITMAP
E0
10
08
08
08
08
08
08
08
08
08
ENDCHAR
STARTCHAR uni000D
ENCODING 13
SWIDTH 692 0
DWIDTH 9 0
BBX 5 11 4 -5
BITMAP
38
40
80
80
80
80
80
80
80
80
80
ENDCHAR
STARTCHAR uni000E
ENCODING 14
SWIDTH 692 0
DWIDTH 9 0
BBX 5 10 4 5
BITMAP
80
80
80
80
80
80
80
80
40
38
ENDCHAR
STARTCHAR uni000F
ENCODING 15
SWIDTH 692 0
DWIDTH 9 0
BBX 9 20 0 -5
BITMAP
0800
0800
0800
0800
0800
0800
0800
0800
0800
FF80
0800
0800
0800
0800
0800
0800
0800
0800
0800
0800
ENDCHAR
STARTCHAR uni0010
ENCODING 16
SWIDTH 692 0
DWIDTH 9 0
BBX 9 1 0 11
BITMAP
FF80
ENDCHAR
STARTCHAR uni0011
ENCODING 17
SWIDTH 692 0
DWIDTH 9 0
BBX 9 1 0 7
BITMAP
FF80
ENDCHAR
STARTCHAR uni0012
ENCODING 18
SWIDTH 692 0
DWIDTH 9 0
BBX 9 1 0 5
BITMAP
FF80
ENDCHAR
STARTCHAR uni0013
ENCODING 19
SWIDTH 692 0
DWIDTH 9 0
BBX 9 1 0 2
BITMAP
FF80
ENDCHAR
STARTCHAR uni0014
ENCODING 20
SWIDTH 692 0
DWIDTH 9 0
BBX 9 1 0 0
BITMAP
FF80
ENDCHAR
STARTCHAR uni0015
ENCODING 21
SWIDTH 692 0
DWIDTH 9 0
BBX 5 20 4 -5
BITMAP
80
80
80
80
80
80
80
80
80
78
80
80
80
80
80
80
80
80
80
80
ENDCHAR
STARTCHAR uni0016
ENCODING 22
SWIDTH 692 0
DWIDTH 9 0
BBX 5 20 0 -5
BITMAP
08
08
08
08
08
08
08
08
08
F0
08
08
08
08
08
08
08
08
08
08
ENDCHAR
STARTCHAR uni0017
ENCODING 23
SWIDTH 692 0
DWIDTH 9 0
BBX 9 10 0 5
BITMAP
0800
0800
0800
0800
0800
0800
0800
0800
0800
F780
ENDCHAR
STARTCHAR uni0018
ENCODING 24
SWIDTH 692 0
DWIDTH 9 0
BBX 9 11 0 -5
BITMAP
F780
0800
0800
0800
0800
0800
0800
0800
0800
0800
0800
ENDCHAR
STARTCHAR uni0019
ENCODING 25
SWIDTH 692 0
DWIDTH 9 0
BBX 1 20 4 -5
BITMAP
80
80
80
80
80
80
80
80
80
80
80
80
80
80
80
80
80
80
80
80
ENDCHAR
STARTCHAR uni001A
ENCODING 26
SWIDTH 692 0
DWIDTH 9 0
BBX 5 9 1 1
BITMAP
08
10
20
40
80
40
20
10
08
ENDCHAR
STARTCHAR uni001B
ENCODING 27
SWIDTH 692 0
DWIDTH 9 0
BBX 5 9 1 1
BITMAP
80
40
20
10
08
10
20
40
80
ENDCHAR
STARTCHAR uni001C
ENCODING 28
SWIDTH 692 0
DWIDTH 9 0
BBX 6 12 0 -3
BITMAP
B8
C4
84
84
84
84
84
C4
B8
80
80
80
ENDCHAR
STARTCHAR uni001E
ENCODING 30
SWIDTH 692 0
DWIDTH 9 0
BBX 6 12 0 0
BITMAP
80
80
80
80
80
80
80
80
80
80
80
FC
ENDCHAR
STARTCHAR space
ENCODING 32
SWIDTH 692 0
DWIDTH 9 0
BBX 0 0 0 0
BITMAP
ENDCHAR
STARTCHAR exclam
ENCODING 33
SWIDTH 692 0
DWIDTH 9 0
BBX 1 12 4 0
BITMAP
80
80
80
80
80
80
80
80
00
00
80
80
ENDCHAR
STARTCHAR quotedbl
ENCODING 34
SWIDTH 692 0
DWIDTH 9 0
BBX 7 4 0 8
BITMAP
EE
22
22
44
ENDCHAR
STARTCHAR numbersign
ENCODING 35
SWIDTH 692 0
DWIDTH 9 0
BBX 8 11 0 0
BITMAP
12
12
12
7F
24
24
24
FE
48
48
48
ENDCHAR
STARTCHAR dollar
ENCODING 36
SWIDTH 692 0
DWIDTH 9 0
BBX 7 12 0 0
BITMAP
10
7C
92
90
90
70
1C
12
12
92
7C
10
ENDCHAR
STARTCHAR percent
ENCODING 37
SWIDTH 692 0
DWIDTH 9 0
BBX 7 12 0 0
BITMAP
62
92
94
64
08
10
10
20
4C
52
92
8C
ENDCHAR
STARTCHAR ampersand
ENCODING 38
SWIDTH 692 0
DWIDTH 9 0
BBX 7 12 0 0
BITMAP
30
48
48
48
30
60
D2
92
8A
8A
C4
7A
ENDCHAR
STARTCHAR quotesingle
ENCODING 39
SWIDTH 692 0
DWIDTH 9 0
BBX 2 4 2 8
BITMAP
C0
40
40
80
ENDCHAR
STARTCHAR parenleft
ENCODING 40
SWIDTH 692 0
DWIDTH 9 0
BBX 4 14 1 -1
BITMAP
10
20
40
40
80
80
80
80
80
80
40
40
20
10
ENDCHAR
STARTCHAR parenright
ENCODING 41
SWIDTH 692 0
DWIDTH 9 0
BBX 4 14 1 -1
BITMAP
80
40
20
20
10
10
10
10
10
10
20
20
40
80
ENDCHAR
STARTCHAR asterisk
ENCODING 42
SWIDTH 692 0
DWIDTH 9 0
BBX 5 6 1 4
BITMAP
20
A8
70
70
A8
20
ENDCHAR
STARTCHAR plus
ENCODING 43
SWIDTH 692 0
DWIDTH 9 0
BBX 7 7 0 2
BITMAP
10
10
10
FE
10
10
10
ENDCHAR
STARTCHAR comma
ENCODING 44
SWIDTH 692 0
DWIDTH 9 0
BBX 2 4 2 -1
BITMAP
C0
40
40
80
ENDCHAR
STARTCHAR hyphen
ENCODING 45
SWIDTH 692 0
DWIDTH 9 0
BBX 5 1 1 5
BITMAP
F8
ENDCHAR
STARTCHAR period
ENCODING 46
SWIDTH 692 0
DWIDTH 9 0
BBX 2 3 2 0
BITMAP
C0
C0
C0
ENDCHAR
STARTCHAR slash
ENCODING 47
SWIDTH 692 0
DWIDTH 9 0
BBX 5 12 1 0
BITMAP
08
08
10
10
10
20
20
40
40
40
80
80
ENDCHAR
STARTCHAR zero
ENCODING 48
SWIDTH 692 0
DWIDTH 9 0
BBX 7 12 0 0
BITMAP
38
44
82
82
8A
92
92
A2
82
82
44
38
ENDCHAR
STARTCHAR one
ENCODING 49
SWIDTH 692 0
DWIDTH 9 0
BBX 4 12 1 0
BITMAP
30
50
90
10
10
10
10
10
10
10
10
10
ENDCHAR
STARTCHAR two
ENCODING 50
SWIDTH 692 0
DWIDTH 9 0
BBX 6 12 1 0
BITMAP
78
84
04
04
08
10
20
40
40
80
80
FC
ENDCHAR
STARTCHAR three
ENCODING 51
SWIDTH 692 0
DWIDTH 9 0
BBX 6 12 1 0
BITMAP
78
84
04
04
04
38
04
04
04
04
84
78
ENDCHAR
STARTCHAR four
ENCODING 52
SWIDTH 692 0
DWIDTH 9 0
BBX 6 12 1 0
BITMAP
08
18
18
28
28
48
48
88
FC
08
08
08
ENDCHAR
STARTCHAR five
ENCODING 53
SWIDTH 692 0
DWIDTH 9 0
BBX 6 12 1 0
BITMAP
FC
80
80
80
F8
04
04
04
04
04
84
78
ENDCHAR
STARTCHAR six
ENCODING 54
SWIDTH 692 0
DWIDTH 9 0
BBX 6 12 1 0
BITMAP
78
84
80
80
80
F8
84
84
84
84
84
78
ENDCHAR
STARTCHAR seven
ENCODING 55
SWIDTH 692 0
DWIDTH 9 0
BBX 6 12 1 0
BITMAP
FC
04
04
08
08
10
10
10
20
20
20
20
ENDCHAR
STARTCHAR eight
ENCODING 56
SWIDTH 692 0
DWIDTH 9 0
BBX 6 12 1 0
BITMAP
78
84
84
84
84
78
84
84
84
84
84
78
ENDCHAR
STARTCHAR nine
ENCODING 57
SWIDTH 692 0
DWIDTH 9 0
BBX 6 12 1 0
BITMAP
78
84
84
84
84
84
7C
04
04
04
84
78
ENDCHAR
STARTCHAR colon
ENCODING 58
SWIDTH 692 0
DWIDTH 9 0
BBX 2 8 3 1
BITMAP
C0
C0
00
00
00
00
C0
C0
ENDCHAR
STARTCHAR semicolon
ENCODING 59
SWIDTH 692 0
DWIDTH 9 0
BBX 2 9 3 0
BITMAP
C0
C0
00
00
00
00
C0
40
80
ENDCHAR
STARTCHAR less
ENCODING 60
SWIDTH 692 0
DWIDTH 9 0
BBX 5 9 1 1
BITMAP
08
10
20
40
80
40
20
10
08
ENDCHAR
STARTCHAR equal
ENCODING 61
SWIDTH 692 0
DWIDTH 9 0
BBX 6 5 0 3
BITMAP
FC
00
00
00
FC
ENDCHAR
STARTCHAR greater
ENCODING 62
SWIDTH 692 0
DWIDTH 9 0
BBX 5 9 1 1
BITMAP
80
40
20
10
08
10
20
40
80
ENDCHAR
STARTCHAR question
ENCODING 63
SWIDTH 692 0
DWIDTH 9 0
BBX 6 12 0 0
BITMAP
78
84
04
04
04
08
10
20
00
00
20
20
ENDCHAR
STARTCHAR at
ENCODING 64
SWIDTH 692 0
DWIDTH 9 0
BBX 6 12 0 0
BITMAP
78
84
84
84
9C
A4
A4
A4
9C
80
80
78
ENDCHAR
STARTCHAR A
ENCODING 65
SWIDTH 692 0
DWIDTH 9 0
BBX 6 12 0 0
BITMAP
30
48
48
48
84
84
84
FC
84
84
84
84
ENDCHAR
STARTCHAR B
ENCODING 66
SWIDTH 692 0
DWIDTH 9 0
BBX 6 12 0 0
BITMAP
F8
84
84
84
84
F8
84
84
84
84
84
F8
ENDCHAR
STARTCHAR C
ENCODING 67
SWIDTH 692 0
DWIDTH 9 0
BBX 6 12 0 0
BITMAP
78
84
80
80
80
80
80
80
80
80
84
78
ENDCHAR
STARTCHAR D
ENCODING 68
SWIDTH 692 0
DWIDTH 9 0
BBX 6 12 0 0
BITMAP
F0
88
84
84
84
84
84
84
84
84
88
F0
ENDCHAR
STARTCHAR E
ENCODING 69
SWIDTH 692 0
DWIDTH 9 0
BBX 5 12 0 0
BITMAP
F8
80
80
80
80
F0
80
80
80
80
80
F8
ENDCHAR
STARTCHAR F
ENCODING 70
SWIDTH 692 0
DWIDTH 9 0
BBX 5 12 0 0
BITMAP
F8
80
80
80
F0
80
80
80
80
80
80
80
ENDCHAR
STARTCHAR G
ENCODING 71
SWIDTH 692 0
DWIDTH 9 0
BBX 6 12 0 0
BITMAP
78
84
80
80
80
80
80
8C
84
84
84
78
ENDCHAR
STARTCHAR H
ENCODING 72
SWIDTH 692 0
DWIDTH 9 0
BBX 6 12 0 0
BITMAP
84
84
84
84
84
FC
84
84
84
84
84
84
ENDCHAR
STARTCHAR I
ENCODING 73
SWIDTH 692 0
DWIDTH 9 0
BBX 5 12 0 0
BITMAP
F8
20
20
20
20
20
20
20
20
20
20
F8
ENDCHAR
STARTCHAR J
ENCODING 74
SWIDTH 692 0
DWIDTH 9 0
BBX 6 12 0 0
BITMAP
FC
04
04
04
04
04
04
04
04
84
84
78
ENDCHAR
STARTCHAR K
ENCODING 75
SWIDTH 692 0
DWIDTH 9 0
BBX 6 12 0 0
BITMAP
84
84
88
90
90
A0
E0
90
88
88
84
84
ENDCHAR
STARTCHAR L
ENCODING 76
SWIDTH 692 0
DWIDTH 9 0
BBX 6 12 0 0
BITMAP
80
80
80
80
80
80
80
80
80
80
80
FC
ENDCHAR
STARTCHAR M
ENCODING 77
SWIDTH 692 0
DWIDTH 9 0
BBX 7 12 0 0
BITMAP
82
C6
AA
AA
92
82
82
82
82
82
82
82
ENDCHAR
STARTCHAR N
ENCODING 78
SWIDTH 692 0
DWIDTH 9 0
BBX 6 12 0 0
BITMAP
84
C4
A4
A4
94
94
8C
84
84
84
84
84
ENDCHAR
STARTCHAR O
ENCODING 79
SWIDTH 692 0
DWIDTH 9 0
BBX 6 12 0 0
BITMAP
78
84
84
84
84
84
84
84
84
84
84
78
ENDCHAR
STARTCHAR P
ENCODING 80
SWIDTH 692 0
DWIDTH 9 0
BBX 6 12 0 0
BITMAP
F8
84
84
84
84
F8
80
80
80
80
80
80
ENDCHAR
STARTCHAR Q
ENCODING 81
SWIDTH 692 0
DWIDTH 9 0
BBX 6 12 0 0
BITMAP
78
84
84
84
84
84
84
84
84
94
88
74
ENDCHAR
STARTCHAR R
ENCODING 82
SWIDTH 692 0
DWIDTH 9 0
BBX 6 12 0 0
BITMAP
F8
84
84
84
84
F8
88
88
88
84
84
84
ENDCHAR
STARTCHAR S
ENCODING 83
SWIDTH 692 0
DWIDTH 9 0
BBX 6 12 0 0
BITMAP
78
84
80
80
40
30
08
04
04
04
84
78
ENDCHAR
STARTCHAR T
ENCODING 84
SWIDTH 692 0
DWIDTH 9 0
BBX 7 12 0 0
BITMAP
FE
10
10
10
10
10
10
10
10
10
10
10
ENDCHAR
STARTCHAR U
ENCODING 85
SWIDTH 692 0
DWIDTH 9 0
BBX 6 12 0 0
BITMAP
84
84
84
84
84
84
84
84
84
84
84
78
ENDCHAR
STARTCHAR V
ENCODING 86
SWIDTH 692 0
DWIDTH 9 0
BBX 7 12 0 0
BITMAP
82
82
82
82
44
44
44
28
28
28
10
10
ENDCHAR
STARTCHAR W
ENCODING 87
SWIDTH 692 0
DWIDTH 9 0
BBX 7 12 0 0
BITMAP
82
82
82
82
82
82
92
92
AA
AA
44
44
ENDCHAR
STARTCHAR X
ENCODING 88
SWIDTH 692 0
DWIDTH 9 0
BBX 7 12 0 0
BITMAP
82
82
44
44
28
10
10
28
28
44
82
82
ENDCHAR
STARTCHAR Y
ENCODING 89
SWIDTH 692 0
DWIDTH 9 0
BBX 7 12 0 0
BITMAP
82
82
44
44
28
28
10
10
10
10
10
10
ENDCHAR
STARTCHAR Z
ENCODING 90
SWIDTH 692 0
DWIDTH 9 0
BBX 6 12 0 0
BITMAP
FC
04
04
08
10
10
20
40
40
80
80
FC
ENDCHAR
STARTCHAR bracketleft
ENCODING 91
SWIDTH 692 0
DWIDTH 9 0
BBX 3 13 2 0
BITMAP
E0
80
80
80
80
80
80
80
80
80
80
80
E0
ENDCHAR
STARTCHAR backslash
ENCODING 92
SWIDTH 692 0
DWIDTH 9 0
BBX 5 12 1 0
BITMAP
80
80
40
40
40
20
20
10
10
10
08
08
ENDCHAR
STARTCHAR bracketright
ENCODING 93
SWIDTH 692 0
DWIDTH 9 0
BBX 3 13 2 0
BITMAP
E0
20
20
20
20
20
20
20
20
20
20
20
E0
ENDCHAR
STARTCHAR asciicircum
ENCODING 94
SWIDTH 692 0
DWIDTH 9 0
BBX 5 5 1 7
BITMAP
20
50
50
88
88
ENDCHAR
STARTCHAR underscore
ENCODING 95
SWIDTH 692 0
DWIDTH 9 0
BBX 7 1 0 0
BITMAP
FE
ENDCHAR
STARTCHAR grave
ENCODING 96
SWIDTH 692 0
DWIDTH 9 0
BBX 3 3 1 10
BITMAP
80
40
20
ENDCHAR
STARTCHAR a
ENCODING 97
SWIDTH 692 0
DWIDTH 9 0
BBX 6 9 0 0
BITMAP
78
84
04
04
7C
84
84
8C
74
ENDCHAR
STARTCHAR b
ENCODING 98
SWIDTH 692 0
DWIDTH 9 0
BBX 6 12 0 0
BITMAP
80
80
80
B8
C4
84
84
84
84
84
C4
B8
ENDCHAR
STARTCHAR c
ENCODING 99
SWIDTH 692 0
DWIDTH 9 0
BBX 6 9 0 0
BITMAP
78
84
80
80
80
80
80
84
78
ENDCHAR
STARTCHAR d
ENCODING 100
SWIDTH 692 0
DWIDTH 9 0
BBX 6 12 0 0
BITMAP
04
04
04
74
8C
84
84
84
84
84
8C
74
ENDCHAR
STARTCHAR e
ENCODING 101
SWIDTH 692 0
DWIDTH 9 0
BBX 6 9 0 0
BITMAP
78
84
84
84
FC
80
80
84
78
ENDCHAR
STARTCHAR f
ENCODING 102
SWIDTH 692 0
DWIDTH 9 0
BBX 6 12 0 0
BITMAP
1C
20
20
20
FC
20
20
20
20
20
20
20
ENDCHAR
STARTCHAR g
ENCODING 103
SWIDTH 692 0
DWIDTH 9 0
BBX 7 12 0 -3
BITMAP
7E
84
84
84
78
80
80
7C
82
82
82
7C
ENDCHAR
STARTCHAR h
ENCODING 104
SWIDTH 692 0
DWIDTH 9 0
BBX 6 12 0 0
BITMAP
80
80
80
B8
C4
84
84
84
84
84
84
84
ENDCHAR
STARTCHAR i
ENCODING 105
SWIDTH 692 0
DWIDTH 9 0
BBX 5 12 1 0
BITMAP
20
00
00
E0
20
20
20
20
20
20
20
F8
ENDCHAR
STARTCHAR j
ENCODING 106
SWIDTH 692 0
DWIDTH 9 0
BBX 5 14 1 -2
BITMAP
08
00
00
38
08
08
08
08
08
08
08
08
88
70
ENDCHAR
STARTCHAR k
ENCODING 107
SWIDTH 692 0
DWIDTH 9 0
BBX 6 12 0 0
BITMAP
80
80
80
84
88
90
A0
E0
90
88
84
84
ENDCHAR
STARTCHAR l
ENCODING 108
SWIDTH 692 0
DWIDTH 9 0
BBX 5 12 1 0
BITMAP
E0
20
20
20
20
20
20
20
20
20
20
F8
ENDCHAR
STARTCHAR m
ENCODING 109
SWIDTH 692 0
DWIDTH 9 0
BBX 7 9 0 0
BITMAP
EC
92
92
92
92
92
92
92
92
ENDCHAR
STARTCHAR n
ENCODING 110
SWIDTH 692 0
DWIDTH 9 0
BBX 6 9 0 0
BITMAP
B8
C4
84
84
84
84
84
84
84
ENDCHAR
STARTCHAR o
ENCODING 111
SWIDTH 692 0
DWIDTH 9 0
BBX 6 9 0 0
BITMAP
78
84
84
84
84
84
84
84
78
ENDCHAR
STARTCHAR p
ENCODING 112
SWIDTH 692 0
DWIDTH 9 0
BBX 6 12 0 -3
BITMAP
B8
C4
84
84
84
84
84
C4
B8
80
80
80
ENDCHAR
STARTCHAR q
ENCODING 113
SWIDTH 692 0
DWIDTH 9 0
BBX 6 12 0 -3
BITMAP
74
8C
84
84
84
84
84
8C
74
04
04
04
ENDCHAR
STARTCHAR r
ENCODING 114
SWIDTH 692 0
DWIDTH 9 0
BBX 6 9 0 0
BITMAP
B8
C4
80
80
80
80
80
80
80
ENDCHAR
STARTCHAR s
ENCODING 115
SWIDTH 692 0
DWIDTH 9 0
BBX 6 9 0 0
BITMAP
78
84
80
80
78
04
04
84
78
ENDCHAR
STARTCHAR t
ENCODING 116
SWIDTH 692 0
DWIDTH 9 0
BBX 6 12 0 0
BITMAP
20
20
20
FC
20
20
20
20
20
20
20
1C
ENDCHAR
STARTCHAR u
ENCODING 117
SWIDTH 692 0
DWIDTH 9 0
BBX 6 9 0 0
BITMAP
84
84
84
84
84
84
84
8C
74
ENDCHAR
STARTCHAR v
ENCODING 118
SWIDTH 692 0
DWIDTH 9 0
BBX 7 9 0 0
BITMAP
82
82
82
44
44
28
28
28
10
ENDCHAR
STARTCHAR w
ENCODING 119
SWIDTH 692 0
DWIDTH 9 0
BBX 7 9 0 0
BITMAP
82
82
82
82
92
AA
AA
44
44
ENDCHAR
STARTCHAR x
ENCODING 120
SWIDTH 692 0
DWIDTH 9 0
BBX 7 9 0 0
BITMAP
82
82
44
28
10
28
44
82
82
ENDCHAR
STARTCHAR y
ENCODING 121
SWIDTH 692 0
DWIDTH 9 0
BBX 7 12 0 -3
BITMAP
82
82
44
44
28
28
10
10
20
20
40
40
ENDCHAR
STARTCHAR z
ENCODING 122
SWIDTH 692 0
DWIDTH 9 0
BBX 6 9 0 0
BITMAP
FC
04
08
10
20
20
40
80
FC
ENDCHAR
STARTCHAR braceleft
ENCODING 123
SWIDTH 692 0
DWIDTH 9 0
BBX 3 13 2 0
BITMAP
60
80
80
80
40
40
80
40
40
80
80
80
60
ENDCHAR
STARTCHAR bar
ENCODING 124
SWIDTH 692 0
DWIDTH 9 0
BBX 1 12 3 0
BITMAP
80
80
80
80
80
80
80
80
80
80
80
80
ENDCHAR
STARTCHAR braceright
ENCODING 125
SWIDTH 692 0
DWIDTH 9 0
BBX 3 13 3 0
BITMAP
C0
20
20
20
40
40
20
40
40
20
20
20
C0
ENDCHAR
STARTCHAR asciitilde
ENCODING 126
SWIDTH 692 0
DWIDTH 9 0
BBX 7 3 0 4
BITMAP
60
92
0C
ENDCHAR
STARTCHAR space
ENCODING 160
SWIDTH 692 0
DWIDTH 9 0
BBX 0 0 0 0
BITMAP
ENDCHAR
STARTCHAR exclamdown
ENCODING 161
SWIDTH 692 0
DWIDTH 9 0
BBX 1 12 4 0
BITMAP
80
80
00
00
80
80
80
80
80
80
80
80
ENDCHAR
STARTCHAR cent
ENCODING 162
SWIDTH 692 0
DWIDTH 9 0
BBX 5 13 1 -2
BITMAP
20
20
70
A8
A0
A0
A0
A0
A0
A8
70
20
20
ENDCHAR
STARTCHAR sterling
ENCODING 163
SWIDTH 692 0
DWIDTH 9 0
BBX 7 12 0 0
BITMAP
38
44
40
40
40
F8
40
40
40
40
82
FC
ENDCHAR
STARTCHAR currency
ENCODING 164
SWIDTH 692 0
DWIDTH 9 0
BBX 7 7 1 3
BITMAP
BA
44
82
82
82
44
BA
ENDCHAR
STARTCHAR yen
ENCODING 165
SWIDTH 692 0
DWIDTH 9 0
BBX 7 12 0 0
BITMAP
82
82
44
44
28
10
10
FE
10
FE
10
10
ENDCHAR
STARTCHAR brokenbar
ENCODING 166
SWIDTH 692 0
DWIDTH 9 0
BBX 1 12 3 0
BITMAP
80
80
80
80
80
00
00
80
80
80
80
80
ENDCHAR
STARTCHAR section
ENCODING 167
SWIDTH 692 0
DWIDTH 9 0
BBX 5 12 1 0
BITMAP
70
88
88
40
A0
90
48
28
10
88
88
70
ENDCHAR
STARTCHAR dieresis
ENCODING 168
SWIDTH 692 0
DWIDTH 9 0
BBX 7 4 0 8
BITMAP
EE
22
22
44
ENDCHAR
STARTCHAR copyright
ENCODING 169
SWIDTH 692 0
DWIDTH 9 0
BBX 8 12 0 0
BITMAP
3C
42
81
99
A5
A1
A1
A5
99
81
42
3C
ENDCHAR
STARTCHAR ordfeminine
ENCODING 170
SWIDTH 692 0
DWIDTH 9 0
BBX 5 6 2 6
BITMAP
60
90
70
90
90
68
ENDCHAR
STARTCHAR guillemotleft
ENCODING 171
SWIDTH 692 0
DWIDTH 9 0
BBX 7 7 0 2
BITMAP
12
24
48
90
48
24
12
ENDCHAR
STARTCHAR logicalnot
ENCODING 172
SWIDTH 692 0
DWIDTH 9 0
BBX 6 3 1 3
BITMAP
FC
04
04
ENDCHAR
STARTCHAR hyphen
ENCODING 173
SWIDTH 692 0
DWIDTH 9 0
BBX 5 1 1 5
BITMAP
F8
ENDCHAR
STARTCHAR registered
ENCODING 174
SWIDTH 692 0
DWIDTH 9 0
BBX 8 12 0 0
BITMAP
3C
42
81
B9
A5
A5
B9
A9
A5
81
42
3C
ENDCHAR
STARTCHAR macron
ENCODING 175
SWIDTH 692 0
DWIDTH 9 0
BBX 7 1 1 11
BITMAP
FE
ENDCHAR
STARTCHAR degree
ENCODING 176
SWIDTH 692 0
DWIDTH 9 0
BBX 4 4 1 8
BITMAP
60
90
90
60
ENDCHAR
STARTCHAR char177
ENCODING 177
SWIDTH 692 0
DWIDTH 9 0
BBX 7 9 0 0
BITMAP
10
10
10
FE
10
10
10
00
FE
ENDCHAR
STARTCHAR twosuperior
ENCODING 178
SWIDTH 692 0
DWIDTH 9 0
BBX 3 7 3 5
BITMAP
40
A0
20
40
80
80
E0
ENDCHAR
STARTCHAR threesuperior
ENCODING 179
SWIDTH 692 0
DWIDTH 9 0
BBX 3 7 3 5
BITMAP
40
A0
20
40
20
A0
40
ENDCHAR
STARTCHAR acute
ENCODING 180
SWIDTH 692 0
DWIDTH 9 0
BBX 2 2 3 10
BITMAP
40
80
ENDCHAR
STARTCHAR mu
ENCODING 181
SWIDTH 692 0
DWIDTH 9 0
BBX 7 13 0 -4
BITMAP
84
84
84
84
84
84
84
8C
F2
80
80
80
80
ENDCHAR
STARTCHAR paragraph
ENCODING 182
SWIDTH 692 0
DWIDTH 9 0
BBX 7 12 0 0
BITMAP
7E
F4
F4
F4
74
14
14
14
14
14
14
14
ENDCHAR
STARTCHAR char183
ENCODING 183
SWIDTH 692 0
DWIDTH 9 0
BBX 1 1 4 7
BITMAP
80
ENDCHAR
STARTCHAR cedilla
ENCODING 184
SWIDTH 692 0
DWIDTH 9 0
BBX 2 4 2 -1
BITMAP
C0
40
40
80
ENDCHAR
STARTCHAR onesuperior
ENCODING 185
SWIDTH 692 0
DWIDTH 9 0
BBX 3 7 3 5
BITMAP
40
C0
40
40
40
40
E0
ENDCHAR
STARTCHAR ordmasculine
ENCODING 186
SWIDTH 692 0
DWIDTH 9 0
BBX 3 7 3 5
BITMAP
40
A0
A0
A0
A0
A0
40
ENDCHAR
STARTCHAR guillemotright
ENCODING 187
SWIDTH 692 0
DWIDTH 9 0
BBX 7 7 0 2
BITMAP
90
48
24
12
24
48
90
ENDCHAR
STARTCHAR char188
ENCODING 188
SWIDTH 692 0
DWIDTH 9 0
BBX 7 12 0 0
BITMAP
42
C2
44
44
48
10
10
22
46
4A
8E
82
ENDCHAR
STARTCHAR char189
ENCODING 189
SWIDTH 692 0
DWIDTH 9 0
BBX 7 12 0 0
BITMAP
42
C2
44
44
48
10
10
2C
42
44
88
8E
ENDCHAR
STARTCHAR char190
ENCODING 190
SWIDTH 692 0
DWIDTH 9 0
BBX 7 12 0 0
BITMAP
C2
22
44
24
C8
10
10
22
46
4A
8E
82
ENDCHAR
STARTCHAR questiondown
ENCODING 191
SWIDTH 692 0
DWIDTH 9 0
BBX 6 12 0 0
BITMAP
20
20
00
00
20
10
08
04
04
04
84
78
ENDCHAR
STARTCHAR Agrave
ENCODING 192
SWIDTH 692 0
DWIDTH 9 0
BBX 6 12 0 0
BITMAP
30
48
48
48
84
84
84
FC
84
84
84
84
ENDCHAR
STARTCHAR Aacute
ENCODING 193
SWIDTH 692 0
DWIDTH 9 0
BBX 6 15 0 0
BITMAP
10
20
00
30
48
48
48
84
84
84
FC
84
84
84
84
ENDCHAR
STARTCHAR Acircumflex
ENCODING 194
SWIDTH 692 0
DWIDTH 9 0
BBX 6 15 0 0
BITMAP
30
48
00
30
48
48
48
84
84
84
FC
84
84
84
84
ENDCHAR
STARTCHAR Atilde
ENCODING 195
SWIDTH 692 0
DWIDTH 9 0
BBX 6 12 0 0
BITMAP
30
48
48
48
84
84
84
FC
84
84
84
84
ENDCHAR
STARTCHAR Adieresis
ENCODING 196
SWIDTH 692 0
DWIDTH 9 0
BBX 6 14 0 0
BITMAP
48
00
30
48
48
48
84
84
84
FC
84
84
84
84
ENDCHAR
STARTCHAR Aring
ENCODING 197
SWIDTH 692 0
DWIDTH 9 0
BBX 6 12 0 0
BITMAP
30
48
48
48
84
84
84
FC
84
84
84
84
ENDCHAR
STARTCHAR AE
ENCODING 198
SWIDTH 692 0
DWIDTH 9 0
BBX 8 12 0 0
BITMAP
3F
48
48
48
48
88
8E
F8
88
88
88
8F
ENDCHAR
STARTCHAR Ccedilla
ENCODING 199
SWIDTH 692 0
DWIDTH 9 0
BBX 6 15 0 -3
BITMAP
78
84
80
80
80
80
80
80
80
80
84
78
10
08
30
ENDCHAR
STARTCHAR Egrave
ENCODING 200
SWIDTH 692 0
DWIDTH 9 0
BBX 5 12 0 0
BITMAP
F8
80
80
80
80
F0
80
80
80
80
80
F8
ENDCHAR
STARTCHAR Eacute
ENCODING 201
SWIDTH 692 0
DWIDTH 9 0
BBX 5 15 0 0
BITMAP
10
20
00
F8
80
80
80
80
F0
80
80
80
80
80
F8
ENDCHAR
STARTCHAR Ecircumflex
ENCODING 202
SWIDTH 692 0
DWIDTH 9 0
BBX 5 12 0 0
BITMAP
F8
80
80
80
80
F0
80
80
80
80
80
F8
ENDCHAR
STARTCHAR Edieresis
ENCODING 203
SWIDTH 692 0
DWIDTH 9 0
BBX 5 14 0 0
BITMAP
50
00
F8
80
80
80
80
F0
80
80
80
80
80
F8
ENDCHAR
STARTCHAR Igrave
ENCODING 204
SWIDTH 692 0
DWIDTH 9 0
BBX 5 12 0 0
BITMAP
F8
20
20
20
20
20
20
20
20
20
20
F8
ENDCHAR
STARTCHAR Iacute
ENCODING 205
SWIDTH 692 0
DWIDTH 9 0
BBX 5 15 0 0
BITMAP
10
20
00
F8
20
20
20
20
20
20
20
20
20
20
F8
ENDCHAR
STARTCHAR Icircumflex
ENCODING 206
SWIDTH 692 0
DWIDTH 9 0
BBX 5 15 0 0
BITMAP
20
50
00
F8
20
20
20
20
20
20
20
20
20
20
F8
ENDCHAR
STARTCHAR Idieresis
ENCODING 207
SWIDTH 692 0
DWIDTH 9 0
BBX 5 12 0 0
BITMAP
F8
20
20
20
20
20
20
20
20
20
20
F8
ENDCHAR
STARTCHAR Eth
ENCODING 208
SWIDTH 692 0
DWIDTH 9 0
BBX 6 12 0 0
BITMAP
F0
88
84
84
84
84
84
84
84
84
88
F0
ENDCHAR
STARTCHAR Ntilde
ENCODING 209
SWIDTH 692 0
DWIDTH 9 0
BBX 6 12 0 0
BITMAP
84
C4
A4
A4
94
94
8C
84
84
84
84
84
ENDCHAR
STARTCHAR Ograve
ENCODING 210
SWIDTH 692 0
DWIDTH 9 0
BBX 6 12 0 0
BITMAP
78
84
84
84
84
84
84
84
84
84
84
78
ENDCHAR
STARTCHAR Oacute
ENCODING 211
SWIDTH 692 0
DWIDTH 9 0
BBX 6 15 0 0
BITMAP
10
20
00
78
84
84
84
84
84
84
84
84
84
84
78
ENDCHAR
STARTCHAR Ocircumflex
ENCODING 212
SWIDTH 692 0
DWIDTH 9 0
BBX 6 15 0 0
BITMAP
30
48
00
78
84
84
84
84
84
84
84
84
84
84
78
ENDCHAR
STARTCHAR Otilde
ENCODING 213
SWIDTH 692 0
DWIDTH 9 0
BBX 6 12 0 0
BITMAP
78
84
84
84
84
84
84
84
84
84
84
78
ENDCHAR
STARTCHAR Odieresis
ENCODING 214
SWIDTH 692 0
DWIDTH 9 0
BBX 6 14 0 0
BITMAP
48
00
78
84
84
84
84
84
84
84
84
84
84
78
ENDCHAR
STARTCHAR multiply
ENCODING 215
SWIDTH 692 0
DWIDTH 9 0
BBX 7 7 0 2
BITMAP
82
44
28
10
28
44
82
ENDCHAR
STARTCHAR Oslash
ENCODING 216
SWIDTH 692 0
DWIDTH 9 0
BBX 6 12 0 0
BITMAP
78
84
84
84
84
84
84
84
84
84
84
78
ENDCHAR
STARTCHAR Ugrave
ENCODING 217
SWIDTH 692 0
DWIDTH 9 0
BBX 6 12 0 0
BITMAP
84
84
84
84
84
84
84
84
84
84
84
78
ENDCHAR
STARTCHAR Uacute
ENCODING 218
SWIDTH 692 0
DWIDTH 9 0
BBX 6 15 0 0
BITMAP
10
20
00
84
84
84
84
84
84
84
84
84
84
84
78
ENDCHAR
STARTCHAR Ucircumflex
ENCODING 219
SWIDTH 692 0
DWIDTH 9 0
BBX 6 12 0 0
BITMAP
84
84
84
84
84
84
84
84
84
84
84
78
ENDCHAR
STARTCHAR Udieresis
ENCODING 220
SWIDTH 692 0
DWIDTH 9 0
BBX 6 14 0 0
BITMAP
48
00
84
84
84
84
84
84
84
84
84
84
84
78
ENDCHAR
STARTCHAR Yacute
ENCODING 221
SWIDTH 692 0
DWIDTH 9 0
BBX 7 15 0 0
BITMAP
08
10
00
82
82
44
44
28
28
10
10
10
10
10
10
ENDCHAR
STARTCHAR Thorn
ENCODING 222
SWIDTH 692 0
DWIDTH 9 0
BBX 7 12 0 0
BITMAP
FE
10
10
10
10
10
10
10
10
10
10
10
ENDCHAR
STARTCHAR germandbls
ENCODING 223
SWIDTH 692 0
DWIDTH 9 0
BBX 6 12 0 0
BITMAP
70
88
88
88
B0
88
84
84
84
84
84
B8
ENDCHAR
STARTCHAR agrave
ENCODING 224
SWIDTH 692 0
DWIDTH 9 0
BBX 6 9 0 0
BITMAP
78
84
04
04
7C
84
84
8C
74
ENDCHAR
STARTCHAR aacute
ENCODING 225
SWIDTH 692 0
DWIDTH 9 0
BBX 6 12 0 0
BITMAP
08
10
00
78
84
04
04
7C
84
84
8C
74
ENDCHAR
STARTCHAR acircumflex
ENCODING 226
SWIDTH 692 0
DWIDTH 9 0
BBX 6 12 0 0
BITMAP
30
48
00
78
84
04
04
7C
84
84
8C
74
ENDCHAR
STARTCHAR atilde
ENCODING 227
SWIDTH 692 0
DWIDTH 9 0
BBX 6 9 0 0
BITMAP
78
84
04
04
7C
84
84
8C
74
ENDCHAR
STARTCHAR adieresis
ENCODING 228
SWIDTH 692 0
DWIDTH 9 0
BBX 6 11 0 0
BITMAP
48
00
78
84
04
04
7C
84
84
8C
74
ENDCHAR
STARTCHAR aring
ENCODING 229
SWIDTH 692 0
DWIDTH 9 0
BBX 6 9 0 0
BITMAP
78
84
04
04
7C
84
84
8C
74
ENDCHAR
STARTCHAR ae
ENCODING 230
SWIDTH 692 0
DWIDTH 9 0
BBX 7 9 0 0
BITMAP
6C
92
12
12
7C
90
90
92
6C
ENDCHAR
STARTCHAR ccedilla
ENCODING 231
SWIDTH 692 0
DWIDTH 9 0
BBX 6 12 0 -3
BITMAP
78
84
80
80
80
80
80
84
78
10
10
08
ENDCHAR
STARTCHAR egrave
ENCODING 232
SWIDTH 692 0
DWIDTH 9 0
BBX 6 9 0 0
BITMAP
78
84
84
84
FC
80
80
84
78
ENDCHAR
STARTCHAR eacute
ENCODING 233
SWIDTH 692 0
DWIDTH 9 0
BBX 6 12 0 0
BITMAP
08
10
00
78
84
84
84
FC
80
80
84
78
ENDCHAR
STARTCHAR ecircumflex
ENCODING 234
SWIDTH 692 0
DWIDTH 9 0
BBX 6 9 0 0
BITMAP
78
84
84
84
FC
80
80
84
78
ENDCHAR
STARTCHAR edieresis
ENCODING 235
SWIDTH 692 0
DWIDTH 9 0
BBX 6 11 0 0
BITMAP
48
00
78
84
84
84
FC
80
80
84
78
ENDCHAR
STARTCHAR igrave
ENCODING 236
SWIDTH 692 0
DWIDTH 9 0
BBX 5 12 1 0
BITMAP
20
00
00
E0
20
20
20
20
20
20
20
F8
ENDCHAR
STARTCHAR iacute
ENCODING 237
SWIDTH 692 0
DWIDTH 9 0
BBX 5 12 1 0
BITMAP
10
20
00
E0
20
20
20
20
20
20
20
F8
ENDCHAR
STARTCHAR icircumflex
ENCODING 238
SWIDTH 692 0
DWIDTH 9 0
BBX 5 12 1 0
BITMAP
20
50
00
E0
20
20
20
20
20
20
20
F8
ENDCHAR
STARTCHAR idieresis
ENCODING 239
SWIDTH 692 0
DWIDTH 9 0
BBX 5 12 1 0
BITMAP
20
00
00
E0
20
20
20
20
20
20
20
F8
ENDCHAR
STARTCHAR eth
ENCODING 240
SWIDTH 692 0
DWIDTH 9 0
BBX 6 12 0 0
BITMAP
04
04
04
74
8C
84
84
84
84
84
8C
74
ENDCHAR
STARTCHAR ntilde
ENCODING 241
SWIDTH 692 0
DWIDTH 9 0
BBX 6 9 0 0
BITMAP
B8
C4
84
84
84
84
84
84
84
ENDCHAR
STARTCHAR ograve
ENCODING 242
SWIDTH 692 0
DWIDTH 9 0
BBX 6 9 0 0
BITMAP
78
84
84
84
84
84
84
84
78
ENDCHAR
STARTCHAR oacute
ENCODING 243
SWIDTH 692 0
DWIDTH 9 0
BBX 6 12 0 0
BITMAP
08
10
00
78
84
84
84
84
84
84
84
78
ENDCHAR
STARTCHAR ocircumflex
ENCODING 244
SWIDTH 692 0
DWIDTH 9 0
BBX 6 12 0 0
BITMAP
30
48
00
78
84
84
84
84
84
84
84
78
ENDCHAR
STARTCHAR otilde
ENCODING 245
SWIDTH 692 0
DWIDTH 9 0
BBX 6 9 0 0
BITMAP
78
84
84
84
84
84
84
84
78
ENDCHAR
STARTCHAR odieresis
ENCODING 246
SWIDTH 692 0
DWIDTH 9 0
BBX 6 11 0 0
BITMAP
48
00
78
84
84
84
84
84
84
84
78
ENDCHAR
STARTCHAR divide
ENCODING 247
SWIDTH 692 0
DWIDTH 9 0
BBX 7 7 0 2
BITMAP
10
00
00
FE
00
00
10
ENDCHAR
STARTCHAR oslash
ENCODING 248
SWIDTH 692 0
DWIDTH 9 0
BBX 6 9 0 0
BITMAP
78
84
84
84
84
84
84
84
78
ENDCHAR
STARTCHAR ugrave
ENCODING 249
SWIDTH 692 0
DWIDTH 9 0
BBX 6 9 0 0
BITMAP
84
84
84
84
84
84
84
8C
74
ENDCHAR
STARTCHAR uacute
ENCODING 250
SWIDTH 692 0
DWIDTH 9 0
BBX 6 12 0 0
BITMAP
08
10
00
84
84
84
84
84
84
84
8C
74
ENDCHAR
STARTCHAR ucircumflex
ENCODING 251
SWIDTH 692 0
DWIDTH 9 0
BBX 6 9 0 0
BITMAP
84
84
84
84
84
84
84
8C
74
ENDCHAR
STARTCHAR udieresis
ENCODING 252
SWIDTH 692 0
DWIDTH 9 0
BBX 6 11 0 0
BITMAP
48
00
84
84
84
84
84
84
84
8C
74
ENDCHAR
STARTCHAR yacute
ENCODING 253
SWIDTH 692 0
DWIDTH 9 0
BBX 7 16 0 -3
BITMAP
08
10
00
00
82
82
44
44
28
28
10
10
20
20
40
40
ENDCHAR
STARTCHAR thorn
ENCODING 254
SWIDTH 692 0
DWIDTH 9 0
BBX 6 12 0 0
BITMAP
20
20
20
FC
20
20
20
20
20
20
20
1C
ENDCHAR
STARTCHAR ydieresis
ENCODING 255
SWIDTH 692 0
DWIDTH 9 0
BBX 7 12 0 -3
BITMAP
82
82
44
44
28
28
10
10
20
20
40
40
ENDCHAR
STARTCHAR Amacron
ENCODING 256
SWIDTH 692 0
DWIDTH 9 0
BBX 6 12 0 0
BITMAP
30
48
48
48
84
84
84
FC
84
84
84
84
ENDCHAR
STARTCHAR amacron
ENCODING 257
SWIDTH 692 0
DWIDTH 9 0
BBX 6 9 0 0
BITMAP
78
84
04
04
7C
84
84
8C
74
ENDCHAR
STARTCHAR Abreve
ENCODING 258
SWIDTH 692 0
DWIDTH 9 0
BBX 6 15 0 0
BITMAP
48
30
00
30
48
48
48
84
84
84
FC
84
84
84
84
ENDCHAR
STARTCHAR abreve
ENCODING 259
SWIDTH 692 0
DWIDTH 9 0
BBX 6 12 0 0
BITMAP
48
30
00
78
84
04
04
7C
84
84
8C
74
ENDCHAR
STARTCHAR Aogonek
ENCODING 260
SWIDTH 692 0
DWIDTH 9 0
BBX 7 15 0 -3
BITMAP
30
48
48
48
84
84
84
FC
84
84
84
84
08
08
06
ENDCHAR
STARTCHAR aogonek
ENCODING 261
SWIDTH 692 0
DWIDTH 9 0
BBX 6 12 0 -3
BITMAP
78
84
04
04
7C
84
84
8C
74
10
20
18
ENDCHAR
STARTCHAR Cacute
ENCODING 262
SWIDTH 692 0
DWIDTH 9 0
BBX 6 15 0 0
BITMAP
10
20
00
78
84
80
80
80
80
80
80
80
80
84
78
ENDCHAR
STARTCHAR cacute
ENCODING 263
SWIDTH 692 0
DWIDTH 9 0
BBX 6 12 0 0
BITMAP
08
10
00
78
84
80
80
80
80
80
84
78
ENDCHAR
STARTCHAR Ccircumflex
ENCODING 264
SWIDTH 692 0
DWIDTH 9 0
BBX 6 12 0 0
BITMAP
78
84
80
80
80
80
80
80
80
80
84
78
ENDCHAR
STARTCHAR ccircumflex
ENCODING 265
SWIDTH 692 0
DWIDTH 9 0
BBX 6 9 0 0
BITMAP
78
84
80
80
80
80
80
84
78
ENDCHAR
STARTCHAR Cdotaccent
ENCODING 266
SWIDTH 692 0
DWIDTH 9 0
BBX 6 12 0 0
BITMAP
78
84
80
80
80
80
80
80
80
80
84
78
ENDCHAR
STARTCHAR cdotaccent
ENCODING 267
SWIDTH 692 0
DWIDTH 9 0
BBX 6 9 0 0
BITMAP
78
84
80
80
80
80
80
84
78
ENDCHAR
STARTCHAR Ccaron
ENCODING 268
SWIDTH 692 0
DWIDTH 9 0
BBX 6 15 0 0
BITMAP
48
30
00
78
84
80
80
80
80
80
80
80
80
84
78
ENDCHAR
STARTCHAR ccaron
ENCODING 269
SWIDTH 692 0
DWIDTH 9 0
BBX 6 12 0 0
BITMAP
48
30
00
78
84
80
80
80
80
80
84
78
ENDCHAR
STARTCHAR Dcaron
ENCODING 270
SWIDTH 692 0
DWIDTH 9 0
BBX 6 15 0 0
BITMAP
50
20
00
F0
88
84
84
84
84
84
84
84
84
88
F0
ENDCHAR
STARTCHAR dcaron
ENCODING 271
SWIDTH 692 0
DWIDTH 9 0
BBX 8 14 0 0
BITMAP
03
01
05
04
04
74
8C
84
84
84
84
84
8C
74
ENDCHAR
STARTCHAR Dcroat
ENCODING 272
SWIDTH 692 0
DWIDTH 9 0
BBX 6 12 0 0
BITMAP
F0
88
84
84
84
F4
84
84
84
84
88
F0
ENDCHAR
STARTCHAR dcroat
ENCODING 273
SWIDTH 692 0
DWIDTH 9 0
BBX 7 12 0 0
BITMAP
04
0E
04
74
8C
84
84
84
84
84
8C
74
ENDCHAR
STARTCHAR Emacron
ENCODING 274
SWIDTH 692 0
DWIDTH 9 0
BBX 5 12 0 0
BITMAP
F8
80
80
80
80
F0
80
80
80
80
80
F8
ENDCHAR
STARTCHAR emacron
ENCODING 275
SWIDTH 692 0
DWIDTH 9 0
BBX 6 9 0 0
BITMAP
78
84
84
84
FC
80
80
84
78
ENDCHAR
STARTCHAR Ebreve
ENCODING 276
SWIDTH 692 0
DWIDTH 9 0
BBX 5 12 0 0
BITMAP
F8
80
80
80
80
F0
80
80
80
80
80
F8
ENDCHAR
STARTCHAR ebreve
ENCODING 277
SWIDTH 692 0
DWIDTH 9 0
BBX 6 9 0 0
BITMAP
78
84
84
84
FC
80
80
84
78
ENDCHAR
STARTCHAR Edotaccent
ENCODING 278
SWIDTH 692 0
DWIDTH 9 0
BBX 5 12 0 0
BITMAP
F8
80
80
80
80
F0
80
80
80
80
80
F8
ENDCHAR
STARTCHAR edotaccent
ENCODING 279
SWIDTH 692 0
DWIDTH 9 0
BBX 6 9 0 0
BITMAP
78
84
84
84
FC
80
80
84
78
ENDCHAR
STARTCHAR Eogonek
ENCODING 280
SWIDTH 692 0
DWIDTH 9 0
BBX 5 15 0 -3
BITMAP
F8
80
80
80
80
F0
80
80
80
80
80
F8
20
40
30
ENDCHAR
STARTCHAR eogonek
ENCODING 281
SWIDTH 692 0
DWIDTH 9 0
BBX 6 12 0 -3
BITMAP
78
84
84
84
FC
80
80
84
78
20
20
10
ENDCHAR
STARTCHAR Ecaron
ENCODING 282
SWIDTH 692 0
DWIDTH 9 0
BBX 5 15 0 0
BITMAP
50
20
00
F8
80
80
80
80
F0
80
80
80
80
80
F8
ENDCHAR
STARTCHAR ecaron
ENCODING 283
SWIDTH 692 0
DWIDTH 9 0
BBX 6 12 0 0
BITMAP
48
30
00
78
84
84
84
FC
80
80
84
78
ENDCHAR
STARTCHAR Gcircumflex
ENCODING 284
SWIDTH 692 0
DWIDTH 9 0
BBX 6 12 0 0
BITMAP
78
84
80
80
80
80
80
8C
84
84
84
78
ENDCHAR
STARTCHAR gcircumflex
ENCODING 285
SWIDTH 692 0
DWIDTH 9 0
BBX 7 12 0 -3
BITMAP
7E
84
84
84
78
80
80
7C
82
82
82
7C
ENDCHAR
STARTCHAR Gbreve
ENCODING 286
SWIDTH 692 0
DWIDTH 9 0
BBX 6 12 0 0
BITMAP
78
84
80
80
80
80
80
8C
84
84
84
78
ENDCHAR
STARTCHAR gbreve
ENCODING 287
SWIDTH 692 0
DWIDTH 9 0
BBX 7 12 0 -3
BITMAP
7E
84
84
84
78
80
80
7C
82
82
82
7C
ENDCHAR
STARTCHAR Gdotaccent
ENCODING 288
SWIDTH 692 0
DWIDTH 9 0
BBX 6 12 0 0
BITMAP
78
84
80
80
80
80
80
8C
84
84
84
78
ENDCHAR
STARTCHAR gdotaccent
ENCODING 289
SWIDTH 692 0
DWIDTH 9 0
BBX 7 12 0 -3
BITMAP
7E
84
84
84
78
80
80
7C
82
82
82
7C
ENDCHAR
STARTCHAR Gcommaaccent
ENCODING 290
SWIDTH 692 0
DWIDTH 9 0
BBX 6 12 0 0
BITMAP
78
84
80
80
80
80
80
8C
84
84
84
78
ENDCHAR
STARTCHAR gcommaaccent
ENCODING 291
SWIDTH 692 0
DWIDTH 9 0
BBX 7 12 0 -3
BITMAP
7E
84
84
84
78
80
80
7C
82
82
82
7C
ENDCHAR
STARTCHAR Hcircumflex
ENCODING 292
SWIDTH 692 0
DWIDTH 9 0
BBX 6 12 0 0
BITMAP
84
84
84
84
84
FC
84
84
84
84
84
84
ENDCHAR
STARTCHAR hcircumflex
ENCODING 293
SWIDTH 692 0
DWIDTH 9 0
BBX 6 12 0 0
BITMAP
80
80
80
B8
C4
84
84
84
84
84
84
84
ENDCHAR
STARTCHAR Hbar
ENCODING 294
SWIDTH 692 0
DWIDTH 9 0
BBX 6 12 0 0
BITMAP
84
84
84
84
84
FC
84
84
84
84
84
84
ENDCHAR
STARTCHAR hbar
ENCODING 295
SWIDTH 692 0
DWIDTH 9 0
BBX 6 12 0 0
BITMAP
80
80
80
B8
C4
84
84
84
84
84
84
84
ENDCHAR
STARTCHAR Itilde
ENCODING 296
SWIDTH 692 0
DWIDTH 9 0
BBX 5 12 0 0
BITMAP
F8
20
20
20
20
20
20
20
20
20
20
F8
ENDCHAR
STARTCHAR itilde
ENCODING 297
SWIDTH 692 0
DWIDTH 9 0
BBX 5 12 1 0
BITMAP
20
00
00
E0
20
20
20
20
20
20
20
F8
ENDCHAR
STARTCHAR Imacron
ENCODING 298
SWIDTH 692 0
DWIDTH 9 0
BBX 5 12 0 0
BITMAP
F8
20
20
20
20
20
20
20
20
20
20
F8
ENDCHAR
STARTCHAR imacron
ENCODING 299
SWIDTH 692 0
DWIDTH 9 0
BBX 5 12 1 0
BITMAP
20
00
00
E0
20
20
20
20
20
20
20
F8
ENDCHAR
STARTCHAR Ibreve
ENCODING 300
SWIDTH 692 0
DWIDTH 9 0
BBX 5 12 0 0
BITMAP
F8
20
20
20
20
20
20
20
20
20
20
F8
ENDCHAR
STARTCHAR ibreve
ENCODING 301
SWIDTH 692 0
DWIDTH 9 0
BBX 5 12 1 0
BITMAP
20
00
00
E0
20
20
20
20
20
20
20
F8
ENDCHAR
STARTCHAR Iogonek
ENCODING 302
SWIDTH 692 0
DWIDTH 9 0
BBX 5 12 0 0
BITMAP
F8
20
20
20
20
20
20
20
20
20
20
F8
ENDCHAR
STARTCHAR iogonek
ENCODING 303
SWIDTH 692 0
DWIDTH 9 0
BBX 5 12 1 0
BITMAP
20
00
00
E0
20
20
20
20
20
20
20
F8
ENDCHAR
STARTCHAR Idotaccent
ENCODING 304
SWIDTH 692 0
DWIDTH 9 0
BBX 5 12 0 0
BITMAP
F8
20
20
20
20
20
20
20
20
20
20
F8
ENDCHAR
STARTCHAR dotlessi
ENCODING 305
SWIDTH 692 0
DWIDTH 9 0
BBX 5 12 1 0
BITMAP
20
00
00
E0
20
20
20
20
20
20
20
F8
ENDCHAR
STARTCHAR ij
ENCODING 307
SWIDTH 692 0
DWIDTH 9 0
BBX 7 12 0 -3
BITMAP
82
82
44
44
28
28
10
10
20
20
40
40
ENDCHAR
STARTCHAR Jcircumflex
ENCODING 308
SWIDTH 692 0
DWIDTH 9 0
BBX 6 12 0 0
BITMAP
FC
04
04
04
04
04
04
04
04
84
84
78
ENDCHAR
STARTCHAR jcircumflex
ENCODING 309
SWIDTH 692 0
DWIDTH 9 0
BBX 5 14 1 -2
BITMAP
08
00
00
38
08
08
08
08
08
08
08
08
88
70
ENDCHAR
STARTCHAR Kcommaaccent
ENCODING 310
SWIDTH 692 0
DWIDTH 9 0
BBX 6 12 0 0
BITMAP
84
84
88
90
90
A0
E0
90
88
88
84
84
ENDCHAR
STARTCHAR kcommaaccent
ENCODING 311
SWIDTH 692 0
DWIDTH 9 0
BBX 6 12 0 0
BITMAP
80
80
80
84
88
90
A0
E0
90
88
84
84
ENDCHAR
STARTCHAR kgreenlandic
ENCODING 312
SWIDTH 692 0
DWIDTH 9 0
BBX 6 12 0 0
BITMAP
80
80
80
84
88
90
A0
E0
90
88
84
84
ENDCHAR
STARTCHAR Lacute
ENCODING 313
SWIDTH 692 0
DWIDTH 9 0
BBX 6 15 0 0
BITMAP
40
80
00
80
80
80
80
80
80
80
80
80
80
80
FC
ENDCHAR
STARTCHAR lacute
ENCODING 314
SWIDTH 692 0
DWIDTH 9 0
BBX 5 16 2 0
BITMAP
10
20
00
E0
20
20
20
20
20
20
20
20
20
20
20
F8
ENDCHAR
STARTCHAR Lcommaaccent
ENCODING 315
SWIDTH 692 0
DWIDTH 9 0
BBX 6 12 0 0
BITMAP
80
80
80
80
80
80
80
80
80
80
80
FC
ENDCHAR
STARTCHAR lcommaaccent
ENCODING 316
SWIDTH 692 0
DWIDTH 9 0
BBX 5 12 1 0
BITMAP
E0
20
20
20
20
20
20
20
20
20
20
F8
ENDCHAR
STARTCHAR Lcaron
ENCODING 317
SWIDTH 692 0
DWIDTH 9 0
BBX 6 13 0 0
BITMAP
30
90
A0
80
80
80
80
80
80
80
80
80
FC
ENDCHAR
STARTCHAR lcaron
ENCODING 318
SWIDTH 692 0
DWIDTH 9 0
BBX 6 14 1 0
BITMAP
0C
04
E8
20
20
20
20
20
20
20
20
20
20
F8
ENDCHAR
STARTCHAR Ldot
ENCODING 319
SWIDTH 692 0
DWIDTH 9 0
BBX 6 12 0 0
BITMAP
80
80
80
80
80
80
80
80
80
80
80
FC
ENDCHAR
STARTCHAR ldot
ENCODING 320
SWIDTH 692 0
DWIDTH 9 0
BBX 5 12 1 0
BITMAP
E0
20
20
20
20
20
20
20
20
20
20
F8
ENDCHAR
STARTCHAR Lslash
ENCODING 321
SWIDTH 692 0
DWIDTH 9 0
BBX 7 12 0 0
BITMAP
40
40
40
40
50
60
40
C0
40
40
40
7E
ENDCHAR
STARTCHAR lslash
ENCODING 322
SWIDTH 692 0
DWIDTH 9 0
BBX 5 12 1 0
BITMAP
E0
20
28
30
20
60
A0
20
20
20
20
F8
ENDCHAR
STARTCHAR Nacute
ENCODING 323
SWIDTH 692 0
DWIDTH 9 0
BBX 6 15 0 0
BITMAP
10
20
00
84
C4
A4
A4
94
94
8C
84
84
84
84
84
ENDCHAR
STARTCHAR nacute
ENCODING 324
SWIDTH 692 0
DWIDTH 9 0
BBX 6 12 0 0
BITMAP
10
20
00
B8
C4
84
84
84
84
84
84
84
ENDCHAR
STARTCHAR Ncommaaccent
ENCODING 325
SWIDTH 692 0
DWIDTH 9 0
BBX 6 12 0 0
BITMAP
84
C4
A4
A4
94
94
8C
84
84
84
84
84
ENDCHAR
STARTCHAR ncommaaccent
ENCODING 326
SWIDTH 692 0
DWIDTH 9 0
BBX 6 9 0 0
BITMAP
B8
C4
84
84
84
84
84
84
84
ENDCHAR
STARTCHAR Ncaron
ENCODING 327
SWIDTH 692 0
DWIDTH 9 0
BBX 6 15 0 0
BITMAP
48
30
00
84
C4
A4
A4
94
94
8C
84
84
84
84
84
ENDCHAR
STARTCHAR ncaron
ENCODING 328
SWIDTH 692 0
DWIDTH 9 0
BBX 6 12 0 0
BITMAP
48
30
00
B8
C4
84
84
84
84
84
84
84
ENDCHAR
STARTCHAR napostrophe
ENCODING 329
SWIDTH 692 0
DWIDTH 9 0
BBX 6 9 0 0
BITMAP
B8
C4
84
84
84
84
84
84
84
ENDCHAR
STARTCHAR Eng
ENCODING 330
SWIDTH 692 0
DWIDTH 9 0
BBX 6 12 0 0
BITMAP
84
C4
A4
A4
94
94
8C
84
84
84
84
84
ENDCHAR
STARTCHAR eng
ENCODING 331
SWIDTH 692 0
DWIDTH 9 0
BBX 6 12 0 0
BITMAP
84
C4
A4
A4
94
94
8C
84
84
84
84
84
ENDCHAR
STARTCHAR Omacron
ENCODING 332
SWIDTH 692 0
DWIDTH 9 0
BBX 6 12 0 0
BITMAP
78
84
84
84
84
84
84
84
84
84
84
78
ENDCHAR
STARTCHAR omacron
ENCODING 333
SWIDTH 692 0
DWIDTH 9 0
BBX 6 9 0 0
BITMAP
78
84
84
84
84
84
84
84
78
ENDCHAR
STARTCHAR Obreve
ENCODING 334
SWIDTH 692 0
DWIDTH 9 0
BBX 6 12 0 0
BITMAP
78
84
84
84
84
84
84
84
84
84
84
78
ENDCHAR
STARTCHAR obreve
ENCODING 335
SWIDTH 692 0
DWIDTH 9 0
BBX 6 9 0 0
BITMAP
78
84
84
84
84
84
84
84
78
ENDCHAR
STARTCHAR Ohungarumlaut
ENCODING 336
SWIDTH 692 0
DWIDTH 9 0
BBX 6 15 0 0
BITMAP
28
50
00
78
84
84
84
84
84
84
84
84
84
84
78
ENDCHAR
STARTCHAR ohungarumlaut
ENCODING 337
SWIDTH 692 0
DWIDTH 9 0
BBX 6 12 0 0
BITMAP
24
48
00
78
84
84
84
84
84
84
84
78
ENDCHAR
STARTCHAR OE
ENCODING 338
SWIDTH 692 0
DWIDTH 9 0
BBX 6 12 0 0
BITMAP
78
84
84
84
84
84
84
84
84
84
84
78
ENDCHAR
STARTCHAR oe
ENCODING 339
SWIDTH 692 0
DWIDTH 9 0
BBX 6 9 0 0
BITMAP
78
84
84
84
84
84
84
84
78
ENDCHAR
STARTCHAR Racute
ENCODING 340
SWIDTH 692 0
DWIDTH 9 0
BBX 6 15 0 0
BITMAP
10
20
00
F8
84
84
84
84
F8
88
88
88
84
84
84
ENDCHAR
STARTCHAR racute
ENCODING 341
SWIDTH 692 0
DWIDTH 9 0
BBX 6 12 1 0
BITMAP
10
20
00
B8
C4
80
80
80
80
80
80
80
ENDCHAR
STARTCHAR Rcommaaccent
ENCODING 342
SWIDTH 692 0
DWIDTH 9 0
BBX 6 12 0 0
BITMAP
F8
84
84
84
84
F8
88
88
88
84
84
84
ENDCHAR
STARTCHAR rcommaaccent
ENCODING 343
SWIDTH 692 0
DWIDTH 9 0
BBX 6 9 0 0
BITMAP
B8
C4
80
80
80
80
80
80
80
ENDCHAR
STARTCHAR Rcaron
ENCODING 344
SWIDTH 692 0
DWIDTH 9 0
BBX 6 15 0 0
BITMAP
48
30
00
F8
84
84
84
84
F8
88
88
88
84
84
84
ENDCHAR
STARTCHAR rcaron
ENCODING 345
SWIDTH 692 0
DWIDTH 9 0
BBX 6 12 1 0
BITMAP
48
30
00
B8
C4
80
80
80
80
80
80
80
ENDCHAR
STARTCHAR Sacute
ENCODING 346
SWIDTH 692 0
DWIDTH 9 0
BBX 6 15 0 0
BITMAP
10
20
00
78
84
80
80
40
30
08
04
04
04
84
78
ENDCHAR
STARTCHAR sacute
ENCODING 347
SWIDTH 692 0
DWIDTH 9 0
BBX 6 12 0 0
BITMAP
30
48
00
78
84
80
80
78
04
04
84
78
ENDCHAR
STARTCHAR Scircumflex
ENCODING 348
SWIDTH 692 0
DWIDTH 9 0
BBX 6 12 0 0
BITMAP
78
84
80
80
40
30
08
04
04
04
84
78
ENDCHAR
STARTCHAR scircumflex
ENCODING 349
SWIDTH 692 0
DWIDTH 9 0
BBX 6 9 0 0
BITMAP
78
84
80
80
78
04
04
84
78
ENDCHAR
STARTCHAR Scommaaccent
ENCODING 350
SWIDTH 692 0
DWIDTH 9 0
BBX 6 15 0 -3
BITMAP
78
84
80
80
40
30
08
04
04
04
84
78
10
08
30
ENDCHAR
STARTCHAR scommaaccent
ENCODING 351
SWIDTH 692 0
DWIDTH 9 0
BBX 6 12 0 -3
BITMAP
78
84
80
80
78
04
04
84
78
10
08
30
ENDCHAR
STARTCHAR Scaron
ENCODING 352
SWIDTH 692 0
DWIDTH 9 0
BBX 6 15 0 0
BITMAP
48
30
00
78
84
80
80
40
30
08
04
04
04
84
78
ENDCHAR
STARTCHAR scaron
ENCODING 353
SWIDTH 692 0
DWIDTH 9 0
BBX 6 12 0 0
BITMAP
48
30
00
78
84
80
80
78
04
04
84
78
ENDCHAR
STARTCHAR Tcommaaccent
ENCODING 354
SWIDTH 692 0
DWIDTH 9 0
BBX 7 15 0 -3
BITMAP
FE
10
10
10
10
10
10
10
10
10
10
10
10
10
20
ENDCHAR
STARTCHAR tcommaaccent
ENCODING 355
SWIDTH 692 0
DWIDTH 9 0
BBX 6 15 0 -3
BITMAP
20
20
20
FC
20
20
20
20
20
20
20
1C
08
08
10
ENDCHAR
STARTCHAR Tcaron
ENCODING 356
SWIDTH 692 0
DWIDTH 9 0
BBX 7 15 0 0
BITMAP
28
10
00
FE
10
10
10
10
10
10
10
10
10
10
10
ENDCHAR
STARTCHAR tcaron
ENCODING 357
SWIDTH 692 0
DWIDTH 9 0
BBX 7 13 0 0
BITMAP
06
22
24
20
FC
20
20
20
20
20
20
20
1C
ENDCHAR
STARTCHAR Tbar
ENCODING 358
SWIDTH 692 0
DWIDTH 9 0
BBX 7 12 0 0
BITMAP
FE
10
10
10
10
10
10
10
10
10
10
10
ENDCHAR
STARTCHAR tbar
ENCODING 359
SWIDTH 692 0
DWIDTH 9 0
BBX 6 12 0 0
BITMAP
20
20
20
FC
20
20
20
20
20
20
20
1C
ENDCHAR
STARTCHAR Utilde
ENCODING 360
SWIDTH 692 0
DWIDTH 9 0
BBX 6 12 0 0
BITMAP
84
84
84
84
84
84
84
84
84
84
84
78
ENDCHAR
STARTCHAR utilde
ENCODING 361
SWIDTH 692 0
DWIDTH 9 0
BBX 6 9 0 0
BITMAP
84
84
84
84
84
84
84
8C
74
ENDCHAR
STARTCHAR Umacron
ENCODING 362
SWIDTH 692 0
DWIDTH 9 0
BBX 6 12 0 0
BITMAP
84
84
84
84
84
84
84
84
84
84
84
78
ENDCHAR
STARTCHAR umacron
ENCODING 363
SWIDTH 692 0
DWIDTH 9 0
BBX 6 9 0 0
BITMAP
84
84
84
84
84
84
84
8C
74
ENDCHAR
STARTCHAR Ubreve
ENCODING 364
SWIDTH 692 0
DWIDTH 9 0
BBX 6 12 0 0
BITMAP
84
84
84
84
84
84
84
84
84
84
84
78
ENDCHAR
STARTCHAR ubreve
ENCODING 365
SWIDTH 692 0
DWIDTH 9 0
BBX 6 9 0 0
BITMAP
84
84
84
84
84
84
84
8C
74
ENDCHAR
STARTCHAR Uring
ENCODING 366
SWIDTH 692 0
DWIDTH 9 0
BBX 6 15 0 0
BITMAP
30
48
30
84
84
84
84
84
84
84
84
84
84
84
78
ENDCHAR
STARTCHAR uring
ENCODING 367
SWIDTH 692 0
DWIDTH 9 0
BBX 6 13 0 0
BITMAP
30
48
48
30
84
84
84
84
84
84
84
8C
74
ENDCHAR
STARTCHAR Uhungarumlaut
ENCODING 368
SWIDTH 692 0
DWIDTH 9 0
BBX 6 15 0 0
BITMAP
28
50
00
84
84
84
84
84
84
84
84
84
84
84
78
ENDCHAR
STARTCHAR uhungarumlaut
ENCODING 369
SWIDTH 692 0
DWIDTH 9 0
BBX 6 12 0 0
BITMAP
24
48
00
84
84
84
84
84
84
84
8C
74
ENDCHAR
STARTCHAR Uogonek
ENCODING 370
SWIDTH 692 0
DWIDTH 9 0
BBX 6 12 0 0
BITMAP
84
84
84
84
84
84
84
84
84
84
84
78
ENDCHAR
STARTCHAR uogonek
ENCODING 371
SWIDTH 692 0
DWIDTH 9 0
BBX 6 9 0 0
BITMAP
84
84
84
84
84
84
84
8C
74
ENDCHAR
STARTCHAR Wcircumflex
ENCODING 372
SWIDTH 692 0
DWIDTH 9 0
BBX 7 12 0 0
BITMAP
82
82
82
82
82
82
92
92
AA
AA
44
44
ENDCHAR
STARTCHAR wcircumflex
ENCODING 373
SWIDTH 692 0
DWIDTH 9 0
BBX 7 9 0 0
BITMAP
82
82
82
82
92
AA
AA
44
44
ENDCHAR
STARTCHAR Ycircumflex
ENCODING 374
SWIDTH 692 0
DWIDTH 9 0
BBX 7 12 0 0
BITMAP
82
82
44
44
28
28
10
10
10
10
10
10
ENDCHAR
STARTCHAR ycircumflex
ENCODING 375
SWIDTH 692 0
DWIDTH 9 0
BBX 7 12 0 -3
BITMAP
82
82
44
44
28
28
10
10
20
20
40
40
ENDCHAR
STARTCHAR Ydieresis
ENCODING 376
SWIDTH 692 0
DWIDTH 9 0
BBX 7 12 0 0
BITMAP
82
82
44
44
28
28
10
10
10
10
10
10
ENDCHAR
STARTCHAR Zacute
ENCODING 377
SWIDTH 692 0
DWIDTH 9 0
BBX 6 12 0 0
BITMAP
10
20
00
FC
04
08
10
20
20
40
80
FC
ENDCHAR
STARTCHAR zacute
ENCODING 378
SWIDTH 692 0
DWIDTH 9 0
BBX 6 12 0 0
BITMAP
10
20
00
FC
04
08
10
20
20
40
80
FC
ENDCHAR
STARTCHAR Zdotaccent
ENCODING 379
SWIDTH 692 0
DWIDTH 9 0
BBX 6 11 0 0
BITMAP
30
00
FC
04
08
10
20
20
40
80
FC
ENDCHAR
STARTCHAR zdotaccent
ENCODING 380
SWIDTH 692 0
DWIDTH 9 0
BBX 6 11 0 0
BITMAP
30
00
FC
04
08
10
10
20
40
80
FC
ENDCHAR
STARTCHAR Zcaron
ENCODING 381
SWIDTH 692 0
DWIDTH 9 0
BBX 6 12 0 0
BITMAP
48
30
00
FC
04
08
10
20
20
40
80
FC
ENDCHAR
STARTCHAR zcaron
ENCODING 382
SWIDTH 692 0
DWIDTH 9 0
BBX 6 12 0 0
BITMAP
48
30
00
FC
04
08
10
20
20
40
80
FC
ENDCHAR
STARTCHAR longs
ENCODING 383
SWIDTH 692 0
DWIDTH 9 0
BBX 6 9 0 0
BITMAP
78
84
80
80
78
04
04
84
78
ENDCHAR
STARTCHAR uni0180
ENCODING 384
SWIDTH 692 0
DWIDTH 9 0
BBX 6 12 0 0
BITMAP
80
80
80
B8
C4
84
84
84
84
84
C4
B8
ENDCHAR
STARTCHAR uni0181
ENCODING 385
SWIDTH 692 0
DWIDTH 9 0
BBX 6 12 0 0
BITMAP
F8
84
84
84
84
F8
84
84
84
84
84
F8
ENDCHAR
STARTCHAR uni0182
ENCODING 386
SWIDTH 692 0
DWIDTH 9 0
BBX 6 12 0 0
BITMAP
F8
84
84
84
84
F8
84
84
84
84
84
F8
ENDCHAR
STARTCHAR uni0183
ENCODING 387
SWIDTH 692 0
DWIDTH 9 0
BBX 6 12 0 0
BITMAP
80
80
80
B8
C4
84
84
84
84
84
C4
B8
ENDCHAR
STARTCHAR uni0186
ENCODING 390
SWIDTH 692 0
DWIDTH 9 0
BBX 6 12 0 0
BITMAP
78
84
84
84
84
84
84
84
84
84
84
78
ENDCHAR
STARTCHAR uni0187
ENCODING 391
SWIDTH 692 0
DWIDTH 9 0
BBX 6 12 0 0
BITMAP
78
84
80
80
80
80
80
80
80
80
84
78
ENDCHAR
STARTCHAR uni0188
ENCODING 392
SWIDTH 692 0
DWIDTH 9 0
BBX 6 9 0 0
BITMAP
78
84
80
80
80
80
80
84
78
ENDCHAR
STARTCHAR uni018A
ENCODING 394
SWIDTH 692 0
DWIDTH 9 0
BBX 6 12 0 0
BITMAP
F0
88
84
84
84
84
84
84
84
84
88
F0
ENDCHAR
STARTCHAR uni018B
ENCODING 395
SWIDTH 692 0
DWIDTH 9 0
BBX 6 12 0 0
BITMAP
F0
88
84
84
84
84
84
84
84
84
88
F0
ENDCHAR
STARTCHAR uni018C
ENCODING 396
SWIDTH 692 0
DWIDTH 9 0
BBX 6 12 0 0
BITMAP
04
04
04
74
8C
84
84
84
84
84
8C
74
ENDCHAR
STARTCHAR uni0190
ENCODING 400
SWIDTH 692 0
DWIDTH 9 0
BBX 5 12 0 0
BITMAP
F8
80
80
80
80
F0
80
80
80
80
80
F8
ENDCHAR
STARTCHAR uni0191
ENCODING 401
SWIDTH 692 0
DWIDTH 9 0
BBX 5 12 0 0
BITMAP
F8
80
80
80
F0
80
80
80
80
80
80
80
ENDCHAR
STARTCHAR florin
ENCODING 402
SWIDTH 692 0
DWIDTH 9 0
BBX 6 12 0 0
BITMAP
1C
20
20
20
FC
20
20
20
20
20
20
20
ENDCHAR
STARTCHAR uni0193
ENCODING 403
SWIDTH 692 0
DWIDTH 9 0
BBX 6 12 0 0
BITMAP
78
84
80
80
80
80
80
8C
84
84
84
78
ENDCHAR
STARTCHAR uni0197
ENCODING 407
SWIDTH 692 0
DWIDTH 9 0
BBX 5 12 0 0
BITMAP
F8
20
20
20
20
20
20
20
20
20
20
F8
ENDCHAR
STARTCHAR uni0198
ENCODING 408
SWIDTH 692 0
DWIDTH 9 0
BBX 6 12 0 0
BITMAP
84
84
88
90
90
A0
E0
90
88
88
84
84
ENDCHAR
STARTCHAR uni0199
ENCODING 409
SWIDTH 692 0
DWIDTH 9 0
BBX 6 12 0 0
BITMAP
80
80
80
84
88
90
A0
E0
90
88
84
84
ENDCHAR
STARTCHAR uni019A
ENCODING 410
SWIDTH 692 0
DWIDTH 9 0
BBX 5 12 1 0
BITMAP
E0
20
20
20
20
20
20
20
20
20
20
F8
ENDCHAR
STARTCHAR uni019D
ENCODING 413
SWIDTH 692 0
DWIDTH 9 0
BBX 6 12 0 0
BITMAP
84
C4
A4
A4
94
94
8C
84
84
84
84
84
ENDCHAR
STARTCHAR uni019E
ENCODING 414
SWIDTH 692 0
DWIDTH 9 0
BBX 6 9 0 0
BITMAP
B8
C4
84
84
84
84
84
84
84
ENDCHAR
STARTCHAR uni019F
ENCODING 415
SWIDTH 692 0
DWIDTH 9 0
BBX 6 12 0 0
BITMAP
78
84
84
84
84
84
84
84
84
84
84
78
ENDCHAR
STARTCHAR Ohorn
ENCODING 416
SWIDTH 692 0
DWIDTH 9 0
BBX 6 12 0 0
BITMAP
78
84
84
84
84
84
84
84
84
84
84
78
ENDCHAR
STARTCHAR ohorn
ENCODING 417
SWIDTH 692 0
DWIDTH 9 0
BBX 6 9 0 0
BITMAP
78
84
84
84
84
84
84
84
78
ENDCHAR
STARTCHAR uni01A2
ENCODING 418
SWIDTH 692 0
DWIDTH 9 0
BBX 6 12 0 0
BITMAP
78
84
84
84
84
84
84
84
84
84
84
78
ENDCHAR
STARTCHAR uni01A3
ENCODING 419
SWIDTH 692 0
DWIDTH 9 0
BBX 6 9 0 0
BITMAP
78
84
84
84
84
84
84
84
78
ENDCHAR
STARTCHAR uni01A4
ENCODING 420
SWIDTH 692 0
DWIDTH 9 0
BBX 6 12 0 0
BITMAP
F8
84
84
84
84
F8
80
80
80
80
80
80
ENDCHAR
STARTCHAR uni01A5
ENCODING 421
SWIDTH 692 0
DWIDTH 9 0
BBX 6 12 0 -3
BITMAP
B8
C4
84
84
84
84
84
C4
B8
80
80
80
ENDCHAR
STARTCHAR uni01AB
ENCODING 427
SWIDTH 692 0
DWIDTH 9 0
BBX 6 12 0 0
BITMAP
20
20
20
FC
20
20
20
20
20
20
20
1C
ENDCHAR
STARTCHAR uni01AC
ENCODING 428
SWIDTH 692 0
DWIDTH 9 0
BBX 7 12 0 0
BITMAP
FE
10
10
10
10
10
10
10
10
10
10
10
ENDCHAR
STARTCHAR uni01AD
ENCODING 429
SWIDTH 692 0
DWIDTH 9 0
BBX 6 12 0 0
BITMAP
20
20
20
FC
20
20
20
20
20
20
20
1C
ENDCHAR
STARTCHAR uni01AE
ENCODING 430
SWIDTH 692 0
DWIDTH 9 0
BBX 7 12 0 0
BITMAP
FE
10
10
10
10
10
10
10
10
10
10
10
ENDCHAR
STARTCHAR Uhorn
ENCODING 431
SWIDTH 692 0
DWIDTH 9 0
BBX 6 12 0 0
BITMAP
84
84
84
84
84
84
84
84
84
84
84
78
ENDCHAR
STARTCHAR uhorn
ENCODING 432
SWIDTH 692 0
DWIDTH 9 0
BBX 6 9 0 0
BITMAP
84
84
84
84
84
84
84
8C
74
ENDCHAR
STARTCHAR uni01B2
ENCODING 434
SWIDTH 692 0
DWIDTH 9 0
BBX 7 12 0 0
BITMAP
82
82
82
82
44
44
44
28
28
28
10
10
ENDCHAR
STARTCHAR uni01B3
ENCODING 435
SWIDTH 692 0
DWIDTH 9 0
BBX 7 12 0 0
BITMAP
82
82
44
44
28
28
10
10
10
10
10
10
ENDCHAR
STARTCHAR uni01B4
ENCODING 436
SWIDTH 692 0
DWIDTH 9 0
BBX 7 12 0 -3
BITMAP
82
82
44
44
28
28
10
10
20
20
40
40
ENDCHAR
STARTCHAR uni01B5
ENCODING 437
SWIDTH 692 0
DWIDTH 9 0
BBX 6 12 0 0
BITMAP
FC
04
04
08
10
10
20
40
40
80
80
FC
ENDCHAR
STARTCHAR uni01B6
ENCODING 438
SWIDTH 692 0
DWIDTH 9 0
BBX 6 9 0 0
BITMAP
FC
04
08
10
20
20
40
80
FC
ENDCHAR
STARTCHAR uni01B7
ENCODING 439
SWIDTH 692 0
DWIDTH 9 0
BBX 6 12 0 0
BITMAP
FC
04
04
08
10
10
20
40
40
80
80
FC
ENDCHAR
STARTCHAR uni01C5
ENCODING 453
SWIDTH 692 0
DWIDTH 9 0
BBX 6 12 0 0
BITMAP
F0
88
84
84
84
84
84
84
84
84
88
F0
ENDCHAR
STARTCHAR uni01C7
ENCODING 455
SWIDTH 692 0
DWIDTH 9 0
BBX 6 12 0 0
BITMAP
80
80
80
80
80
80
80
80
80
80
80
FC
ENDCHAR
STARTCHAR uni01C8
ENCODING 456
SWIDTH 692 0
DWIDTH 9 0
BBX 6 12 0 0
BITMAP
80
80
80
80
80
80
80
80
80
80
80
FC
ENDCHAR
STARTCHAR uni01C9
ENCODING 457
SWIDTH 692 0
DWIDTH 9 0
BBX 5 12 1 0
BITMAP
E0
20
20
20
20
20
20
20
20
20
20
F8
ENDCHAR
STARTCHAR uni01CA
ENCODING 458
SWIDTH 692 0
DWIDTH 9 0
BBX 6 12 0 0
BITMAP
84
C4
A4
A4
94
94
8C
84
84
84
84
84
ENDCHAR
STARTCHAR uni01CB
ENCODING 459
SWIDTH 692 0
DWIDTH 9 0
BBX 6 12 0 0
BITMAP
84
C4
A4
A4
94
94
8C
84
84
84
84
84
ENDCHAR
STARTCHAR uni01CC
ENCODING 460
SWIDTH 692 0
DWIDTH 9 0
BBX 6 9 0 0
BITMAP
B8
C4
84
84
84
84
84
84
84
ENDCHAR
STARTCHAR uni01CD
ENCODING 461
SWIDTH 692 0
DWIDTH 9 0
BBX 6 12 0 0
BITMAP
30
48
48
48
84
84
84
FC
84
84
84
84
ENDCHAR
STARTCHAR uni01CE
ENCODING 462
SWIDTH 692 0
DWIDTH 9 0
BBX 6 9 0 0
BITMAP
78
84
04
04
7C
84
84
8C
74
ENDCHAR
STARTCHAR uni01CF
ENCODING 463
SWIDTH 692 0
DWIDTH 9 0
BBX 5 12 0 0
BITMAP
F8
20
20
20
20
20
20
20
20
20
20
F8
ENDCHAR
STARTCHAR uni01D0
ENCODING 464
SWIDTH 692 0
DWIDTH 9 0
BBX 5 12 1 0
BITMAP
20
00
00
E0
20
20
20
20
20
20
20
F8
ENDCHAR
STARTCHAR uni01D1
ENCODING 465
SWIDTH 692 0
DWIDTH 9 0
BBX 6 12 0 0
BITMAP
78
84
84
84
84
84
84
84
84
84
84
78
ENDCHAR
STARTCHAR uni01D2
ENCODING 466
SWIDTH 692 0
DWIDTH 9 0
BBX 6 9 0 0
BITMAP
78
84
84
84
84
84
84
84
78
ENDCHAR
STARTCHAR uni01D3
ENCODING 467
SWIDTH 692 0
DWIDTH 9 0
BBX 6 12 0 0
BITMAP
84
84
84
84
84
84
84
84
84
84
84
78
ENDCHAR
STARTCHAR uni01D4
ENCODING 468
SWIDTH 692 0
DWIDTH 9 0
BBX 6 9 0 0
BITMAP
84
84
84
84
84
84
84
8C
74
ENDCHAR
STARTCHAR uni01D5
ENCODING 469
SWIDTH 692 0
DWIDTH 9 0
BBX 6 14 0 0
BITMAP
48
00
84
84
84
84
84
84
84
84
84
84
84
78
ENDCHAR
STARTCHAR uni01D6
ENCODING 470
SWIDTH 692 0
DWIDTH 9 0
BBX 6 11 0 0
BITMAP
48
00
84
84
84
84
84
84
84
8C
74
ENDCHAR
STARTCHAR uni01D7
ENCODING 471
SWIDTH 692 0
DWIDTH 9 0
BBX 6 14 0 0
BITMAP
48
00
84
84
84
84
84
84
84
84
84
84
84
78
ENDCHAR
STARTCHAR uni01D8
ENCODING 472
SWIDTH 692 0
DWIDTH 9 0
BBX 6 11 0 0
BITMAP
48
00
84
84
84
84
84
84
84
8C
74
ENDCHAR
STARTCHAR uni01D9
ENCODING 473
SWIDTH 692 0
DWIDTH 9 0
BBX 6 14 0 0
BITMAP
48
00
84
84
84
84
84
84
84
84
84
84
84
78
ENDCHAR
STARTCHAR uni01DA
ENCODING 474
SWIDTH 692 0
DWIDTH 9 0
BBX 6 11 0 0
BITMAP
48
00
84
84
84
84
84
84
84
8C
74
ENDCHAR
STARTCHAR uni01DB
ENCODING 475
SWIDTH 692 0
DWIDTH 9 0
BBX 6 14 0 0
BITMAP
48
00
84
84
84
84
84
84
84
84
84
84
84
78
ENDCHAR
STARTCHAR uni01DC
ENCODING 476
SWIDTH 692 0
DWIDTH 9 0
BBX 6 11 0 0
BITMAP
48
00
84
84
84
84
84
84
84
8C
74
ENDCHAR
STARTCHAR uni01DE
ENCODING 478
SWIDTH 692 0
DWIDTH 9 0
BBX 6 14 0 0
BITMAP
48
00
30
48
48
48
84
84
84
FC
84
84
84
84
ENDCHAR
STARTCHAR uni01DF
ENCODING 479
SWIDTH 692 0
DWIDTH 9 0
BBX 6 11 0 0
BITMAP
48
00
78
84
04
04
7C
84
84
8C
74
ENDCHAR
STARTCHAR uni01E0
ENCODING 480
SWIDTH 692 0
DWIDTH 9 0
BBX 6 12 0 0
BITMAP
30
48
48
48
84
84
84
FC
84
84
84
84
ENDCHAR
STARTCHAR uni01E1
ENCODING 481
SWIDTH 692 0
DWIDTH 9 0
BBX 6 9 0 0
BITMAP
78
84
04
04
7C
84
84
8C
74
ENDCHAR
STARTCHAR uni01E4
ENCODING 484
SWIDTH 692 0
DWIDTH 9 0
BBX 6 12 0 0
BITMAP
78
84
80
80
80
80
80
8C
84
84
84
78
ENDCHAR
STARTCHAR uni01E5
ENCODING 485
SWIDTH 692 0
DWIDTH 9 0
BBX 7 12 0 -3
BITMAP
7E
84
84
84
78
80
80
7C
82
82
82
7C
ENDCHAR
STARTCHAR Gcaron
ENCODING 486
SWIDTH 692 0
DWIDTH 9 0
BBX 6 12 0 0
BITMAP
78
84
80
80
80
80
80
8C
84
84
84
78
ENDCHAR
STARTCHAR gcaron
ENCODING 487
SWIDTH 692 0
DWIDTH 9 0
BBX 7 12 0 -3
BITMAP
7E
84
84
84
78
80
80
7C
82
82
82
7C
ENDCHAR
STARTCHAR uni01E8
ENCODING 488
SWIDTH 692 0
DWIDTH 9 0
BBX 6 12 0 0
BITMAP
84
84
88
90
90
A0
E0
90
88
88
84
84
ENDCHAR
STARTCHAR uni01E9
ENCODING 489
SWIDTH 692 0
DWIDTH 9 0
BBX 6 12 0 0
BITMAP
80
80
80
84
88
90
A0
E0
90
88
84
84
ENDCHAR
STARTCHAR uni01EA
ENCODING 490
SWIDTH 692 0
DWIDTH 9 0
BBX 6 12 0 0
BITMAP
78
84
84
84
84
84
84
84
84
84
84
78
ENDCHAR
STARTCHAR uni01EB
ENCODING 491
SWIDTH 692 0
DWIDTH 9 0
BBX 6 9 0 0
BITMAP
78
84
84
84
84
84
84
84
78
ENDCHAR
STARTCHAR uni01EC
ENCODING 492
SWIDTH 692 0
DWIDTH 9 0
BBX 6 12 0 0
BITMAP
78
84
84
84
84
84
84
84
84
84
84
78
ENDCHAR
STARTCHAR uni01ED
ENCODING 493
SWIDTH 692 0
DWIDTH 9 0
BBX 6 9 0 0
BITMAP
78
84
84
84
84
84
84
84
78
ENDCHAR
STARTCHAR uni01F0
ENCODING 496
SWIDTH 692 0
DWIDTH 9 0
BBX 5 14 1 -2
BITMAP
08
00
00
38
08
08
08
08
08
08
08
08
88
70
ENDCHAR
STARTCHAR uni01F1
ENCODING 497
SWIDTH 692 0
DWIDTH 9 0
BBX 6 12 0 0
BITMAP
F0
88
84
84
84
84
84
84
84
84
88
F0
ENDCHAR
STARTCHAR uni01F2
ENCODING 498
SWIDTH 692 0
DWIDTH 9 0
BBX 6 12 0 0
BITMAP
F0
88
84
84
84
84
84
84
84
84
88
F0
ENDCHAR
STARTCHAR uni01F3
ENCODING 499
SWIDTH 692 0
DWIDTH 9 0
BBX 6 12 0 0
BITMAP
04
04
04
74
8C
84
84
84
84
84
8C
74
ENDCHAR
STARTCHAR uni01F4
ENCODING 500
SWIDTH 692 0
DWIDTH 9 0
BBX 6 12 0 0
BITMAP
78
84
80
80
80
80
80
8C
84
84
84
78
ENDCHAR
STARTCHAR uni01F5
ENCODING 501
SWIDTH 692 0
DWIDTH 9 0
BBX 7 12 0 -3
BITMAP
7E
84
84
84
78
80
80
7C
82
82
82
7C
ENDCHAR
STARTCHAR Aringacute
ENCODING 506
SWIDTH 692 0
DWIDTH 9 0
BBX 6 12 0 0
BITMAP
30
48
48
48
84
84
84
FC
84
84
84
84
ENDCHAR
STARTCHAR aringacute
ENCODING 507
SWIDTH 692 0
DWIDTH 9 0
BBX 6 9 0 0
BITMAP
78
84
04
04
7C
84
84
8C
74
ENDCHAR
STARTCHAR Oslashacute
ENCODING 510
SWIDTH 692 0
DWIDTH 9 0
BBX 6 12 0 0
BITMAP
78
84
84
84
84
84
84
84
84
84
84
78
ENDCHAR
STARTCHAR oslashacute
ENCODING 511
SWIDTH 692 0
DWIDTH 9 0
BBX 6 9 0 0
BITMAP
78
84
84
84
84
84
84
84
78
ENDCHAR
STARTCHAR uni0200
ENCODING 512
SWIDTH 692 0
DWIDTH 9 0
BBX 6 12 0 0
BITMAP
30
48
48
48
84
84
84
FC
84
84
84
84
ENDCHAR
STARTCHAR uni0201
ENCODING 513
SWIDTH 692 0
DWIDTH 9 0
BBX 6 9 0 0
BITMAP
78
84
04
04
7C
84
84
8C
74
ENDCHAR
STARTCHAR uni0202
ENCODING 514
SWIDTH 692 0
DWIDTH 9 0
BBX 6 12 0 0
BITMAP
30
48
48
48
84
84
84
FC
84
84
84
84
ENDCHAR
STARTCHAR uni0203
ENCODING 515
SWIDTH 692 0
DWIDTH 9 0
BBX 6 9 0 0
BITMAP
78
84
04
04
7C
84
84
8C
74
ENDCHAR
STARTCHAR uni0204
ENCODING 516
SWIDTH 692 0
DWIDTH 9 0
BBX 5 12 0 0
BITMAP
F8
80
80
80
80
F0
80
80
80
80
80
F8
ENDCHAR
STARTCHAR uni0205
ENCODING 517
SWIDTH 692 0
DWIDTH 9 0
BBX 6 9 0 0
BITMAP
78
84
84
84
FC
80
80
84
78
ENDCHAR
STARTCHAR uni0206
ENCODING 518
SWIDTH 692 0
DWIDTH 9 0
BBX 5 12 0 0
BITMAP
F8
80
80
80
80
F0
80
80
80
80
80
F8
ENDCHAR
STARTCHAR uni0207
ENCODING 519
SWIDTH 692 0
DWIDTH 9 0
BBX 6 9 0 0
BITMAP
78
84
84
84
FC
80
80
84
78
ENDCHAR
STARTCHAR uni0208
ENCODING 520
SWIDTH 692 0
DWIDTH 9 0
BBX 5 12 0 0
BITMAP
F8
20
20
20
20
20
20
20
20
20
20
F8
ENDCHAR
STARTCHAR uni0209
ENCODING 521
SWIDTH 692 0
DWIDTH 9 0
BBX 5 12 1 0
BITMAP
20
00
00
E0
20
20
20
20
20
20
20
F8
ENDCHAR
STARTCHAR uni020A
ENCODING 522
SWIDTH 692 0
DWIDTH 9 0
BBX 5 12 0 0
BITMAP
F8
20
20
20
20
20
20
20
20
20
20
F8
ENDCHAR
STARTCHAR uni020B
ENCODING 523
SWIDTH 692 0
DWIDTH 9 0
BBX 5 12 1 0
BITMAP
20
00
00
E0
20
20
20
20
20
20
20
F8
ENDCHAR
STARTCHAR uni020C
ENCODING 524
SWIDTH 692 0
DWIDTH 9 0
BBX 6 12 0 0
BITMAP
78
84
84
84
84
84
84
84
84
84
84
78
ENDCHAR
STARTCHAR uni020D
ENCODING 525
SWIDTH 692 0
DWIDTH 9 0
BBX 6 9 0 0
BITMAP
78
84
84
84
84
84
84
84
78
ENDCHAR
STARTCHAR uni020E
ENCODING 526
SWIDTH 692 0
DWIDTH 9 0
BBX 6 12 0 0
BITMAP
78
84
84
84
84
84
84
84
84
84
84
78
ENDCHAR
STARTCHAR uni020F
ENCODING 527
SWIDTH 692 0
DWIDTH 9 0
BBX 6 9 0 0
BITMAP
78
84
84
84
84
84
84
84
78
ENDCHAR
STARTCHAR uni0210
ENCODING 528
SWIDTH 692 0
DWIDTH 9 0
BBX 6 12 0 0
BITMAP
F8
84
84
84
84
F8
88
88
88
84
84
84
ENDCHAR
STARTCHAR uni0211
ENCODING 529
SWIDTH 692 0
DWIDTH 9 0
BBX 6 9 0 0
BITMAP
B8
C4
80
80
80
80
80
80
80
ENDCHAR
STARTCHAR uni0212
ENCODING 530
SWIDTH 692 0
DWIDTH 9 0
BBX 6 12 0 0
BITMAP
F8
84
84
84
84
F8
88
88
88
84
84
84
ENDCHAR
STARTCHAR uni0213
ENCODING 531
SWIDTH 692 0
DWIDTH 9 0
BBX 6 9 0 0
BITMAP
B8
C4
80
80
80
80
80
80
80
ENDCHAR
STARTCHAR uni0214
ENCODING 532
SWIDTH 692 0
DWIDTH 9 0
BBX 6 12 0 0
BITMAP
84
84
84
84
84
84
84
84
84
84
84
78
ENDCHAR
STARTCHAR uni0215
ENCODING 533
SWIDTH 692 0
DWIDTH 9 0
BBX 6 9 0 0
BITMAP
84
84
84
84
84
84
84
8C
74
ENDCHAR
STARTCHAR uni0216
ENCODING 534
SWIDTH 692 0
DWIDTH 9 0
BBX 6 12 0 0
BITMAP
84
84
84
84
84
84
84
84
84
84
84
78
ENDCHAR
STARTCHAR uni0217
ENCODING 535
SWIDTH 692 0
DWIDTH 9 0
BBX 6 9 0 0
BITMAP
84
84
84
84
84
84
84
8C
74
ENDCHAR
STARTCHAR uni0218
ENCODING 536
SWIDTH 692 0
DWIDTH 9 0
BBX 6 15 0 -3
BITMAP
78
84
80
80
40
30
08
04
04
04
84
78
10
08
30
ENDCHAR
STARTCHAR uni0219
ENCODING 537
SWIDTH 692 0
DWIDTH 9 0
BBX 6 12 0 -3
BITMAP
78
84
80
80
78
04
04
84
78
10
08
30
ENDCHAR
STARTCHAR uni021A
ENCODING 538
SWIDTH 692 0
DWIDTH 9 0
BBX 7 15 0 -3
BITMAP
FE
10
10
10
10
10
10
10
10
10
10
10
10
10
20
ENDCHAR
STARTCHAR uni021B
ENCODING 539
SWIDTH 692 0
DWIDTH 9 0
BBX 6 15 0 -3
BITMAP
20
20
20
FC
20
20
20
20
20
20
20
1C
08
08
10
ENDCHAR
STARTCHAR uni0251
ENCODING 593
SWIDTH 692 0
DWIDTH 9 0
BBX 6 12 0 0
BITMAP
30
48
48
48
84
84
84
FC
84
84
84
84
ENDCHAR
STARTCHAR uni0253
ENCODING 595
SWIDTH 692 0
DWIDTH 9 0
BBX 6 12 0 0
BITMAP
80
80
80
B8
C4
84
84
84
84
84
C4
B8
ENDCHAR
STARTCHAR uni0254
ENCODING 596
SWIDTH 692 0
DWIDTH 9 0
BBX 6 9 0 0
BITMAP
78
84
84
84
84
84
84
84
78
ENDCHAR
STARTCHAR uni0255
ENCODING 597
SWIDTH 692 0
DWIDTH 9 0
BBX 6 9 0 0
BITMAP
78
84
80
80
80
80
80
84
78
ENDCHAR
STARTCHAR uni0256
ENCODING 598
SWIDTH 692 0
DWIDTH 9 0
BBX 6 12 0 0
BITMAP
04
04
04
74
8C
84
84
84
84
84
8C
74
ENDCHAR
STARTCHAR uni0257
ENCODING 599
SWIDTH 692 0
DWIDTH 9 0
BBX 6 12 0 0
BITMAP
04
04
04
74
8C
84
84
84
84
84
8C
74
ENDCHAR
STARTCHAR uni0259
ENCODING 601
SWIDTH 692 0
DWIDTH 9 0
BBX 6 12 0 0
BITMAP
78
84
84
84
9C
A4
A4
A4
9C
80
80
78
ENDCHAR
STARTCHAR uni025B
ENCODING 603
SWIDTH 692 0
DWIDTH 9 0
BBX 6 9 0 0
BITMAP
78
84
84
84
FC
80
80
84
78
ENDCHAR
STARTCHAR uni025F
ENCODING 607
SWIDTH 692 0
DWIDTH 9 0
BBX 5 14 1 -2
BITMAP
08
00
00
38
08
08
08
08
08
08
08
08
88
70
ENDCHAR
STARTCHAR uni0260
ENCODING 608
SWIDTH 692 0
DWIDTH 9 0
BBX 7 12 0 -3
BITMAP
7E
84
84
84
78
80
80
7C
82
82
82
7C
ENDCHAR
STARTCHAR uni0261
ENCODING 609
SWIDTH 692 0
DWIDTH 9 0
BBX 7 12 0 -3
BITMAP
7E
84
84
84
78
80
80
7C
82
82
82
7C
ENDCHAR
STARTCHAR uni0262
ENCODING 610
SWIDTH 692 0
DWIDTH 9 0
BBX 6 12 0 0
BITMAP
78
84
80
80
80
80
80
8C
84
84
84
78
ENDCHAR
STARTCHAR uni0263
ENCODING 611
SWIDTH 692 0
DWIDTH 9 0
BBX 6 12 0 0
BITMAP
78
84
84
84
84
84
84
84
84
94
88
74
ENDCHAR
STARTCHAR uni0266
ENCODING 614
SWIDTH 692 0
DWIDTH 9 0
BBX 6 12 0 0
BITMAP
80
80
80
B8
C4
84
84
84
84
84
84
84
ENDCHAR
STARTCHAR uni0268
ENCODING 616
SWIDTH 692 0
DWIDTH 9 0
BBX 5 12 1 0
BITMAP
20
00
00
E0
20
20
20
20
20
20
20
F8
ENDCHAR
STARTCHAR uni0269
ENCODING 617
SWIDTH 692 0
DWIDTH 9 0
BBX 5 12 0 0
BITMAP
F8
20
20
20
20
20
20
20
20
20
20
F8
ENDCHAR
STARTCHAR uni026A
ENCODING 618
SWIDTH 692 0
DWIDTH 9 0
BBX 5 12 0 0
BITMAP
F8
20
20
20
20
20
20
20
20
20
20
F8
ENDCHAR
STARTCHAR uni026B
ENCODING 619
SWIDTH 692 0
DWIDTH 9 0
BBX 5 12 1 0
BITMAP
E0
20
20
20
20
20
20
20
20
20
20
F8
ENDCHAR
STARTCHAR uni026C
ENCODING 620
SWIDTH 692 0
DWIDTH 9 0
BBX 5 12 1 0
BITMAP
E0
20
20
20
20
20
20
20
20
20
20
F8
ENDCHAR
STARTCHAR uni026D
ENCODING 621
SWIDTH 692 0
DWIDTH 9 0
BBX 5 12 1 0
BITMAP
E0
20
20
20
20
20
20
20
20
20
20
F8
ENDCHAR
STARTCHAR uni0271
ENCODING 625
SWIDTH 692 0
DWIDTH 9 0
BBX 7 9 0 0
BITMAP
EC
92
92
92
92
92
92
92
92
ENDCHAR
STARTCHAR uni0272
ENCODING 626
SWIDTH 692 0
DWIDTH 9 0
BBX 6 9 0 0
BITMAP
B8
C4
84
84
84
84
84
84
84
ENDCHAR
STARTCHAR uni0273
ENCODING 627
SWIDTH 692 0
DWIDTH 9 0
BBX 6 9 0 0
BITMAP
B8
C4
84
84
84
84
84
84
84
ENDCHAR
STARTCHAR uni0277
ENCODING 631
SWIDTH 692 0
DWIDTH 9 0
BBX 6 12 0 0
BITMAP
84
84
84
84
84
84
84
84
84
84
84
78
ENDCHAR
STARTCHAR uni0279
ENCODING 633
SWIDTH 692 0
DWIDTH 9 0
BBX 6 9 0 0
BITMAP
B8
C4
80
80
80
80
80
80
80
ENDCHAR
STARTCHAR uni027C
ENCODING 636
SWIDTH 692 0
DWIDTH 9 0
BBX 6 9 0 0
BITMAP
B8
C4
80
80
80
80
80
80
80
ENDCHAR
STARTCHAR uni027D
ENCODING 637
SWIDTH 692 0
DWIDTH 9 0
BBX 6 9 0 0
BITMAP
B8
C4
80
80
80
80
80
80
80
ENDCHAR
STARTCHAR uni027E
ENCODING 638
SWIDTH 692 0
DWIDTH 9 0
BBX 6 9 0 0
BITMAP
B8
C4
80
80
80
80
80
80
80
ENDCHAR
STARTCHAR uni0280
ENCODING 640
SWIDTH 692 0
DWIDTH 9 0
BBX 6 12 0 0
BITMAP
F8
84
84
84
84
F8
88
88
88
84
84
84
ENDCHAR
STARTCHAR uni0282
ENCODING 642
SWIDTH 692 0
DWIDTH 9 0
BBX 6 9 0 0
BITMAP
78
84
80
80
78
04
04
84
78
ENDCHAR
STARTCHAR uni0283
ENCODING 643
SWIDTH 692 0
DWIDTH 9 0
BBX 6 12 0 0
BITMAP
78
84
80
80
40
30
08
04
04
04
84
78
ENDCHAR
STARTCHAR uni0284
ENCODING 644
SWIDTH 692 0
DWIDTH 9 0
BBX 5 14 1 -2
BITMAP
08
00
00
38
08
08
08
08
08
08
08
08
88
70
ENDCHAR
STARTCHAR uni0288
ENCODING 648
SWIDTH 692 0
DWIDTH 9 0
BBX 6 12 0 0
BITMAP
20
20
20
FC
20
20
20
20
20
20
20
1C
ENDCHAR
STARTCHAR uni028A
ENCODING 650
SWIDTH 692 0
DWIDTH 9 0
BBX 6 12 0 0
BITMAP
84
84
84
84
84
84
84
84
84
84
84
78
ENDCHAR
STARTCHAR uni028B
ENCODING 651
SWIDTH 692 0
DWIDTH 9 0
BBX 7 9 0 0
BITMAP
82
82
82
44
44
28
28
28
10
ENDCHAR
STARTCHAR uni028C
ENCODING 652
SWIDTH 692 0
DWIDTH 9 0
BBX 7 12 0 0
BITMAP
82
82
82
82
44
44
44
28
28
28
10
10
ENDCHAR
STARTCHAR uni0290
ENCODING 656
SWIDTH 692 0
DWIDTH 9 0
BBX 6 9 0 0
BITMAP
FC
04
08
10
20
20
40
80
FC
ENDCHAR
STARTCHAR uni0291
ENCODING 657
SWIDTH 692 0
DWIDTH 9 0
BBX 6 9 0 0
BITMAP
FC
04
08
10
20
20
40
80
FC
ENDCHAR
STARTCHAR uni0292
ENCODING 658
SWIDTH 692 0
DWIDTH 9 0
BBX 6 9 0 0
BITMAP
FC
04
08
10
20
20
40
80
FC
ENDCHAR
STARTCHAR uni0294
ENCODING 660
SWIDTH 692 0
DWIDTH 9 0
BBX 6 12 0 0
BITMAP
78
84
04
04
04
08
10
20
00
00
20
20
ENDCHAR
STARTCHAR uni029D
ENCODING 669
SWIDTH 692 0
DWIDTH 9 0
BBX 5 14 1 -2
BITMAP
08
00
00
38
08
08
08
08
08
08
08
08
88
70
ENDCHAR
STARTCHAR uni029F
ENCODING 671
SWIDTH 692 0
DWIDTH 9 0
BBX 6 12 0 0
BITMAP
80
80
80
80
80
80
80
80
80
80
80
FC
ENDCHAR
STARTCHAR uni02A0
ENCODING 672
SWIDTH 692 0
DWIDTH 9 0
BBX 6 12 0 -3
BITMAP
74
8C
84
84
84
84
84
8C
74
04
04
04
ENDCHAR
STARTCHAR uni02B2
ENCODING 690
SWIDTH 692 0
DWIDTH 9 0
BBX 2 9 3 0
BITMAP
C0
C0
00
00
00
00
C0
40
80
ENDCHAR
STARTCHAR uni02BB
ENCODING 699
SWIDTH 692 0
DWIDTH 9 0
BBX 3 3 1 10
BITMAP
80
40
20
ENDCHAR
STARTCHAR circumflex
ENCODING 710
SWIDTH 692 0
DWIDTH 9 0
BBX 5 5 1 7
BITMAP
20
50
50
88
88
ENDCHAR
STARTCHAR caron
ENCODING 711
SWIDTH 692 0
DWIDTH 9 0
BBX 3 2 2 10
BITMAP
A0
40
ENDCHAR
STARTCHAR macron
ENCODING 713
SWIDTH 692 0
DWIDTH 9 0
BBX 5 1 1 5
BITMAP
F8
ENDCHAR
STARTCHAR uni02CB
ENCODING 715
SWIDTH 692 0
DWIDTH 9 0
BBX 3 3 1 10
BITMAP
80
40
20
ENDCHAR
STARTCHAR breve
ENCODING 728
SWIDTH 692 0
DWIDTH 9 0
BBX 7 3 0 4
BITMAP
60
92
0C
ENDCHAR
STARTCHAR dotaccent
ENCODING 729
SWIDTH 692 0
DWIDTH 9 0
BBX 2 3 2 0
BITMAP
C0
C0
C0
ENDCHAR
STARTCHAR ring
ENCODING 730
SWIDTH 692 0
DWIDTH 9 0
BBX 4 4 1 8
BITMAP
60
90
90
60
ENDCHAR
STARTCHAR ogonek
ENCODING 731
SWIDTH 692 0
DWIDTH 9 0
BBX 2 4 2 -1
BITMAP
C0
40
40
80
ENDCHAR
STARTCHAR tilde
ENCODING 732
SWIDTH 692 0
DWIDTH 9 0
BBX 7 3 0 4
BITMAP
60
92
0C
ENDCHAR
STARTCHAR hungarumlaut
ENCODING 733
SWIDTH 692 0
DWIDTH 9 0
BBX 7 4 0 8
BITMAP
EE
22
22
44
ENDCHAR
STARTCHAR uni0374
ENCODING 884
SWIDTH 692 0
DWIDTH 9 0
BBX 2 4 2 8
BITMAP
C0
40
40
80
ENDCHAR
STARTCHAR uni0375
ENCODING 885
SWIDTH 692 0
DWIDTH 9 0
BBX 2 4 2 -1
BITMAP
C0
40
40
80
ENDCHAR
STARTCHAR uni037A
ENCODING 890
SWIDTH 692 0
DWIDTH 9 0
BBX 2 4 2 -1
BITMAP
C0
40
40
80
ENDCHAR
STARTCHAR uni037E
ENCODING 894
SWIDTH 692 0
DWIDTH 9 0
BBX 2 9 3 0
BITMAP
C0
C0
00
00
00
00
C0
40
80
ENDCHAR
STARTCHAR tonos
ENCODING 900
SWIDTH 692 0
DWIDTH 9 0
BBX 2 2 0 13
BITMAP
40
80
ENDCHAR
STARTCHAR dieresistonos
ENCODING 901
SWIDTH 692 0
DWIDTH 9 0
BBX 5 2 1 13
BITMAP
20
A8
ENDCHAR
STARTCHAR Alphatonos
ENCODING 902
SWIDTH 692 0
DWIDTH 9 0
BBX 6 15 0 0
BITMAP
40
80
00
30
48
48
48
84
84
84
FC
84
84
84
84
ENDCHAR
STARTCHAR anoteleia
ENCODING 903
SWIDTH 692 0
DWIDTH 9 0
BBX 2 2 3 7
BITMAP
C0
C0
ENDCHAR
STARTCHAR Epsilontonos
ENCODING 904
SWIDTH 692 0
DWIDTH 9 0
BBX 5 15 1 0
BITMAP
40
80
00
F8
80
80
80
80
F0
80
80
80
80
80
F8
ENDCHAR
STARTCHAR Etatonos
ENCODING 905
SWIDTH 692 0
DWIDTH 9 0
BBX 6 15 0 0
BITMAP
40
80
00
84
84
84
84
84
FC
84
84
84
84
84
84
ENDCHAR
STARTCHAR Iotatonos
ENCODING 906
SWIDTH 692 0
DWIDTH 9 0
BBX 5 15 1 0
BITMAP
40
80
00
F8
20
20
20
20
20
20
20
20
20
20
F8
ENDCHAR
STARTCHAR Omicrontonos
ENCODING 908
SWIDTH 692 0
DWIDTH 9 0
BBX 6 15 0 0
BITMAP
40
80
00
78
84
84
84
84
84
84
84
84
84
84
78
ENDCHAR
STARTCHAR Upsilontonos
ENCODING 910
SWIDTH 692 0
DWIDTH 9 0
BBX 7 15 0 0
BITMAP
40
80
00
82
82
44
44
28
28
10
10
10
10
10
10
ENDCHAR
STARTCHAR Omegatonos
ENCODING 911
SWIDTH 692 0
DWIDTH 9 0
BBX 6 15 0 0
BITMAP
40
80
00
78
84
84
84
84
84
84
84
84
48
48
CC
ENDCHAR
STARTCHAR iotadieresistonos
ENCODING 912
SWIDTH 692 0
DWIDTH 9 0
BBX 5 13 1 0
BITMAP
20
A8
00
00
60
20
20
20
20
20
20
20
10
ENDCHAR
STARTCHAR Alpha
ENCODING 913
SWIDTH 692 0
DWIDTH 9 0
BBX 6 12 0 0
BITMAP
30
48
48
48
84
84
84
FC
84
84
84
84
ENDCHAR
STARTCHAR Beta
ENCODING 914
SWIDTH 692 0
DWIDTH 9 0
BBX 6 12 0 0
BITMAP
F8
84
84
84
84
F8
84
84
84
84
84
F8
ENDCHAR
STARTCHAR Gamma
ENCODING 915
SWIDTH 692 0
DWIDTH 9 0
BBX 5 12 0 0
BITMAP
F8
80
80
80
80
80
80
80
80
80
80
80
ENDCHAR
STARTCHAR Delta
ENCODING 916
SWIDTH 692 0
DWIDTH 9 0
BBX 6 12 0 0
BITMAP
30
30
48
48
48
48
48
84
84
84
84
FC
ENDCHAR
STARTCHAR Epsilon
ENCODING 917
SWIDTH 692 0
DWIDTH 9 0
BBX 5 12 1 0
BITMAP
F8
80
80
80
80
F0
80
80
80
80
80
F8
ENDCHAR
STARTCHAR Zeta
ENCODING 918
SWIDTH 692 0
DWIDTH 9 0
BBX 6 12 0 0
BITMAP
FC
04
04
08
10
10
20
40
40
80
80
FC
ENDCHAR
STARTCHAR Eta
ENCODING 919
SWIDTH 692 0
DWIDTH 9 0
BBX 6 12 0 0
BITMAP
84
84
84
84
84
FC
84
84
84
84
84
84
ENDCHAR
STARTCHAR Theta
ENCODING 920
SWIDTH 692 0
DWIDTH 9 0
BBX 6 12 0 0
BITMAP
78
84
84
84
84
FC
84
84
84
84
84
78
ENDCHAR
STARTCHAR Iota
ENCODING 921
SWIDTH 692 0
DWIDTH 9 0
BBX 5 12 0 0
BITMAP
F8
20
20
20
20
20
20
20
20
20
20
F8
ENDCHAR
STARTCHAR Kappa
ENCODING 922
SWIDTH 692 0
DWIDTH 9 0
BBX 6 12 0 0
BITMAP
84
84
88
90
90
A0
E0
90
88
88
84
84
ENDCHAR
STARTCHAR Lambda
ENCODING 923
SWIDTH 692 0
DWIDTH 9 0
BBX 6 12 0 0
BITMAP
30
30
48
48
48
48
48
84
84
84
84
84
ENDCHAR
STARTCHAR Mu
ENCODING 924
SWIDTH 692 0
DWIDTH 9 0
BBX 7 12 0 0
BITMAP
82
C6
AA
AA
92
82
82
82
82
82
82
82
ENDCHAR
STARTCHAR Nu
ENCODING 925
SWIDTH 692 0
DWIDTH 9 0
BBX 6 12 0 0
BITMAP
84
C4
A4
A4
94
94
8C
84
84
84
84
84
ENDCHAR
STARTCHAR Xi
ENCODING 926
SWIDTH 692 0
DWIDTH 9 0
BBX 6 12 0 0
BITMAP
FC
00
00
00
00
78
00
00
00
00
00
FC
ENDCHAR
STARTCHAR Omicron
ENCODING 927
SWIDTH 692 0
DWIDTH 9 0
BBX 6 12 0 0
BITMAP
78
84
84
84
84
84
84
84
84
84
84
78
ENDCHAR
STARTCHAR Pi
ENCODING 928
SWIDTH 692 0
DWIDTH 9 0
BBX 6 12 0 0
BITMAP
FC
84
84
84
84
84
84
84
84
84
84
84
ENDCHAR
STARTCHAR Rho
ENCODING 929
SWIDTH 692 0
DWIDTH 9 0
BBX 6 12 0 0
BITMAP
F8
84
84
84
84
F8
80
80
80
80
80
80
ENDCHAR
STARTCHAR Sigma
ENCODING 931
SWIDTH 692 0
DWIDTH 9 0
BBX 6 12 0 0
BITMAP
FC
80
40
20
20
10
10
20
20
40
80
FC
ENDCHAR
STARTCHAR Tau
ENCODING 932
SWIDTH 692 0
DWIDTH 9 0
BBX 7 12 0 0
BITMAP
FE
10
10
10
10
10
10
10
10
10
10
10
ENDCHAR
STARTCHAR Upsilon
ENCODING 933
SWIDTH 692 0
DWIDTH 9 0
BBX 7 12 0 0
BITMAP
82
82
44
44
28
28
10
10
10
10
10
10
ENDCHAR
STARTCHAR Phi
ENCODING 934
SWIDTH 692 0
DWIDTH 9 0
BBX 7 13 0 0
BITMAP
10
10
7C
92
92
92
92
92
92
92
7C
10
10
ENDCHAR
STARTCHAR Chi
ENCODING 935
SWIDTH 692 0
DWIDTH 9 0
BBX 7 12 0 0
BITMAP
82
82
44
44
28
10
10
28
28
44
82
82
ENDCHAR
STARTCHAR Psi
ENCODING 936
SWIDTH 692 0
DWIDTH 9 0
BBX 7 12 0 0
BITMAP
92
92
92
92
92
7C
10
10
10
10
10
10
ENDCHAR
STARTCHAR Omega
ENCODING 937
SWIDTH 692 0
DWIDTH 9 0
BBX 6 12 0 0
BITMAP
78
84
84
84
84
84
84
84
84
48
48
CC
ENDCHAR
STARTCHAR Iotadieresis
ENCODING 938
SWIDTH 692 0
DWIDTH 9 0
BBX 5 14 1 0
BITMAP
50
00
F8
20
20
20
20
20
20
20
20
20
20
F8
ENDCHAR
STARTCHAR Upsilondieresis
ENCODING 939
SWIDTH 692 0
DWIDTH 9 0
BBX 7 14 0 0
BITMAP
28
00
82
82
44
44
28
28
10
10
10
10
10
10
ENDCHAR
STARTCHAR alphatonos
ENCODING 940
SWIDTH 692 0
DWIDTH 9 0
BBX 7 13 0 0
BITMAP
10
20
00
00
72
8A
84
84
84
84
84
8A
72
ENDCHAR
STARTCHAR epsilontonos
ENCODING 941
SWIDTH 692 0
DWIDTH 9 0
BBX 6 13 0 0
BITMAP
10
20
00
00
78
84
80
80
70
80
80
84
78
ENDCHAR
STARTCHAR etatonos
ENCODING 942
SWIDTH 692 0
DWIDTH 9 0
BBX 6 15 0 -2
BITMAP
10
20
00
00
B8
C4
84
84
84
84
84
84
84
04
04
ENDCHAR
STARTCHAR iotatonos
ENCODING 943
SWIDTH 692 0
DWIDTH 9 0
BBX 3 13 2 0
BITMAP
40
80
00
00
C0
40
40
40
40
40
40
40
20
ENDCHAR
STARTCHAR upsilondieresistonos
ENCODING 944
SWIDTH 692 0
DWIDTH 9 0
BBX 6 13 0 0
BITMAP
20
A8
00
00
88
84
84
84
84
84
84
84
78
ENDCHAR
STARTCHAR alpha
ENCODING 945
SWIDTH 692 0
DWIDTH 9 0
BBX 7 9 0 0
BITMAP
72
8A
84
84
84
84
84
8A
72
ENDCHAR
STARTCHAR beta
ENCODING 946
SWIDTH 692 0
DWIDTH 9 0
BBX 6 14 0 -2
BITMAP
78
84
84
84
84
B8
84
84
84
84
C4
B8
80
80
ENDCHAR
STARTCHAR gamma
ENCODING 947
SWIDTH 692 0
DWIDTH 9 0
BBX 7 12 0 -3
BITMAP
82
82
44
44
28
28
10
10
20
20
40
40
ENDCHAR
STARTCHAR delta
ENCODING 948
SWIDTH 692 0
DWIDTH 9 0
BBX 6 12 0 0
BITMAP
FC
40
20
30
48
84
84
84
84
84
84
78
ENDCHAR
STARTCHAR epsilon
ENCODING 949
SWIDTH 692 0
DWIDTH 9 0
BBX 6 9 0 0
BITMAP
78
84
80
80
70
80
80
84
78
ENDCHAR
STARTCHAR zeta
ENCODING 950
SWIDTH 692 0
DWIDTH 9 0
BBX 7 15 0 -3
BITMAP
FC
04
08
10
20
40
40
80
80
80
40
3C
02
02
04
ENDCHAR
STARTCHAR eta
ENCODING 951
SWIDTH 692 0
DWIDTH 9 0
BBX 6 11 0 -2
BITMAP
B8
C4
84
84
84
84
84
84
84
04
04
ENDCHAR
STARTCHAR theta
ENCODING 952
SWIDTH 692 0
DWIDTH 9 0
BBX 6 12 0 0
BITMAP
78
84
84
84
84
FC
84
84
84
84
84
78
ENDCHAR
STARTCHAR iota
ENCODING 953
SWIDTH 692 0
DWIDTH 9 0
BBX 3 9 2 0
BITMAP
C0
40
40
40
40
40
40
40
20
ENDCHAR
STARTCHAR kappa
ENCODING 954
SWIDTH 692 0
DWIDTH 9 0
BBX 6 9 0 0
BITMAP
84
88
90
A0
E0
90
88
84
84
ENDCHAR
STARTCHAR lambda
ENCODING 955
SWIDTH 692 0
DWIDTH 9 0
BBX 7 12 0 0
BITMAP
80
40
40
20
20
10
28
28
44
44
82
82
ENDCHAR
STARTCHAR mu
ENCODING 956
SWIDTH 692 0
DWIDTH 9 0
BBX 6 11 0 -2
BITMAP
84
84
84
84
84
84
84
CC
B4
80
80
ENDCHAR
STARTCHAR nu
ENCODING 957
SWIDTH 692 0
DWIDTH 9 0
BBX 7 9 0 0
BITMAP
84
82
82
42
44
24
28
28
10
ENDCHAR
STARTCHAR xi
ENCODING 958
SWIDTH 692 0
DWIDTH 9 0
BBX 7 15 0 -3
BITMAP
FC
20
20
1C
20
40
40
80
80
80
40
3C
02
02
04
ENDCHAR
STARTCHAR omicron
ENCODING 959
SWIDTH 692 0
DWIDTH 9 0
BBX 6 9 0 0
BITMAP
78
84
84
84
84
84
84
84
78
ENDCHAR
STARTCHAR pi
ENCODING 960
SWIDTH 692 0
DWIDTH 9 0
BBX 6 9 0 0
BITMAP
FC
48
48
48
48
48
48
48
44
ENDCHAR
STARTCHAR rho
ENCODING 961
SWIDTH 692 0
DWIDTH 9 0
BBX 6 12 0 -3
BITMAP
78
84
84
84
84
84
84
C4
B8
80
80
80
ENDCHAR
STARTCHAR sigma1
ENCODING 962
SWIDTH 692 0
DWIDTH 9 0
BBX 6 12 0 -3
BITMAP
78
84
80
80
80
80
80
80
78
04
04
08
ENDCHAR
STARTCHAR sigma
ENCODING 963
SWIDTH 692 0
DWIDTH 9 0
BBX 7 9 0 0
BITMAP
7E
88
84
84
84
84
84
84
78
ENDCHAR
STARTCHAR tau
ENCODING 964
SWIDTH 692 0
DWIDTH 9 0
BBX 5 9 1 0
BITMAP
F8
20
20
20
20
20
20
20
10
ENDCHAR
STARTCHAR upsilon
ENCODING 965
SWIDTH 692 0
DWIDTH 9 0
BBX 6 9 0 0
BITMAP
88
84
84
84
84
84
84
84
78
ENDCHAR
STARTCHAR phi
ENCODING 966
SWIDTH 692 0
DWIDTH 9 0
BBX 7 11 0 -2
BITMAP
5C
92
92
92
92
92
92
92
7C
10
10
ENDCHAR
STARTCHAR chi
ENCODING 967
SWIDTH 692 0
DWIDTH 9 0
BBX 7 11 0 -2
BITMAP
82
44
44
28
28
10
28
28
44
44
82
ENDCHAR
STARTCHAR psi
ENCODING 968
SWIDTH 692 0
DWIDTH 9 0
BBX 7 11 0 -2
BITMAP
10
92
92
92
92
92
92
92
7C
10
10
ENDCHAR
STARTCHAR omega
ENCODING 969
SWIDTH 692 0
DWIDTH 9 0
BBX 7 8 0 0
BITMAP
44
82
92
92
92
92
92
6C
ENDCHAR
STARTCHAR iotadieresis
ENCODING 970
SWIDTH 692 0
DWIDTH 9 0
BBX 3 12 2 0
BITMAP
A0
00
00
C0
40
40
40
40
40
40
40
20
ENDCHAR
STARTCHAR upsilondieresis
ENCODING 971
SWIDTH 692 0
DWIDTH 9 0
BBX 6 12 0 0
BITMAP
50
00
00
88
84
84
84
84
84
84
84
78
ENDCHAR
STARTCHAR omicrontonos
ENCODING 972
SWIDTH 692 0
DWIDTH 9 0
BBX 6 13 0 0
BITMAP
10
20
00
00
78
84
84
84
84
84
84
84
78
ENDCHAR
STARTCHAR upsilontonos
ENCODING 973
SWIDTH 692 0
DWIDTH 9 0
BBX 6 13 0 0
BITMAP
10
20
00
00
88
84
84
84
84
84
84
84
78
ENDCHAR
STARTCHAR omegatonos
ENCODING 974
SWIDTH 692 0
DWIDTH 9 0
BBX 7 13 0 0
BITMAP
08
10
00
00
44
82
92
92
92
92
92
92
6C
ENDCHAR
STARTCHAR uni03D0
ENCODING 976
SWIDTH 692 0
DWIDTH 9 0
BBX 0 0 0 0
BITMAP
ENDCHAR
STARTCHAR theta1
ENCODING 977
SWIDTH 692 0
DWIDTH 9 0
BBX 0 0 0 0
BITMAP
ENDCHAR
STARTCHAR Upsilon1
ENCODING 978
SWIDTH 692 0
DWIDTH 9 0
BBX 0 0 0 0
BITMAP
ENDCHAR
STARTCHAR phi1
ENCODING 981
SWIDTH 692 0
DWIDTH 9 0
BBX 0 0 0 0
BITMAP
ENDCHAR
STARTCHAR omega1
ENCODING 982
SWIDTH 692 0
DWIDTH 9 0
BBX 0 0 0 0
BITMAP
ENDCHAR
STARTCHAR uni03F0
ENCODING 1008
SWIDTH 692 0
DWIDTH 9 0
BBX 0 0 0 0
BITMAP
ENDCHAR
STARTCHAR uni03F1
ENCODING 1009
SWIDTH 692 0
DWIDTH 9 0
BBX 0 0 0 0
BITMAP
ENDCHAR
STARTCHAR char1024
ENCODING 1024
SWIDTH 692 0
DWIDTH 9 0
BBX 6 15 0 0
BITMAP
20
10
00
FC
80
80
80
80
F8
80
80
80
80
80
FC
ENDCHAR
STARTCHAR char1024
ENCODING 1025
SWIDTH 692 0
DWIDTH 9 0
BBX 6 14 0 0
BITMAP
48
00
FC
80
80
80
80
F8
80
80
80
80
80
FC
ENDCHAR
STARTCHAR afii10051
ENCODING 1026
SWIDTH 692 0
DWIDTH 9 0
BBX 7 12 0 0
BITMAP
F8
20
20
2C
32
22
22
22
22
22
22
24
ENDCHAR
STARTCHAR char1027
ENCODING 1027
SWIDTH 692 0
DWIDTH 9 0
BBX 6 15 0 0
BITMAP
10
20
00
FC
80
80
80
80
80
80
80
80
80
80
80
ENDCHAR
STARTCHAR char1069
ENCODING 1028
SWIDTH 692 0
DWIDTH 9 0
BBX 7 12 0 0
BITMAP
38
44
82
80
80
F8
80
80
80
82
44
38
ENDCHAR
STARTCHAR afii10054
ENCODING 1029
SWIDTH 692 0
DWIDTH 9 0
BBX 6 12 0 0
BITMAP
78
84
80
80
40
30
08
04
04
04
84
78
ENDCHAR
STARTCHAR afii10055
ENCODING 1030
SWIDTH 692 0
DWIDTH 9 0
BBX 5 12 0 0
BITMAP
F8
20
20
20
20
20
20
20
20
20
20
F8
ENDCHAR
STARTCHAR afii10056
ENCODING 1031
SWIDTH 692 0
DWIDTH 9 0
BBX 5 14 0 0
BITMAP
50
00
F8
20
20
20
20
20
20
20
20
20
20
F8
ENDCHAR
STARTCHAR afii10057
ENCODING 1032
SWIDTH 692 0
DWIDTH 9 0
BBX 6 12 0 0
BITMAP
FC
04
04
04
04
04
04
04
04
84
84
78
ENDCHAR
STARTCHAR afii10058
ENCODING 1033
SWIDTH 692 0
DWIDTH 9 0
BBX 7 12 0 0
BITMAP
70
50
50
50
50
50
50
5C
92
92
92
9C
ENDCHAR
STARTCHAR afii10059
ENCODING 1034
SWIDTH 692 0
DWIDTH 9 0
BBX 7 12 0 0
BITMAP
90
90
90
90
90
F0
90
9C
92
92
92
9C
ENDCHAR
STARTCHAR afii10060
ENCODING 1035
SWIDTH 692 0
DWIDTH 9 0
BBX 7 12 0 0
BITMAP
F8
20
20
2C
32
22
22
22
22
22
22
22
ENDCHAR
STARTCHAR afii10061
ENCODING 1036
SWIDTH 692 0
DWIDTH 9 0
BBX 6 15 0 0
BITMAP
10
20
00
84
84
88
90
90
A0
E0
90
88
88
84
84
ENDCHAR
STARTCHAR afii10026
ENCODING 1037
SWIDTH 692 0
DWIDTH 9 0
BBX 6 15 0 0
BITMAP
20
10
00
84
84
8C
8C
94
94
A4
A4
C4
C4
84
84
ENDCHAR
STARTCHAR afii10037
ENCODING 1038
SWIDTH 692 0
DWIDTH 9 0
BBX 7 15 0 0
BITMAP
28
10
00
82
82
44
44
28
28
10
10
10
20
20
C0
ENDCHAR
STARTCHAR char1039
ENCODING 1039
SWIDTH 692 0
DWIDTH 9 0
BBX 7 14 0 -2
BITMAP
82
82
82
82
82
82
82
82
82
82
82
FE
10
10
ENDCHAR
STARTCHAR afii10017
ENCODING 1040
SWIDTH 692 0
DWIDTH 9 0
BBX 6 12 0 0
BITMAP
30
48
48
48
84
84
84
FC
84
84
84
84
ENDCHAR
STARTCHAR afii10018
ENCODING 1041
SWIDTH 692 0
DWIDTH 9 0
BBX 6 12 0 0
BITMAP
FC
80
80
80
80
F8
84
84
84
84
84
F8
ENDCHAR
STARTCHAR afii10019
ENCODING 1042
SWIDTH 692 0
DWIDTH 9 0
BBX 6 12 0 0
BITMAP
F8
84
84
84
84
F8
84
84
84
84
84
F8
ENDCHAR
STARTCHAR afii10020
ENCODING 1043
SWIDTH 692 0
DWIDTH 9 0
BBX 6 12 0 0
BITMAP
FC
80
80
80
80
80
80
80
80
80
80
80
ENDCHAR
STARTCHAR afii10021
ENCODING 1044
SWIDTH 692 0
DWIDTH 9 0
BBX 7 14 0 -2
BITMAP
7C
44
44
44
44
44
44
44
44
44
44
FE
82
82
ENDCHAR
STARTCHAR afii10022
ENCODING 1045
SWIDTH 692 0
DWIDTH 9 0
BBX 6 12 0 0
BITMAP
FC
80
80
80
80
F8
80
80
80
80
80
FC
ENDCHAR
STARTCHAR afii10024
ENCODING 1046
SWIDTH 692 0
DWIDTH 9 0
BBX 7 12 0 0
BITMAP
92
92
92
54
54
38
38
54
54
92
92
92
ENDCHAR
STARTCHAR afii10025
ENCODING 1047
SWIDTH 692 0
DWIDTH 9 0
BBX 6 12 0 0
BITMAP
78
84
04
04
04
38
04
04
04
04
84
78
ENDCHAR
STARTCHAR afii10026
ENCODING 1048
SWIDTH 692 0
DWIDTH 9 0
BBX 6 12 0 0
BITMAP
84
84
8C
8C
94
94
A4
A4
C4
C4
84
84
ENDCHAR
STARTCHAR char1049
ENCODING 1049
SWIDTH 692 0
DWIDTH 9 0
BBX 6 15 0 0
BITMAP
48
30
00
84
84
8C
8C
94
94
A4
A4
C4
C4
84
84
ENDCHAR
STARTCHAR afii10028
ENCODING 1050
SWIDTH 692 0
DWIDTH 9 0
BBX 6 12 0 0
BITMAP
84
84
88
90
90
A0
E0
90
88
88
84
84
ENDCHAR
STARTCHAR afii10029
ENCODING 1051
SWIDTH 692 0
DWIDTH 9 0
BBX 6 12 0 0
BITMAP
7C
44
44
44
44
44
44
44
44
44
84
84
ENDCHAR
STARTCHAR afii10030
ENCODING 1052
SWIDTH 692 0
DWIDTH 9 0
BBX 7 12 0 0
BITMAP
82
C6
C6
C6
AA
AA
AA
92
92
92
82
82
ENDCHAR
STARTCHAR afii10031
ENCODING 1053
SWIDTH 692 0
DWIDTH 9 0
BBX 6 12 0 0
BITMAP
84
84
84
84
84
FC
84
84
84
84
84
84
ENDCHAR
STARTCHAR afii10032
ENCODING 1054
SWIDTH 692 0
DWIDTH 9 0
BBX 6 12 0 0
BITMAP
78
84
84
84
84
84
84
84
84
84
84
78
ENDCHAR
STARTCHAR afii10033
ENCODING 1055
SWIDTH 692 0
DWIDTH 9 0
BBX 6 12 0 0
BITMAP
FC
84
84
84
84
84
84
84
84
84
84
84
ENDCHAR
STARTCHAR afii10034
ENCODING 1056
SWIDTH 692 0
DWIDTH 9 0
BBX 6 12 0 0
BITMAP
F8
84
84
84
84
F8
80
80
80
80
80
80
ENDCHAR
STARTCHAR afii10035
ENCODING 1057
SWIDTH 692 0
DWIDTH 9 0
BBX 6 12 0 0
BITMAP
78
84
80
80
80
80
80
80
80
80
84
78
ENDCHAR
STARTCHAR afii10036
ENCODING 1058
SWIDTH 692 0
DWIDTH 9 0
BBX 7 12 0 0
BITMAP
FE
10
10
10
10
10
10
10
10
10
10
10
ENDCHAR
STARTCHAR afii10037
ENCODING 1059
SWIDTH 692 0
DWIDTH 9 0
BBX 7 12 0 0
BITMAP
82
82
44
44
28
28
10
10
10
20
20
C0
ENDCHAR
STARTCHAR afii10038
ENCODING 1060
SWIDTH 692 0
DWIDTH 9 0
BBX 7 12 0 0
BITMAP
10
10
7C
92
92
92
92
92
92
7C
10
10
ENDCHAR
STARTCHAR afii10039
ENCODING 1061
SWIDTH 692 0
DWIDTH 9 0
BBX 7 12 0 0
BITMAP
82
82
44
44
28
10
10
28
44
44
82
82
ENDCHAR
STARTCHAR afii10040
ENCODING 1062
SWIDTH 692 0
DWIDTH 9 0
BBX 7 14 0 -2
BITMAP
84
84
84
84
84
84
84
84
84
84
84
FE
02
02
ENDCHAR
STARTCHAR afii10041
ENCODING 1063
SWIDTH 692 0
DWIDTH 9 0
BBX 6 12 0 0
BITMAP
84
84
84
84
84
7C
04
04
04
04
04
04
ENDCHAR
STARTCHAR afii10042
ENCODING 1064
SWIDTH 692 0
DWIDTH 9 0
BBX 7 12 0 0
BITMAP
92
92
92
92
92
92
92
92
92
92
92
FE
ENDCHAR
STARTCHAR char1065
ENCODING 1065
SWIDTH 692 0
DWIDTH 9 0
BBX 8 14 0 -2
BITMAP
92
92
92
92
92
92
92
92
92
92
92
FF
01
01
ENDCHAR
STARTCHAR afii10044
ENCODING 1066
SWIDTH 692 0
DWIDTH 9 0
BBX 7 12 0 0
BITMAP
C0
40
40
40
40
7C
42
42
42
42
42
7C
ENDCHAR
STARTCHAR char1067
ENCODING 1067
SWIDTH 692 0
DWIDTH 9 0
BBX 7 12 0 0
BITMAP
82
82
82
82
82
F2
8A
8A
8A
8A
8A
F2
ENDCHAR
STARTCHAR char1068
ENCODING 1068
SWIDTH 692 0
DWIDTH 9 0
BBX 6 12 1 0
BITMAP
80
80
80
80
80
F8
84
84
84
84
84
F8
ENDCHAR
STARTCHAR char1069
ENCODING 1069
SWIDTH 692 0
DWIDTH 9 0
BBX 7 12 0 0
BITMAP
38
44
82
02
02
3E
02
02
02
82
44
38
ENDCHAR
STARTCHAR char1070
ENCODING 1070
SWIDTH 692 0
DWIDTH 9 0
BBX 7 12 0 0
BITMAP
9C
A2
A2
A2
A2
E2
A2
A2
A2
A2
A2
9C
ENDCHAR
STARTCHAR char1071
ENCODING 1071
SWIDTH 692 0
DWIDTH 9 0
BBX 6 12 0 0
BITMAP
7C
84
84
84
84
7C
24
44
44
84
84
84
ENDCHAR
STARTCHAR afii10065
ENCODING 1072
SWIDTH 692 0
DWIDTH 9 0
BBX 6 9 0 0
BITMAP
78
84
04
04
7C
84
84
8C
74
ENDCHAR
STARTCHAR afii10066
ENCODING 1073
SWIDTH 692 0
DWIDTH 9 0
BBX 6 12 0 0
BITMAP
7C
80
80
F8
84
84
84
84
84
84
84
78
ENDCHAR
STARTCHAR afii10067
ENCODING 1074
SWIDTH 692 0
DWIDTH 9 0
BBX 6 9 0 0
BITMAP
F8
84
84
84
F8
84
84
84
F8
ENDCHAR
STARTCHAR afii10068
ENCODING 1075
SWIDTH 692 0
DWIDTH 9 0
BBX 6 9 0 0
BITMAP
FC
80
80
80
80
80
80
80
80
ENDCHAR
STARTCHAR afii10069
ENCODING 1076
SWIDTH 692 0
DWIDTH 9 0
BBX 7 11 0 -2
BITMAP
7C
44
44
44
44
44
44
44
FE
82
82
ENDCHAR
STARTCHAR afii10070
ENCODING 1077
SWIDTH 692 0
DWIDTH 9 0
BBX 6 9 0 0
BITMAP
78
84
84
84
FC
80
80
84
78
ENDCHAR
STARTCHAR afii10072
ENCODING 1078
SWIDTH 692 0
DWIDTH 9 0
BBX 7 9 0 0
BITMAP
92
92
92
54
38
54
92
92
92
ENDCHAR
STARTCHAR afii10073
ENCODING 1079
SWIDTH 692 0
DWIDTH 9 0
BBX 6 9 0 0
BITMAP
78
84
04
04
38
04
04
84
78
ENDCHAR
STARTCHAR afii10074
ENCODING 1080
SWIDTH 692 0
DWIDTH 9 0
BBX 6 9 0 0
BITMAP
84
8C
8C
94
94
A4
C4
C4
84
ENDCHAR
STARTCHAR afii10074
ENCODING 1081
SWIDTH 692 0
DWIDTH 9 0
BBX 6 12 0 0
BITMAP
48
30
00
84
8C
8C
94
94
A4
C4
C4
84
ENDCHAR
STARTCHAR afii10076
ENCODING 1082
SWIDTH 692 0
DWIDTH 9 0
BBX 6 9 0 0
BITMAP
84
88
90
A0
E0
90
88
84
84
ENDCHAR
STARTCHAR afii10077
ENCODING 1083
SWIDTH 692 0
DWIDTH 9 0
BBX 6 9 0 0
BITMAP
7C
44
44
44
44
44
44
84
84
ENDCHAR
STARTCHAR afii10078
ENCODING 1084
SWIDTH 692 0
DWIDTH 9 0
BBX 7 9 0 0
BITMAP
82
82
C6
C6
AA
AA
92
92
82
ENDCHAR
STARTCHAR afii10079
ENCODING 1085
SWIDTH 692 0
DWIDTH 9 0
BBX 6 9 0 0
BITMAP
84
84
84
84
FC
84
84
84
84
ENDCHAR
STARTCHAR afii10080
ENCODING 1086
SWIDTH 692 0
DWIDTH 9 0
BBX 6 9 0 0
BITMAP
78
84
84
84
84
84
84
84
78
ENDCHAR
STARTCHAR afii10081
ENCODING 1087
SWIDTH 692 0
DWIDTH 9 0
BBX 6 9 0 0
BITMAP
FC
84
84
84
84
84
84
84
84
ENDCHAR
STARTCHAR afii10082
ENCODING 1088
SWIDTH 692 0
DWIDTH 9 0
BBX 6 11 0 -2
BITMAP
B8
C4
84
84
84
84
84
C4
B8
80
80
ENDCHAR
STARTCHAR afii10083
ENCODING 1089
SWIDTH 692 0
DWIDTH 9 0
BBX 6 9 0 0
BITMAP
78
84
80
80
80
80
80
84
78
ENDCHAR
STARTCHAR afii10084
ENCODING 1090
SWIDTH 692 0
DWIDTH 9 0
BBX 7 9 0 0
BITMAP
FE
10
10
10
10
10
10
10
10
ENDCHAR
STARTCHAR afii10085
ENCODING 1091
SWIDTH 692 0
DWIDTH 9 0
BBX 7 11 0 -2
BITMAP
82
82
44
44
28
28
10
10
20
20
C0
ENDCHAR
STARTCHAR afii10086
ENCODING 1092
SWIDTH 692 0
DWIDTH 9 0
BBX 7 11 0 -1
BITMAP
10
7C
92
92
92
92
92
92
92
7C
10
ENDCHAR
STARTCHAR afii10087
ENCODING 1093
SWIDTH 692 0
DWIDTH 9 0
BBX 7 9 0 0
BITMAP
82
82
44
28
10
28
44
82
82
ENDCHAR
STARTCHAR afii10088
ENCODING 1094
SWIDTH 692 0
DWIDTH 9 0
BBX 7 11 0 -2
BITMAP
84
84
84
84
84
84
84
84
FE
02
02
ENDCHAR
STARTCHAR afii10089
ENCODING 1095
SWIDTH 692 0
DWIDTH 9 0
BBX 6 9 0 0
BITMAP
84
84
84
84
7C
04
04
04
04
ENDCHAR
STARTCHAR afii10090
ENCODING 1096
SWIDTH 692 0
DWIDTH 9 0
BBX 7 9 0 0
BITMAP
92
92
92
92
92
92
92
92
FE
ENDCHAR
STARTCHAR char1097
ENCODING 1097
SWIDTH 692 0
DWIDTH 9 0
BBX 8 11 0 -2
BITMAP
92
92
92
92
92
92
92
92
FF
01
01
ENDCHAR
STARTCHAR afii10092
ENCODING 1098
SWIDTH 692 0
DWIDTH 9 0
BBX 6 9 0 0
BITMAP
C0
40
40
40
78
44
44
44
78
ENDCHAR
STARTCHAR char1099
ENCODING 1099
SWIDTH 692 0
DWIDTH 9 0
BBX 6 9 0 0
BITMAP
84
84
84
84
E4
94
94
94
E4
ENDCHAR
STARTCHAR char1100
ENCODING 1100
SWIDTH 692 0
DWIDTH 9 0
BBX 5 9 1 0
BITMAP
80
80
80
80
F0
88
88
88
F0
ENDCHAR
STARTCHAR char1101
ENCODING 1101
SWIDTH 692 0
DWIDTH 9 0
BBX 6 9 0 0
BITMAP
78
84
04
04
3C
04
04
84
78
ENDCHAR
STARTCHAR char1102
ENCODING 1102
SWIDTH 692 0
DWIDTH 9 0
BBX 6 9 0 0
BITMAP
98
A4
A4
A4
E4
A4
A4
A4
98
ENDCHAR
STARTCHAR char1103
ENCODING 1103
SWIDTH 692 0
DWIDTH 9 0
BBX 6 9 0 0
BITMAP
7C
84
84
84
7C
14
24
44
84
ENDCHAR
STARTCHAR afii10070
ENCODING 1104
SWIDTH 692 0
DWIDTH 9 0
BBX 6 12 0 0
BITMAP
20
10
00
78
84
84
84
FC
80
80
84
78
ENDCHAR
STARTCHAR afii10070
ENCODING 1105
SWIDTH 692 0
DWIDTH 9 0
BBX 6 11 0 0
BITMAP
48
00
78
84
84
84
FC
80
80
84
78
ENDCHAR
STARTCHAR afii10099
ENCODING 1106
SWIDTH 692 0
DWIDTH 9 0
BBX 6 13 0 -1
BITMAP
40
E0
40
58
64
44
44
44
44
44
44
44
08
ENDCHAR
STARTCHAR afii10068
ENCODING 1107
SWIDTH 692 0
DWIDTH 9 0
BBX 6 12 0 0
BITMAP
10
20
00
FC
80
80
80
80
80
80
80
80
ENDCHAR
STARTCHAR char1101
ENCODING 1108
SWIDTH 692 0
DWIDTH 9 0
BBX 6 9 0 0
BITMAP
78
84
80
80
F0
80
80
84
78
ENDCHAR
STARTCHAR afii10102
ENCODING 1109
SWIDTH 692 0
DWIDTH 9 0
BBX 6 9 0 0
BITMAP
78
84
80
80
78
04
04
84
78
ENDCHAR
STARTCHAR afii10103
ENCODING 1110
SWIDTH 692 0
DWIDTH 9 0
BBX 5 12 1 0
BITMAP
20
00
00
E0
20
20
20
20
20
20
20
F8
ENDCHAR
STARTCHAR afii10104
ENCODING 1111
SWIDTH 692 0
DWIDTH 9 0
BBX 5 12 1 0
BITMAP
50
00
00
E0
20
20
20
20
20
20
20
F8
ENDCHAR
STARTCHAR afii10105
ENCODING 1112
SWIDTH 692 0
DWIDTH 9 0
BBX 5 14 1 -2
BITMAP
08
00
00
38
08
08
08
08
08
08
08
08
88
70
ENDCHAR
STARTCHAR afii10106
ENCODING 1113
SWIDTH 692 0
DWIDTH 9 0
BBX 7 9 0 0
BITMAP
70
50
50
50
50
5C
52
92
9C
ENDCHAR
STARTCHAR afii10107
ENCODING 1114
SWIDTH 692 0
DWIDTH 9 0
BBX 7 9 0 0
BITMAP
90
90
90
90
F0
9C
92
92
9C
ENDCHAR
STARTCHAR afii10099
ENCODING 1115
SWIDTH 692 0
DWIDTH 9 0
BBX 6 12 0 0
BITMAP
40
E0
40
58
64
44
44
44
44
44
44
44
ENDCHAR
STARTCHAR afii10109
ENCODING 1116
SWIDTH 692 0
DWIDTH 9 0
BBX 6 12 0 0
BITMAP
10
20
00
84
88
90
A0
E0
90
88
84
84
ENDCHAR
STARTCHAR afii10074
ENCODING 1117
SWIDTH 692 0
DWIDTH 9 0
BBX 6 12 0 0
BITMAP
20
10
00
84
8C
8C
94
94
A4
C4
C4
84
ENDCHAR
STARTCHAR afii10085
ENCODING 1118
SWIDTH 692 0
DWIDTH 9 0
BBX 7 14 0 -2
BITMAP
28
10
00
82
82
44
44
28
28
10
10
20
20
C0
ENDCHAR
STARTCHAR char1119
ENCODING 1119
SWIDTH 692 0
DWIDTH 9 0
BBX 7 11 0 -2
BITMAP
82
82
82
82
82
82
82
82
FE
10
10
ENDCHAR
STARTCHAR uni04AE
ENCODING 1198
SWIDTH 692 0
DWIDTH 9 0
BBX 7 12 0 0
BITMAP
82
82
44
44
28
28
10
10
10
10
10
10
ENDCHAR
STARTCHAR uni04AF
ENCODING 1199
SWIDTH 692 0
DWIDTH 9 0
BBX 7 12 0 -3
BITMAP
82
82
44
44
28
28
10
10
20
20
40
40
ENDCHAR
STARTCHAR uni04E8
ENCODING 1256
SWIDTH 692 0
DWIDTH 9 0
BBX 6 12 0 0
BITMAP
78
84
84
84
84
84
84
84
84
84
84
78
ENDCHAR
STARTCHAR uni04E9
ENCODING 1257
SWIDTH 692 0
DWIDTH 9 0
BBX 6 9 0 0
BITMAP
78
84
84
84
84
84
84
84
78
ENDCHAR
STARTCHAR uni1E00
ENCODING 7680
SWIDTH 692 0
DWIDTH 9 0
BBX 6 12 0 0
BITMAP
30
48
48
48
84
84
84
FC
84
84
84
84
ENDCHAR
STARTCHAR uni1E01
ENCODING 7681
SWIDTH 692 0
DWIDTH 9 0
BBX 6 9 0 0
BITMAP
78
84
04
04
7C
84
84
8C
74
ENDCHAR
STARTCHAR uni1E02
ENCODING 7682
SWIDTH 692 0
DWIDTH 9 0
BBX 6 12 0 0
BITMAP
F8
84
84
84
84
F8
84
84
84
84
84
F8
ENDCHAR
STARTCHAR uni1E03
ENCODING 7683
SWIDTH 692 0
DWIDTH 9 0
BBX 6 12 0 0
BITMAP
80
80
80
B8
C4
84
84
84
84
84
C4
B8
ENDCHAR
STARTCHAR uni1E04
ENCODING 7684
SWIDTH 692 0
DWIDTH 9 0
BBX 6 12 0 0
BITMAP
F8
84
84
84
84
F8
84
84
84
84
84
F8
ENDCHAR
STARTCHAR uni1E05
ENCODING 7685
SWIDTH 692 0
DWIDTH 9 0
BBX 6 12 0 0
BITMAP
80
80
80
B8
C4
84
84
84
84
84
C4
B8
ENDCHAR
STARTCHAR uni1E06
ENCODING 7686
SWIDTH 692 0
DWIDTH 9 0
BBX 6 12 0 0
BITMAP
F8
84
84
84
84
F8
84
84
84
84
84
F8
ENDCHAR
STARTCHAR uni1E07
ENCODING 7687
SWIDTH 692 0
DWIDTH 9 0
BBX 6 12 0 0
BITMAP
80
80
80
B8
C4
84
84
84
84
84
C4
B8
ENDCHAR
STARTCHAR uni1E08
ENCODING 7688
SWIDTH 692 0
DWIDTH 9 0
BBX 6 15 0 -3
BITMAP
78
84
80
80
80
80
80
80
80
80
84
78
10
08
30
ENDCHAR
STARTCHAR uni1E09
ENCODING 7689
SWIDTH 692 0
DWIDTH 9 0
BBX 6 12 0 -3
BITMAP
78
84
80
80
80
80
80
84
78
10
10
08
ENDCHAR
STARTCHAR uni1E0A
ENCODING 7690
SWIDTH 692 0
DWIDTH 9 0
BBX 6 12 0 0
BITMAP
F0
88
84
84
84
84
84
84
84
84
88
F0
ENDCHAR
STARTCHAR uni1E0B
ENCODING 7691
SWIDTH 692 0
DWIDTH 9 0
BBX 6 12 0 0
BITMAP
04
04
04
74
8C
84
84
84
84
84
8C
74
ENDCHAR
STARTCHAR uni1E0C
ENCODING 7692
SWIDTH 692 0
DWIDTH 9 0
BBX 6 12 0 0
BITMAP
F0
88
84
84
84
84
84
84
84
84
88
F0
ENDCHAR
STARTCHAR uni1E0D
ENCODING 7693
SWIDTH 692 0
DWIDTH 9 0
BBX 6 12 0 0
BITMAP
04
04
04
74
8C
84
84
84
84
84
8C
74
ENDCHAR
STARTCHAR uni1E0E
ENCODING 7694
SWIDTH 692 0
DWIDTH 9 0
BBX 6 12 0 0
BITMAP
F0
88
84
84
84
84
84
84
84
84
88
F0
ENDCHAR
STARTCHAR uni1E0F
ENCODING 7695
SWIDTH 692 0
DWIDTH 9 0
BBX 6 12 0 0
BITMAP
04
04
04
74
8C
84
84
84
84
84
8C
74
ENDCHAR
STARTCHAR uni1E10
ENCODING 7696
SWIDTH 692 0
DWIDTH 9 0
BBX 6 12 0 0
BITMAP
F0
88
84
84
84
84
84
84
84
84
88
F0
ENDCHAR
STARTCHAR uni1E11
ENCODING 7697
SWIDTH 692 0
DWIDTH 9 0
BBX 6 12 0 0
BITMAP
04
04
04
74
8C
84
84
84
84
84
8C
74
ENDCHAR
STARTCHAR uni1E12
ENCODING 7698
SWIDTH 692 0
DWIDTH 9 0
BBX 6 12 0 0
BITMAP
F0
88
84
84
84
84
84
84
84
84
88
F0
ENDCHAR
STARTCHAR uni1E13
ENCODING 7699
SWIDTH 692 0
DWIDTH 9 0
BBX 6 12 0 0
BITMAP
04
04
04
74
8C
84
84
84
84
84
8C
74
ENDCHAR
STARTCHAR uni1E14
ENCODING 7700
SWIDTH 692 0
DWIDTH 9 0
BBX 5 12 0 0
BITMAP
F8
80
80
80
80
F0
80
80
80
80
80
F8
ENDCHAR
STARTCHAR uni1E15
ENCODING 7701
SWIDTH 692 0
DWIDTH 9 0
BBX 6 9 0 0
BITMAP
78
84
84
84
FC
80
80
84
78
ENDCHAR
STARTCHAR uni1E16
ENCODING 7702
SWIDTH 692 0
DWIDTH 9 0
BBX 5 12 0 0
BITMAP
F8
80
80
80
80
F0
80
80
80
80
80
F8
ENDCHAR
STARTCHAR uni1E17
ENCODING 7703
SWIDTH 692 0
DWIDTH 9 0
BBX 6 9 0 0
BITMAP
78
84
84
84
FC
80
80
84
78
ENDCHAR
STARTCHAR uni1E18
ENCODING 7704
SWIDTH 692 0
DWIDTH 9 0
BBX 5 12 0 0
BITMAP
F8
80
80
80
80
F0
80
80
80
80
80
F8
ENDCHAR
STARTCHAR uni1E19
ENCODING 7705
SWIDTH 692 0
DWIDTH 9 0
BBX 6 9 0 0
BITMAP
78
84
84
84
FC
80
80
84
78
ENDCHAR
STARTCHAR uni1E1A
ENCODING 7706
SWIDTH 692 0
DWIDTH 9 0
BBX 5 12 0 0
BITMAP
F8
80
80
80
80
F0
80
80
80
80
80
F8
ENDCHAR
STARTCHAR uni1E1B
ENCODING 7707
SWIDTH 692 0
DWIDTH 9 0
BBX 6 9 0 0
BITMAP
78
84
84
84
FC
80
80
84
78
ENDCHAR
STARTCHAR uni1E1C
ENCODING 7708
SWIDTH 692 0
DWIDTH 9 0
BBX 5 12 0 0
BITMAP
F8
80
80
80
80
F0
80
80
80
80
80
F8
ENDCHAR
STARTCHAR uni1E1D
ENCODING 7709
SWIDTH 692 0
DWIDTH 9 0
BBX 6 9 0 0
BITMAP
78
84
84
84
FC
80
80
84
78
ENDCHAR
STARTCHAR uni1E1E
ENCODING 7710
SWIDTH 692 0
DWIDTH 9 0
BBX 5 12 0 0
BITMAP
F8
80
80
80
F0
80
80
80
80
80
80
80
ENDCHAR
STARTCHAR uni1E1F
ENCODING 7711
SWIDTH 692 0
DWIDTH 9 0
BBX 6 12 0 0
BITMAP
1C
20
20
20
FC
20
20
20
20
20
20
20
ENDCHAR
STARTCHAR uni1E20
ENCODING 7712
SWIDTH 692 0
DWIDTH 9 0
BBX 6 12 0 0
BITMAP
78
84
80
80
80
80
80
8C
84
84
84
78
ENDCHAR
STARTCHAR uni1E21
ENCODING 7713
SWIDTH 692 0
DWIDTH 9 0
BBX 7 12 0 -3
BITMAP
7E
84
84
84
78
80
80
7C
82
82
82
7C
ENDCHAR
STARTCHAR uni1E22
ENCODING 7714
SWIDTH 692 0
DWIDTH 9 0
BBX 6 12 0 0
BITMAP
84
84
84
84
84
FC
84
84
84
84
84
84
ENDCHAR
STARTCHAR uni1E23
ENCODING 7715
SWIDTH 692 0
DWIDTH 9 0
BBX 6 12 0 0
BITMAP
80
80
80
B8
C4
84
84
84
84
84
84
84
ENDCHAR
STARTCHAR uni1E24
ENCODING 7716
SWIDTH 692 0
DWIDTH 9 0
BBX 6 12 0 0
BITMAP
84
84
84
84
84
FC
84
84
84
84
84
84
ENDCHAR
STARTCHAR uni1E25
ENCODING 7717
SWIDTH 692 0
DWIDTH 9 0
BBX 6 12 0 0
BITMAP
80
80
80
B8
C4
84
84
84
84
84
84
84
ENDCHAR
STARTCHAR uni1E26
ENCODING 7718
SWIDTH 692 0
DWIDTH 9 0
BBX 6 12 0 0
BITMAP
84
84
84
84
84
FC
84
84
84
84
84
84
ENDCHAR
STARTCHAR uni1E27
ENCODING 7719
SWIDTH 692 0
DWIDTH 9 0
BBX 6 12 0 0
BITMAP
80
80
80
B8
C4
84
84
84
84
84
84
84
ENDCHAR
STARTCHAR uni1E28
ENCODING 7720
SWIDTH 692 0
DWIDTH 9 0
BBX 6 12 0 0
BITMAP
84
84
84
84
84
FC
84
84
84
84
84
84
ENDCHAR
STARTCHAR uni1E29
ENCODING 7721
SWIDTH 692 0
DWIDTH 9 0
BBX 6 12 0 0
BITMAP
80
80
80
B8
C4
84
84
84
84
84
84
84
ENDCHAR
STARTCHAR uni1E2A
ENCODING 7722
SWIDTH 692 0
DWIDTH 9 0
BBX 6 12 0 0
BITMAP
84
84
84
84
84
FC
84
84
84
84
84
84
ENDCHAR
STARTCHAR uni1E2B
ENCODING 7723
SWIDTH 692 0
DWIDTH 9 0
BBX 6 12 0 0
BITMAP
80
80
80
B8
C4
84
84
84
84
84
84
84
ENDCHAR
STARTCHAR uni1E2C
ENCODING 7724
SWIDTH 692 0
DWIDTH 9 0
BBX 5 12 0 0
BITMAP
F8
20
20
20
20
20
20
20
20
20
20
F8
ENDCHAR
STARTCHAR uni1E2D
ENCODING 7725
SWIDTH 692 0
DWIDTH 9 0
BBX 5 12 1 0
BITMAP
20
00
00
E0
20
20
20
20
20
20
20
F8
ENDCHAR
STARTCHAR uni1E2E
ENCODING 7726
SWIDTH 692 0
DWIDTH 9 0
BBX 5 12 0 0
BITMAP
F8
20
20
20
20
20
20
20
20
20
20
F8
ENDCHAR
STARTCHAR uni1E2F
ENCODING 7727
SWIDTH 692 0
DWIDTH 9 0
BBX 5 12 1 0
BITMAP
20
00
00
E0
20
20
20
20
20
20
20
F8
ENDCHAR
STARTCHAR uni1E30
ENCODING 7728
SWIDTH 692 0
DWIDTH 9 0
BBX 6 12 0 0
BITMAP
84
84
88
90
90
A0
E0
90
88
88
84
84
ENDCHAR
STARTCHAR uni1E31
ENCODING 7729
SWIDTH 692 0
DWIDTH 9 0
BBX 6 12 0 0
BITMAP
80
80
80
84
88
90
A0
E0
90
88
84
84
ENDCHAR
STARTCHAR uni1E32
ENCODING 7730
SWIDTH 692 0
DWIDTH 9 0
BBX 6 12 0 0
BITMAP
84
84
88
90
90
A0
E0
90
88
88
84
84
ENDCHAR
STARTCHAR uni1E33
ENCODING 7731
SWIDTH 692 0
DWIDTH 9 0
BBX 6 12 0 0
BITMAP
80
80
80
84
88
90
A0
E0
90
88
84
84
ENDCHAR
STARTCHAR uni1E34
ENCODING 7732
SWIDTH 692 0
DWIDTH 9 0
BBX 6 12 0 0
BITMAP
84
84
88
90
90
A0
E0
90
88
88
84
84
ENDCHAR
STARTCHAR uni1E35
ENCODING 7733
SWIDTH 692 0
DWIDTH 9 0
BBX 6 12 0 0
BITMAP
80
80
80
84
88
90
A0
E0
90
88
84
84
ENDCHAR
STARTCHAR uni1E36
ENCODING 7734
SWIDTH 692 0
DWIDTH 9 0
BBX 6 12 0 0
BITMAP
80
80
80
80
80
80
80
80
80
80
80
FC
ENDCHAR
STARTCHAR uni1E37
ENCODING 7735
SWIDTH 692 0
DWIDTH 9 0
BBX 5 12 1 0
BITMAP
E0
20
20
20
20
20
20
20
20
20
20
F8
ENDCHAR
STARTCHAR uni1E38
ENCODING 7736
SWIDTH 692 0
DWIDTH 9 0
BBX 6 12 0 0
BITMAP
80
80
80
80
80
80
80
80
80
80
80
FC
ENDCHAR
STARTCHAR uni1E39
ENCODING 7737
SWIDTH 692 0
DWIDTH 9 0
BBX 5 12 1 0
BITMAP
E0
20
20
20
20
20
20
20
20
20
20
F8
ENDCHAR
STARTCHAR uni1E3A
ENCODING 7738
SWIDTH 692 0
DWIDTH 9 0
BBX 6 12 0 0
BITMAP
80
80
80
80
80
80
80
80
80
80
80
FC
ENDCHAR
STARTCHAR uni1E3B
ENCODING 7739
SWIDTH 692 0
DWIDTH 9 0
BBX 5 12 1 0
BITMAP
E0
20
20
20
20
20
20
20
20
20
20
F8
ENDCHAR
STARTCHAR uni1E3C
ENCODING 7740
SWIDTH 692 0
DWIDTH 9 0
BBX 6 12 0 0
BITMAP
80
80
80
80
80
80
80
80
80
80
80
FC
ENDCHAR
STARTCHAR uni1E3D
ENCODING 7741
SWIDTH 692 0
DWIDTH 9 0
BBX 5 12 1 0
BITMAP
E0
20
20
20
20
20
20
20
20
20
20
F8
ENDCHAR
STARTCHAR uni1E3E
ENCODING 7742
SWIDTH 692 0
DWIDTH 9 0
BBX 7 12 0 0
BITMAP
82
C6
AA
AA
92
82
82
82
82
82
82
82
ENDCHAR
STARTCHAR uni1E3F
ENCODING 7743
SWIDTH 692 0
DWIDTH 9 0
BBX 7 9 0 0
BITMAP
EC
92
92
92
92
92
92
92
92
ENDCHAR
STARTCHAR uni1E40
ENCODING 7744
SWIDTH 692 0
DWIDTH 9 0
BBX 7 12 0 0
BITMAP
82
C6
AA
AA
92
82
82
82
82
82
82
82
ENDCHAR
STARTCHAR uni1E41
ENCODING 7745
SWIDTH 692 0
DWIDTH 9 0
BBX 7 9 0 0
BITMAP
EC
92
92
92
92
92
92
92
92
ENDCHAR
STARTCHAR uni1E42
ENCODING 7746
SWIDTH 692 0
DWIDTH 9 0
BBX 7 12 0 0
BITMAP
82
C6
AA
AA
92
82
82
82
82
82
82
82
ENDCHAR
STARTCHAR uni1E43
ENCODING 7747
SWIDTH 692 0
DWIDTH 9 0
BBX 7 9 0 0
BITMAP
EC
92
92
92
92
92
92
92
92
ENDCHAR
STARTCHAR uni1E44
ENCODING 7748
SWIDTH 692 0
DWIDTH 9 0
BBX 6 12 0 0
BITMAP
84
C4
A4
A4
94
94
8C
84
84
84
84
84
ENDCHAR
STARTCHAR uni1E45
ENCODING 7749
SWIDTH 692 0
DWIDTH 9 0
BBX 6 9 0 0
BITMAP
B8
C4
84
84
84
84
84
84
84
ENDCHAR
STARTCHAR uni1E46
ENCODING 7750
SWIDTH 692 0
DWIDTH 9 0
BBX 6 12 0 0
BITMAP
84
C4
A4
A4
94
94
8C
84
84
84
84
84
ENDCHAR
STARTCHAR uni1E47
ENCODING 7751
SWIDTH 692 0
DWIDTH 9 0
BBX 6 9 0 0
BITMAP
B8
C4
84
84
84
84
84
84
84
ENDCHAR
STARTCHAR uni1E48
ENCODING 7752
SWIDTH 692 0
DWIDTH 9 0
BBX 6 12 0 0
BITMAP
84
C4
A4
A4
94
94
8C
84
84
84
84
84
ENDCHAR
STARTCHAR uni1E49
ENCODING 7753
SWIDTH 692 0
DWIDTH 9 0
BBX 6 9 0 0
BITMAP
B8
C4
84
84
84
84
84
84
84
ENDCHAR
STARTCHAR uni1E4A
ENCODING 7754
SWIDTH 692 0
DWIDTH 9 0
BBX 6 12 0 0
BITMAP
84
C4
A4
A4
94
94
8C
84
84
84
84
84
ENDCHAR
STARTCHAR uni1E4B
ENCODING 7755
SWIDTH 692 0
DWIDTH 9 0
BBX 6 9 0 0
BITMAP
B8
C4
84
84
84
84
84
84
84
ENDCHAR
STARTCHAR uni1E4C
ENCODING 7756
SWIDTH 692 0
DWIDTH 9 0
BBX 6 12 0 0
BITMAP
78
84
84
84
84
84
84
84
84
84
84
78
ENDCHAR
STARTCHAR uni1E4D
ENCODING 7757
SWIDTH 692 0
DWIDTH 9 0
BBX 6 9 0 0
BITMAP
78
84
84
84
84
84
84
84
78
ENDCHAR
STARTCHAR uni1E4E
ENCODING 7758
SWIDTH 692 0
DWIDTH 9 0
BBX 6 12 0 0
BITMAP
78
84
84
84
84
84
84
84
84
84
84
78
ENDCHAR
STARTCHAR uni1E4F
ENCODING 7759
SWIDTH 692 0
DWIDTH 9 0
BBX 6 9 0 0
BITMAP
78
84
84
84
84
84
84
84
78
ENDCHAR
STARTCHAR uni1E50
ENCODING 7760
SWIDTH 692 0
DWIDTH 9 0
BBX 6 12 0 0
BITMAP
78
84
84
84
84
84
84
84
84
84
84
78
ENDCHAR
STARTCHAR uni1E51
ENCODING 7761
SWIDTH 692 0
DWIDTH 9 0
BBX 6 9 0 0
BITMAP
78
84
84
84
84
84
84
84
78
ENDCHAR
STARTCHAR uni1E52
ENCODING 7762
SWIDTH 692 0
DWIDTH 9 0
BBX 6 12 0 0
BITMAP
78
84
84
84
84
84
84
84
84
84
84
78
ENDCHAR
STARTCHAR uni1E53
ENCODING 7763
SWIDTH 692 0
DWIDTH 9 0
BBX 6 9 0 0
BITMAP
78
84
84
84
84
84
84
84
78
ENDCHAR
STARTCHAR uni1E54
ENCODING 7764
SWIDTH 692 0
DWIDTH 9 0
BBX 6 12 0 0
BITMAP
F8
84
84
84
84
F8
80
80
80
80
80
80
ENDCHAR
STARTCHAR uni1E55
ENCODING 7765
SWIDTH 692 0
DWIDTH 9 0
BBX 6 12 0 -3
BITMAP
B8
C4
84
84
84
84
84
C4
B8
80
80
80
ENDCHAR
STARTCHAR uni1E56
ENCODING 7766
SWIDTH 692 0
DWIDTH 9 0
BBX 6 12 0 0
BITMAP
F8
84
84
84
84
F8
80
80
80
80
80
80
ENDCHAR
STARTCHAR uni1E57
ENCODING 7767
SWIDTH 692 0
DWIDTH 9 0
BBX 6 12 0 -3
BITMAP
B8
C4
84
84
84
84
84
C4
B8
80
80
80
ENDCHAR
STARTCHAR uni1E58
ENCODING 7768
SWIDTH 692 0
DWIDTH 9 0
BBX 6 12 0 0
BITMAP
F8
84
84
84
84
F8
88
88
88
84
84
84
ENDCHAR
STARTCHAR uni1E59
ENCODING 7769
SWIDTH 692 0
DWIDTH 9 0
BBX 6 9 0 0
BITMAP
B8
C4
80
80
80
80
80
80
80
ENDCHAR
STARTCHAR uni1E5A
ENCODING 7770
SWIDTH 692 0
DWIDTH 9 0
BBX 6 12 0 0
BITMAP
F8
84
84
84
84
F8
88
88
88
84
84
84
ENDCHAR
STARTCHAR uni1E5B
ENCODING 7771
SWIDTH 692 0
DWIDTH 9 0
BBX 6 9 0 0
BITMAP
B8
C4
80
80
80
80
80
80
80
ENDCHAR
STARTCHAR uni1E5C
ENCODING 7772
SWIDTH 692 0
DWIDTH 9 0
BBX 6 12 0 0
BITMAP
F8
84
84
84
84
F8
88
88
88
84
84
84
ENDCHAR
STARTCHAR uni1E5D
ENCODING 7773
SWIDTH 692 0
DWIDTH 9 0
BBX 6 9 0 0
BITMAP
B8
C4
80
80
80
80
80
80
80
ENDCHAR
STARTCHAR uni1E5E
ENCODING 7774
SWIDTH 692 0
DWIDTH 9 0
BBX 6 12 0 0
BITMAP
F8
84
84
84
84
F8
88
88
88
84
84
84
ENDCHAR
STARTCHAR uni1E5F
ENCODING 7775
SWIDTH 692 0
DWIDTH 9 0
BBX 6 9 0 0
BITMAP
B8
C4
80
80
80
80
80
80
80
ENDCHAR
STARTCHAR uni1E60
ENCODING 7776
SWIDTH 692 0
DWIDTH 9 0
BBX 6 12 0 0
BITMAP
78
84
80
80
40
30
08
04
04
04
84
78
ENDCHAR
STARTCHAR uni1E61
ENCODING 7777
SWIDTH 692 0
DWIDTH 9 0
BBX 6 9 0 0
BITMAP
78
84
80
80
78
04
04
84
78
ENDCHAR
STARTCHAR uni1E62
ENCODING 7778
SWIDTH 692 0
DWIDTH 9 0
BBX 6 12 0 0
BITMAP
78
84
80
80
40
30
08
04
04
04
84
78
ENDCHAR
STARTCHAR uni1E63
ENCODING 7779
SWIDTH 692 0
DWIDTH 9 0
BBX 6 9 0 0
BITMAP
78
84
80
80
78
04
04
84
78
ENDCHAR
STARTCHAR uni1E64
ENCODING 7780
SWIDTH 692 0
DWIDTH 9 0
BBX 6 15 0 0
BITMAP
10
20
00
78
84
80
80
40
30
08
04
04
04
84
78
ENDCHAR
STARTCHAR uni1E65
ENCODING 7781
SWIDTH 692 0
DWIDTH 9 0
BBX 6 12 0 0
BITMAP
30
48
00
78
84
80
80
78
04
04
84
78
ENDCHAR
STARTCHAR uni1E66
ENCODING 7782
SWIDTH 692 0
DWIDTH 9 0
BBX 6 15 0 0
BITMAP
48
30
00
78
84
80
80
40
30
08
04
04
04
84
78
ENDCHAR
STARTCHAR uni1E67
ENCODING 7783
SWIDTH 692 0
DWIDTH 9 0
BBX 6 12 0 0
BITMAP
48
30
00
78
84
80
80
78
04
04
84
78
ENDCHAR
STARTCHAR uni1E68
ENCODING 7784
SWIDTH 692 0
DWIDTH 9 0
BBX 6 12 0 0
BITMAP
78
84
80
80
40
30
08
04
04
04
84
78
ENDCHAR
STARTCHAR uni1E69
ENCODING 7785
SWIDTH 692 0
DWIDTH 9 0
BBX 6 9 0 0
BITMAP
78
84
80
80
78
04
04
84
78
ENDCHAR
STARTCHAR uni1E6A
ENCODING 7786
SWIDTH 692 0
DWIDTH 9 0
BBX 7 12 0 0
BITMAP
FE
10
10
10
10
10
10
10
10
10
10
10
ENDCHAR
STARTCHAR uni1E6B
ENCODING 7787
SWIDTH 692 0
DWIDTH 9 0
BBX 6 12 0 0
BITMAP
20
20
20
FC
20
20
20
20
20
20
20
1C
ENDCHAR
STARTCHAR uni1E6C
ENCODING 7788
SWIDTH 692 0
DWIDTH 9 0
BBX 7 12 0 0
BITMAP
FE
10
10
10
10
10
10
10
10
10
10
10
ENDCHAR
STARTCHAR uni1E6D
ENCODING 7789
SWIDTH 692 0
DWIDTH 9 0
BBX 6 12 0 0
BITMAP
20
20
20
FC
20
20
20
20
20
20
20
1C
ENDCHAR
STARTCHAR uni1E6E
ENCODING 7790
SWIDTH 692 0
DWIDTH 9 0
BBX 7 12 0 0
BITMAP
FE
10
10
10
10
10
10
10
10
10
10
10
ENDCHAR
STARTCHAR uni1E6F
ENCODING 7791
SWIDTH 692 0
DWIDTH 9 0
BBX 6 12 0 0
BITMAP
20
20
20
FC
20
20
20
20
20
20
20
1C
ENDCHAR
STARTCHAR uni1E70
ENCODING 7792
SWIDTH 692 0
DWIDTH 9 0
BBX 7 12 0 0
BITMAP
FE
10
10
10
10
10
10
10
10
10
10
10
ENDCHAR
STARTCHAR uni1E71
ENCODING 7793
SWIDTH 692 0
DWIDTH 9 0
BBX 6 12 0 0
BITMAP
20
20
20
FC
20
20
20
20
20
20
20
1C
ENDCHAR
STARTCHAR uni1E72
ENCODING 7794
SWIDTH 692 0
DWIDTH 9 0
BBX 6 12 0 0
BITMAP
84
84
84
84
84
84
84
84
84
84
84
78
ENDCHAR
STARTCHAR uni1E73
ENCODING 7795
SWIDTH 692 0
DWIDTH 9 0
BBX 6 9 0 0
BITMAP
84
84
84
84
84
84
84
8C
74
ENDCHAR
STARTCHAR uni1E74
ENCODING 7796
SWIDTH 692 0
DWIDTH 9 0
BBX 6 12 0 0
BITMAP
84
84
84
84
84
84
84
84
84
84
84
78
ENDCHAR
STARTCHAR uni1E75
ENCODING 7797
SWIDTH 692 0
DWIDTH 9 0
BBX 6 9 0 0
BITMAP
84
84
84
84
84
84
84
8C
74
ENDCHAR
STARTCHAR uni1E76
ENCODING 7798
SWIDTH 692 0
DWIDTH 9 0
BBX 6 12 0 0
BITMAP
84
84
84
84
84
84
84
84
84
84
84
78
ENDCHAR
STARTCHAR uni1E77
ENCODING 7799
SWIDTH 692 0
DWIDTH 9 0
BBX 6 9 0 0
BITMAP
84
84
84
84
84
84
84
8C
74
ENDCHAR
STARTCHAR uni1E78
ENCODING 7800
SWIDTH 692 0
DWIDTH 9 0
BBX 6 12 0 0
BITMAP
84
84
84
84
84
84
84
84
84
84
84
78
ENDCHAR
STARTCHAR uni1E79
ENCODING 7801
SWIDTH 692 0
DWIDTH 9 0
BBX 6 9 0 0
BITMAP
84
84
84
84
84
84
84
8C
74
ENDCHAR
STARTCHAR uni1E7A
ENCODING 7802
SWIDTH 692 0
DWIDTH 9 0
BBX 6 12 0 0
BITMAP
84
84
84
84
84
84
84
84
84
84
84
78
ENDCHAR
STARTCHAR uni1E7B
ENCODING 7803
SWIDTH 692 0
DWIDTH 9 0
BBX 6 9 0 0
BITMAP
84
84
84
84
84
84
84
8C
74
ENDCHAR
STARTCHAR uni1E7C
ENCODING 7804
SWIDTH 692 0
DWIDTH 9 0
BBX 7 12 0 0
BITMAP
82
82
82
82
44
44
44
28
28
28
10
10
ENDCHAR
STARTCHAR uni1E7D
ENCODING 7805
SWIDTH 692 0
DWIDTH 9 0
BBX 7 9 0 0
BITMAP
82
82
82
44
44
28
28
28
10
ENDCHAR
STARTCHAR uni1E7E
ENCODING 7806
SWIDTH 692 0
DWIDTH 9 0
BBX 7 12 0 0
BITMAP
82
82
82
82
44
44
44
28
28
28
10
10
ENDCHAR
STARTCHAR uni1E7F
ENCODING 7807
SWIDTH 692 0
DWIDTH 9 0
BBX 7 9 0 0
BITMAP
82
82
82
44
44
28
28
28
10
ENDCHAR
STARTCHAR Wgrave
ENCODING 7808
SWIDTH 692 0
DWIDTH 9 0
BBX 7 12 0 0
BITMAP
82
82
82
82
82
82
92
92
AA
AA
44
44
ENDCHAR
STARTCHAR wgrave
ENCODING 7809
SWIDTH 692 0
DWIDTH 9 0
BBX 7 9 0 0
BITMAP
82
82
82
82
92
AA
AA
44
44
ENDCHAR
STARTCHAR Wacute
ENCODING 7810
SWIDTH 692 0
DWIDTH 9 0
BBX 7 12 0 0
BITMAP
82
82
82
82
82
82
92
92
AA
AA
44
44
ENDCHAR
STARTCHAR wacute
ENCODING 7811
SWIDTH 692 0
DWIDTH 9 0
BBX 7 9 0 0
BITMAP
82
82
82
82
92
AA
AA
44
44
ENDCHAR
STARTCHAR Wdieresis
ENCODING 7812
SWIDTH 692 0
DWIDTH 9 0
BBX 7 12 0 0
BITMAP
82
82
82
82
82
82
92
92
AA
AA
44
44
ENDCHAR
STARTCHAR wdieresis
ENCODING 7813
SWIDTH 692 0
DWIDTH 9 0
BBX 7 9 0 0
BITMAP
82
82
82
82
92
AA
AA
44
44
ENDCHAR
STARTCHAR uni1E86
ENCODING 7814
SWIDTH 692 0
DWIDTH 9 0
BBX 7 12 0 0
BITMAP
82
82
82
82
82
82
92
92
AA
AA
44
44
ENDCHAR
STARTCHAR uni1E87
ENCODING 7815
SWIDTH 692 0
DWIDTH 9 0
BBX 7 9 0 0
BITMAP
82
82
82
82
92
AA
AA
44
44
ENDCHAR
STARTCHAR uni1E88
ENCODING 7816
SWIDTH 692 0
DWIDTH 9 0
BBX 7 12 0 0
BITMAP
82
82
82
82
82
82
92
92
AA
AA
44
44
ENDCHAR
STARTCHAR uni1E89
ENCODING 7817
SWIDTH 692 0
DWIDTH 9 0
BBX 7 9 0 0
BITMAP
82
82
82
82
92
AA
AA
44
44
ENDCHAR
STARTCHAR uni1E8A
ENCODING 7818
SWIDTH 692 0
DWIDTH 9 0
BBX 7 12 0 0
BITMAP
82
82
44
44
28
10
10
28
28
44
82
82
ENDCHAR
STARTCHAR uni1E8B
ENCODING 7819
SWIDTH 692 0
DWIDTH 9 0
BBX 7 9 0 0
BITMAP
82
82
44
28
10
28
44
82
82
ENDCHAR
STARTCHAR uni1E8C
ENCODING 7820
SWIDTH 692 0
DWIDTH 9 0
BBX 7 12 0 0
BITMAP
82
82
44
44
28
10
10
28
28
44
82
82
ENDCHAR
STARTCHAR uni1E8D
ENCODING 7821
SWIDTH 692 0
DWIDTH 9 0
BBX 7 9 0 0
BITMAP
82
82
44
28
10
28
44
82
82
ENDCHAR
STARTCHAR uni1E8E
ENCODING 7822
SWIDTH 692 0
DWIDTH 9 0
BBX 7 12 0 0
BITMAP
82
82
44
44
28
28
10
10
10
10
10
10
ENDCHAR
STARTCHAR uni1E8F
ENCODING 7823
SWIDTH 692 0
DWIDTH 9 0
BBX 7 12 0 -3
BITMAP
82
82
44
44
28
28
10
10
20
20
40
40
ENDCHAR
STARTCHAR uni1E90
ENCODING 7824
SWIDTH 692 0
DWIDTH 9 0
BBX 6 12 0 0
BITMAP
FC
04
04
08
10
10
20
40
40
80
80
FC
ENDCHAR
STARTCHAR uni1E91
ENCODING 7825
SWIDTH 692 0
DWIDTH 9 0
BBX 6 9 0 0
BITMAP
FC
04
08
10
20
20
40
80
FC
ENDCHAR
STARTCHAR uni1E92
ENCODING 7826
SWIDTH 692 0
DWIDTH 9 0
BBX 6 12 0 0
BITMAP
FC
04
04
08
10
10
20
40
40
80
80
FC
ENDCHAR
STARTCHAR uni1E93
ENCODING 7827
SWIDTH 692 0
DWIDTH 9 0
BBX 6 9 0 0
BITMAP
FC
04
08
10
20
20
40
80
FC
ENDCHAR
STARTCHAR uni1E94
ENCODING 7828
SWIDTH 692 0
DWIDTH 9 0
BBX 6 12 0 0
BITMAP
FC
04
04
08
10
10
20
40
40
80
80
FC
ENDCHAR
STARTCHAR uni1E95
ENCODING 7829
SWIDTH 692 0
DWIDTH 9 0
BBX 6 9 0 0
BITMAP
FC
04
08
10
20
20
40
80
FC
ENDCHAR
STARTCHAR uni1E96
ENCODING 7830
SWIDTH 692 0
DWIDTH 9 0
BBX 6 12 0 0
BITMAP
80
80
80
B8
C4
84
84
84
84
84
84
84
ENDCHAR
STARTCHAR uni1E97
ENCODING 7831
SWIDTH 692 0
DWIDTH 9 0
BBX 6 12 0 0
BITMAP
20
20
20
FC
20
20
20
20
20
20
20
1C
ENDCHAR
STARTCHAR uni1E98
ENCODING 7832
SWIDTH 692 0
DWIDTH 9 0
BBX 7 9 0 0
BITMAP
82
82
82
82
92
AA
AA
44
44
ENDCHAR
STARTCHAR uni1E99
ENCODING 7833
SWIDTH 692 0
DWIDTH 9 0
BBX 7 12 0 -3
BITMAP
82
82
44
44
28
28
10
10
20
20
40
40
ENDCHAR
STARTCHAR uni1E9A
ENCODING 7834
SWIDTH 692 0
DWIDTH 9 0
BBX 6 9 0 0
BITMAP
78
84
04
04
7C
84
84
8C
74
ENDCHAR
STARTCHAR uni1E9B
ENCODING 7835
SWIDTH 692 0
DWIDTH 9 0
BBX 6 9 0 0
BITMAP
78
84
80
80
78
04
04
84
78
ENDCHAR
STARTCHAR uni1EA0
ENCODING 7840
SWIDTH 692 0
DWIDTH 9 0
BBX 6 12 0 0
BITMAP
30
48
48
48
84
84
84
FC
84
84
84
84
ENDCHAR
STARTCHAR uni1EA1
ENCODING 7841
SWIDTH 692 0
DWIDTH 9 0
BBX 6 9 0 0
BITMAP
78
84
04
04
7C
84
84
8C
74
ENDCHAR
STARTCHAR uni1EA2
ENCODING 7842
SWIDTH 692 0
DWIDTH 9 0
BBX 6 12 0 0
BITMAP
30
48
48
48
84
84
84
FC
84
84
84
84
ENDCHAR
STARTCHAR uni1EA3
ENCODING 7843
SWIDTH 692 0
DWIDTH 9 0
BBX 6 9 0 0
BITMAP
78
84
04
04
7C
84
84
8C
74
ENDCHAR
STARTCHAR uni1EA4
ENCODING 7844
SWIDTH 692 0
DWIDTH 9 0
BBX 6 15 0 0
BITMAP
30
48
00
30
48
48
48
84
84
84
FC
84
84
84
84
ENDCHAR
STARTCHAR uni1EA5
ENCODING 7845
SWIDTH 692 0
DWIDTH 9 0
BBX 6 12 0 0
BITMAP
30
48
00
78
84
04
04
7C
84
84
8C
74
ENDCHAR
STARTCHAR uni1EA6
ENCODING 7846
SWIDTH 692 0
DWIDTH 9 0
BBX 6 15 0 0
BITMAP
30
48
00
30
48
48
48
84
84
84
FC
84
84
84
84
ENDCHAR
STARTCHAR uni1EA7
ENCODING 7847
SWIDTH 692 0
DWIDTH 9 0
BBX 6 12 0 0
BITMAP
30
48
00
78
84
04
04
7C
84
84
8C
74
ENDCHAR
STARTCHAR uni1EA8
ENCODING 7848
SWIDTH 692 0
DWIDTH 9 0
BBX 6 15 0 0
BITMAP
30
48
00
30
48
48
48
84
84
84
FC
84
84
84
84
ENDCHAR
STARTCHAR uni1EA9
ENCODING 7849
SWIDTH 692 0
DWIDTH 9 0
BBX 6 12 0 0
BITMAP
30
48
00
78
84
04
04
7C
84
84
8C
74
ENDCHAR
STARTCHAR uni1EAA
ENCODING 7850
SWIDTH 692 0
DWIDTH 9 0
BBX 6 15 0 0
BITMAP
30
48
00
30
48
48
48
84
84
84
FC
84
84
84
84
ENDCHAR
STARTCHAR uni1EAB
ENCODING 7851
SWIDTH 692 0
DWIDTH 9 0
BBX 6 12 0 0
BITMAP
30
48
00
78
84
04
04
7C
84
84
8C
74
ENDCHAR
STARTCHAR uni1EAC
ENCODING 7852
SWIDTH 692 0
DWIDTH 9 0
BBX 6 15 0 0
BITMAP
30
48
00
30
48
48
48
84
84
84
FC
84
84
84
84
ENDCHAR
STARTCHAR uni1EAD
ENCODING 7853
SWIDTH 692 0
DWIDTH 9 0
BBX 6 12 0 0
BITMAP
30
48
00
78
84
04
04
7C
84
84
8C
74
ENDCHAR
STARTCHAR uni1EAE
ENCODING 7854
SWIDTH 692 0
DWIDTH 9 0
BBX 6 15 0 0
BITMAP
48
30
00
30
48
48
48
84
84
84
FC
84
84
84
84
ENDCHAR
STARTCHAR uni1EAF
ENCODING 7855
SWIDTH 692 0
DWIDTH 9 0
BBX 6 12 0 0
BITMAP
48
30
00
78
84
04
04
7C
84
84
8C
74
ENDCHAR
STARTCHAR uni1EB0
ENCODING 7856
SWIDTH 692 0
DWIDTH 9 0
BBX 6 15 0 0
BITMAP
48
30
00
30
48
48
48
84
84
84
FC
84
84
84
84
ENDCHAR
STARTCHAR uni1EB1
ENCODING 7857
SWIDTH 692 0
DWIDTH 9 0
BBX 6 12 0 0
BITMAP
48
30
00
78
84
04
04
7C
84
84
8C
74
ENDCHAR
STARTCHAR uni1EB2
ENCODING 7858
SWIDTH 692 0
DWIDTH 9 0
BBX 6 15 0 0
BITMAP
48
30
00
30
48
48
48
84
84
84
FC
84
84
84
84
ENDCHAR
STARTCHAR uni1EB3
ENCODING 7859
SWIDTH 692 0
DWIDTH 9 0
BBX 6 12 0 0
BITMAP
48
30
00
78
84
04
04
7C
84
84
8C
74
ENDCHAR
STARTCHAR uni1EB4
ENCODING 7860
SWIDTH 692 0
DWIDTH 9 0
BBX 6 15 0 0
BITMAP
48
30
00
30
48
48
48
84
84
84
FC
84
84
84
84
ENDCHAR
STARTCHAR uni1EB5
ENCODING 7861
SWIDTH 692 0
DWIDTH 9 0
BBX 6 12 0 0
BITMAP
48
30
00
78
84
04
04
7C
84
84
8C
74
ENDCHAR
STARTCHAR uni1EB6
ENCODING 7862
SWIDTH 692 0
DWIDTH 9 0
BBX 6 15 0 0
BITMAP
48
30
00
30
48
48
48
84
84
84
FC
84
84
84
84
ENDCHAR
STARTCHAR uni1EB7
ENCODING 7863
SWIDTH 692 0
DWIDTH 9 0
BBX 6 12 0 0
BITMAP
48
30
00
78
84
04
04
7C
84
84
8C
74
ENDCHAR
STARTCHAR uni1EB8
ENCODING 7864
SWIDTH 692 0
DWIDTH 9 0
BBX 5 12 0 0
BITMAP
F8
80
80
80
80
F0
80
80
80
80
80
F8
ENDCHAR
STARTCHAR uni1EB9
ENCODING 7865
SWIDTH 692 0
DWIDTH 9 0
BBX 6 9 0 0
BITMAP
78
84
84
84
FC
80
80
84
78
ENDCHAR
STARTCHAR uni1EBA
ENCODING 7866
SWIDTH 692 0
DWIDTH 9 0
BBX 5 12 0 0
BITMAP
F8
80
80
80
80
F0
80
80
80
80
80
F8
ENDCHAR
STARTCHAR uni1EBB
ENCODING 7867
SWIDTH 692 0
DWIDTH 9 0
BBX 6 9 0 0
BITMAP
78
84
84
84
FC
80
80
84
78
ENDCHAR
STARTCHAR uni1EBC
ENCODING 7868
SWIDTH 692 0
DWIDTH 9 0
BBX 5 12 0 0
BITMAP
F8
80
80
80
80
F0
80
80
80
80
80
F8
ENDCHAR
STARTCHAR uni1EBD
ENCODING 7869
SWIDTH 692 0
DWIDTH 9 0
BBX 6 9 0 0
BITMAP
78
84
84
84
FC
80
80
84
78
ENDCHAR
STARTCHAR uni1EBE
ENCODING 7870
SWIDTH 692 0
DWIDTH 9 0
BBX 5 12 0 0
BITMAP
F8
80
80
80
80
F0
80
80
80
80
80
F8
ENDCHAR
STARTCHAR uni1EBF
ENCODING 7871
SWIDTH 692 0
DWIDTH 9 0
BBX 6 9 0 0
BITMAP
78
84
84
84
FC
80
80
84
78
ENDCHAR
STARTCHAR uni1EC0
ENCODING 7872
SWIDTH 692 0
DWIDTH 9 0
BBX 5 12 0 0
BITMAP
F8
80
80
80
80
F0
80
80
80
80
80
F8
ENDCHAR
STARTCHAR uni1EC1
ENCODING 7873
SWIDTH 692 0
DWIDTH 9 0
BBX 6 9 0 0
BITMAP
78
84
84
84
FC
80
80
84
78
ENDCHAR
STARTCHAR uni1EC2
ENCODING 7874
SWIDTH 692 0
DWIDTH 9 0
BBX 5 12 0 0
BITMAP
F8
80
80
80
80
F0
80
80
80
80
80
F8
ENDCHAR
STARTCHAR uni1EC3
ENCODING 7875
SWIDTH 692 0
DWIDTH 9 0
BBX 6 9 0 0
BITMAP
78
84
84
84
FC
80
80
84
78
ENDCHAR
STARTCHAR uni1EC4
ENCODING 7876
SWIDTH 692 0
DWIDTH 9 0
BBX 5 12 0 0
BITMAP
F8
80
80
80
80
F0
80
80
80
80
80
F8
ENDCHAR
STARTCHAR uni1EC5
ENCODING 7877
SWIDTH 692 0
DWIDTH 9 0
BBX 6 9 0 0
BITMAP
78
84
84
84
FC
80
80
84
78
ENDCHAR
STARTCHAR uni1EC6
ENCODING 7878
SWIDTH 692 0
DWIDTH 9 0
BBX 5 12 0 0
BITMAP
F8
80
80
80
80
F0
80
80
80
80
80
F8
ENDCHAR
STARTCHAR uni1EC7
ENCODING 7879
SWIDTH 692 0
DWIDTH 9 0
BBX 6 9 0 0
BITMAP
78
84
84
84
FC
80
80
84
78
ENDCHAR
STARTCHAR uni1EC8
ENCODING 7880
SWIDTH 692 0
DWIDTH 9 0
BBX 5 12 0 0
BITMAP
F8
20
20
20
20
20
20
20
20
20
20
F8
ENDCHAR
STARTCHAR uni1EC9
ENCODING 7881
SWIDTH 692 0
DWIDTH 9 0
BBX 5 12 1 0
BITMAP
20
00
00
E0
20
20
20
20
20
20
20
F8
ENDCHAR
STARTCHAR uni1ECA
ENCODING 7882
SWIDTH 692 0
DWIDTH 9 0
BBX 5 12 0 0
BITMAP
F8
20
20
20
20
20
20
20
20
20
20
F8
ENDCHAR
STARTCHAR uni1ECB
ENCODING 7883
SWIDTH 692 0
DWIDTH 9 0
BBX 5 12 1 0
BITMAP
20
00
00
E0
20
20
20
20
20
20
20
F8
ENDCHAR
STARTCHAR uni1ECC
ENCODING 7884
SWIDTH 692 0
DWIDTH 9 0
BBX 6 12 0 0
BITMAP
78
84
84
84
84
84
84
84
84
84
84
78
ENDCHAR
STARTCHAR uni1ECD
ENCODING 7885
SWIDTH 692 0
DWIDTH 9 0
BBX 6 9 0 0
BITMAP
78
84
84
84
84
84
84
84
78
ENDCHAR
STARTCHAR uni1ECE
ENCODING 7886
SWIDTH 692 0
DWIDTH 9 0
BBX 6 12 0 0
BITMAP
78
84
84
84
84
84
84
84
84
84
84
78
ENDCHAR
STARTCHAR uni1ECF
ENCODING 7887
SWIDTH 692 0
DWIDTH 9 0
BBX 6 9 0 0
BITMAP
78
84
84
84
84
84
84
84
78
ENDCHAR
STARTCHAR uni1ED0
ENCODING 7888
SWIDTH 692 0
DWIDTH 9 0
BBX 6 15 0 0
BITMAP
30
48
00
78
84
84
84
84
84
84
84
84
84
84
78
ENDCHAR
STARTCHAR uni1ED1
ENCODING 7889
SWIDTH 692 0
DWIDTH 9 0
BBX 6 12 0 0
BITMAP
30
48
00
78
84
84
84
84
84
84
84
78
ENDCHAR
STARTCHAR uni1ED2
ENCODING 7890
SWIDTH 692 0
DWIDTH 9 0
BBX 6 15 0 0
BITMAP
30
48
00
78
84
84
84
84
84
84
84
84
84
84
78
ENDCHAR
STARTCHAR uni1ED3
ENCODING 7891
SWIDTH 692 0
DWIDTH 9 0
BBX 6 12 0 0
BITMAP
30
48
00
78
84
84
84
84
84
84
84
78
ENDCHAR
STARTCHAR uni1ED4
ENCODING 7892
SWIDTH 692 0
DWIDTH 9 0
BBX 6 15 0 0
BITMAP
30
48
00
78
84
84
84
84
84
84
84
84
84
84
78
ENDCHAR
STARTCHAR uni1ED5
ENCODING 7893
SWIDTH 692 0
DWIDTH 9 0
BBX 6 12 0 0
BITMAP
30
48
00
78
84
84
84
84
84
84
84
78
ENDCHAR
STARTCHAR uni1ED6
ENCODING 7894
SWIDTH 692 0
DWIDTH 9 0
BBX 6 15 0 0
BITMAP
30
48
00
78
84
84
84
84
84
84
84
84
84
84
78
ENDCHAR
STARTCHAR uni1ED7
ENCODING 7895
SWIDTH 692 0
DWIDTH 9 0
BBX 6 12 0 0
BITMAP
30
48
00
78
84
84
84
84
84
84
84
78
ENDCHAR
STARTCHAR uni1ED8
ENCODING 7896
SWIDTH 692 0
DWIDTH 9 0
BBX 6 15 0 0
BITMAP
30
48
00
78
84
84
84
84
84
84
84
84
84
84
78
ENDCHAR
STARTCHAR uni1ED9
ENCODING 7897
SWIDTH 692 0
DWIDTH 9 0
BBX 6 12 0 0
BITMAP
30
48
00
78
84
84
84
84
84
84
84
78
ENDCHAR
STARTCHAR uni1EDA
ENCODING 7898
SWIDTH 692 0
DWIDTH 9 0
BBX 6 12 0 0
BITMAP
78
84
84
84
84
84
84
84
84
84
84
78
ENDCHAR
STARTCHAR uni1EDB
ENCODING 7899
SWIDTH 692 0
DWIDTH 9 0
BBX 6 9 0 0
BITMAP
78
84
84
84
84
84
84
84
78
ENDCHAR
STARTCHAR uni1EDC
ENCODING 7900
SWIDTH 692 0
DWIDTH 9 0
BBX 6 12 0 0
BITMAP
78
84
84
84
84
84
84
84
84
84
84
78
ENDCHAR
STARTCHAR uni1EDD
ENCODING 7901
SWIDTH 692 0
DWIDTH 9 0
BBX 6 9 0 0
BITMAP
78
84
84
84
84
84
84
84
78
ENDCHAR
STARTCHAR uni1EDE
ENCODING 7902
SWIDTH 692 0
DWIDTH 9 0
BBX 6 12 0 0
BITMAP
78
84
84
84
84
84
84
84
84
84
84
78
ENDCHAR
STARTCHAR uni1EDF
ENCODING 7903
SWIDTH 692 0
DWIDTH 9 0
BBX 6 9 0 0
BITMAP
78
84
84
84
84
84
84
84
78
ENDCHAR
STARTCHAR uni1EE0
ENCODING 7904
SWIDTH 692 0
DWIDTH 9 0
BBX 6 12 0 0
BITMAP
78
84
84
84
84
84
84
84
84
84
84
78
ENDCHAR
STARTCHAR uni1EE1
ENCODING 7905
SWIDTH 692 0
DWIDTH 9 0
BBX 6 9 0 0
BITMAP
78
84
84
84
84
84
84
84
78
ENDCHAR
STARTCHAR uni1EE2
ENCODING 7906
SWIDTH 692 0
DWIDTH 9 0
BBX 6 12 0 0
BITMAP
78
84
84
84
84
84
84
84
84
84
84
78
ENDCHAR
STARTCHAR uni1EE3
ENCODING 7907
SWIDTH 692 0
DWIDTH 9 0
BBX 6 9 0 0
BITMAP
78
84
84
84
84
84
84
84
78
ENDCHAR
STARTCHAR uni1EE4
ENCODING 7908
SWIDTH 692 0
DWIDTH 9 0
BBX 6 12 0 0
BITMAP
84
84
84
84
84
84
84
84
84
84
84
78
ENDCHAR
STARTCHAR uni1EE5
ENCODING 7909
SWIDTH 692 0
DWIDTH 9 0
BBX 6 9 0 0
BITMAP
84
84
84
84
84
84
84
8C
74
ENDCHAR
STARTCHAR uni1EE6
ENCODING 7910
SWIDTH 692 0
DWIDTH 9 0
BBX 6 12 0 0
BITMAP
84
84
84
84
84
84
84
84
84
84
84
78
ENDCHAR
STARTCHAR uni1EE7
ENCODING 7911
SWIDTH 692 0
DWIDTH 9 0
BBX 6 9 0 0
BITMAP
84
84
84
84
84
84
84
8C
74
ENDCHAR
STARTCHAR uni1EE8
ENCODING 7912
SWIDTH 692 0
DWIDTH 9 0
BBX 6 12 0 0
BITMAP
84
84
84
84
84
84
84
84
84
84
84
78
ENDCHAR
STARTCHAR uni1EE9
ENCODING 7913
SWIDTH 692 0
DWIDTH 9 0
BBX 6 9 0 0
BITMAP
84
84
84
84
84
84
84
8C
74
ENDCHAR
STARTCHAR uni1EEA
ENCODING 7914
SWIDTH 692 0
DWIDTH 9 0
BBX 6 12 0 0
BITMAP
84
84
84
84
84
84
84
84
84
84
84
78
ENDCHAR
STARTCHAR uni1EEB
ENCODING 7915
SWIDTH 692 0
DWIDTH 9 0
BBX 6 9 0 0
BITMAP
84
84
84
84
84
84
84
8C
74
ENDCHAR
STARTCHAR uni1EEC
ENCODING 7916
SWIDTH 692 0
DWIDTH 9 0
BBX 6 12 0 0
BITMAP
84
84
84
84
84
84
84
84
84
84
84
78
ENDCHAR
STARTCHAR uni1EED
ENCODING 7917
SWIDTH 692 0
DWIDTH 9 0
BBX 6 9 0 0
BITMAP
84
84
84
84
84
84
84
8C
74
ENDCHAR
STARTCHAR uni1EEE
ENCODING 7918
SWIDTH 692 0
DWIDTH 9 0
BBX 6 12 0 0
BITMAP
84
84
84
84
84
84
84
84
84
84
84
78
ENDCHAR
STARTCHAR uni1EEF
ENCODING 7919
SWIDTH 692 0
DWIDTH 9 0
BBX 6 9 0 0
BITMAP
84
84
84
84
84
84
84
8C
74
ENDCHAR
STARTCHAR uni1EF0
ENCODING 7920
SWIDTH 692 0
DWIDTH 9 0
BBX 6 12 0 0
BITMAP
84
84
84
84
84
84
84
84
84
84
84
78
ENDCHAR
STARTCHAR uni1EF1
ENCODING 7921
SWIDTH 692 0
DWIDTH 9 0
BBX 6 9 0 0
BITMAP
84
84
84
84
84
84
84
8C
74
ENDCHAR
STARTCHAR Ygrave
ENCODING 7922
SWIDTH 692 0
DWIDTH 9 0
BBX 7 12 0 0
BITMAP
82
82
44
44
28
28
10
10
10
10
10
10
ENDCHAR
STARTCHAR ygrave
ENCODING 7923
SWIDTH 692 0
DWIDTH 9 0
BBX 7 12 0 -3
BITMAP
82
82
44
44
28
28
10
10
20
20
40
40
ENDCHAR
STARTCHAR uni1EF4
ENCODING 7924
SWIDTH 692 0
DWIDTH 9 0
BBX 7 12 0 0
BITMAP
82
82
44
44
28
28
10
10
10
10
10
10
ENDCHAR
STARTCHAR uni1EF5
ENCODING 7925
SWIDTH 692 0
DWIDTH 9 0
BBX 7 12 0 -3
BITMAP
82
82
44
44
28
28
10
10
20
20
40
40
ENDCHAR
STARTCHAR uni1EF6
ENCODING 7926
SWIDTH 692 0
DWIDTH 9 0
BBX 7 12 0 0
BITMAP
82
82
44
44
28
28
10
10
10
10
10
10
ENDCHAR
STARTCHAR uni1EF7
ENCODING 7927
SWIDTH 692 0
DWIDTH 9 0
BBX 7 12 0 -3
BITMAP
82
82
44
44
28
28
10
10
20
20
40
40
ENDCHAR
STARTCHAR uni1EF8
ENCODING 7928
SWIDTH 692 0
DWIDTH 9 0
BBX 7 12 0 0
BITMAP
82
82
44
44
28
28
10
10
10
10
10
10
ENDCHAR
STARTCHAR uni1EF9
ENCODING 7929
SWIDTH 692 0
DWIDTH 9 0
BBX 7 12 0 -3
BITMAP
82
82
44
44
28
28
10
10
20
20
40
40
ENDCHAR
STARTCHAR uni1F00
ENCODING 7936
SWIDTH 692 0
DWIDTH 9 0
BBX 6 9 0 0
BITMAP
78
84
04
04
7C
84
84
8C
74
ENDCHAR
STARTCHAR uni1F01
ENCODING 7937
SWIDTH 692 0
DWIDTH 9 0
BBX 6 9 0 0
BITMAP
78
84
04
04
7C
84
84
8C
74
ENDCHAR
STARTCHAR uni1F02
ENCODING 7938
SWIDTH 692 0
DWIDTH 9 0
BBX 6 9 0 0
BITMAP
78
84
04
04
7C
84
84
8C
74
ENDCHAR
STARTCHAR uni1F03
ENCODING 7939
SWIDTH 692 0
DWIDTH 9 0
BBX 6 9 0 0
BITMAP
78
84
04
04
7C
84
84
8C
74
ENDCHAR
STARTCHAR uni1F04
ENCODING 7940
SWIDTH 692 0
DWIDTH 9 0
BBX 6 9 0 0
BITMAP
78
84
04
04
7C
84
84
8C
74
ENDCHAR
STARTCHAR uni1F05
ENCODING 7941
SWIDTH 692 0
DWIDTH 9 0
BBX 6 9 0 0
BITMAP
78
84
04
04
7C
84
84
8C
74
ENDCHAR
STARTCHAR uni1F06
ENCODING 7942
SWIDTH 692 0
DWIDTH 9 0
BBX 6 9 0 0
BITMAP
78
84
04
04
7C
84
84
8C
74
ENDCHAR
STARTCHAR uni1F07
ENCODING 7943
SWIDTH 692 0
DWIDTH 9 0
BBX 6 9 0 0
BITMAP
78
84
04
04
7C
84
84
8C
74
ENDCHAR
STARTCHAR uni1F08
ENCODING 7944
SWIDTH 692 0
DWIDTH 9 0
BBX 6 12 0 0
BITMAP
30
48
48
48
84
84
84
FC
84
84
84
84
ENDCHAR
STARTCHAR uni1F09
ENCODING 7945
SWIDTH 692 0
DWIDTH 9 0
BBX 6 12 0 0
BITMAP
30
48
48
48
84
84
84
FC
84
84
84
84
ENDCHAR
STARTCHAR uni1F0A
ENCODING 7946
SWIDTH 692 0
DWIDTH 9 0
BBX 6 12 0 0
BITMAP
30
48
48
48
84
84
84
FC
84
84
84
84
ENDCHAR
STARTCHAR uni1F0B
ENCODING 7947
SWIDTH 692 0
DWIDTH 9 0
BBX 6 12 0 0
BITMAP
30
48
48
48
84
84
84
FC
84
84
84
84
ENDCHAR
STARTCHAR uni1F0C
ENCODING 7948
SWIDTH 692 0
DWIDTH 9 0
BBX 6 12 0 0
BITMAP
30
48
48
48
84
84
84
FC
84
84
84
84
ENDCHAR
STARTCHAR uni1F0D
ENCODING 7949
SWIDTH 692 0
DWIDTH 9 0
BBX 6 12 0 0
BITMAP
30
48
48
48
84
84
84
FC
84
84
84
84
ENDCHAR
STARTCHAR uni1F0E
ENCODING 7950
SWIDTH 692 0
DWIDTH 9 0
BBX 6 12 0 0
BITMAP
30
48
48
48
84
84
84
FC
84
84
84
84
ENDCHAR
STARTCHAR uni1F0F
ENCODING 7951
SWIDTH 692 0
DWIDTH 9 0
BBX 6 12 0 0
BITMAP
30
48
48
48
84
84
84
FC
84
84
84
84
ENDCHAR
STARTCHAR uni1F10
ENCODING 7952
SWIDTH 692 0
DWIDTH 9 0
BBX 6 9 0 0
BITMAP
78
84
84
84
FC
80
80
84
78
ENDCHAR
STARTCHAR uni1F11
ENCODING 7953
SWIDTH 692 0
DWIDTH 9 0
BBX 6 9 0 0
BITMAP
78
84
84
84
FC
80
80
84
78
ENDCHAR
STARTCHAR uni1F12
ENCODING 7954
SWIDTH 692 0
DWIDTH 9 0
BBX 6 9 0 0
BITMAP
78
84
84
84
FC
80
80
84
78
ENDCHAR
STARTCHAR uni1F13
ENCODING 7955
SWIDTH 692 0
DWIDTH 9 0
BBX 6 9 0 0
BITMAP
78
84
84
84
FC
80
80
84
78
ENDCHAR
STARTCHAR uni1F14
ENCODING 7956
SWIDTH 692 0
DWIDTH 9 0
BBX 6 9 0 0
BITMAP
78
84
84
84
FC
80
80
84
78
ENDCHAR
STARTCHAR uni1F15
ENCODING 7957
SWIDTH 692 0
DWIDTH 9 0
BBX 6 9 0 0
BITMAP
78
84
84
84
FC
80
80
84
78
ENDCHAR
STARTCHAR uni1F18
ENCODING 7960
SWIDTH 692 0
DWIDTH 9 0
BBX 5 12 0 0
BITMAP
F8
80
80
80
80
F0
80
80
80
80
80
F8
ENDCHAR
STARTCHAR uni1F19
ENCODING 7961
SWIDTH 692 0
DWIDTH 9 0
BBX 5 12 0 0
BITMAP
F8
80
80
80
80
F0
80
80
80
80
80
F8
ENDCHAR
STARTCHAR uni1F1A
ENCODING 7962
SWIDTH 692 0
DWIDTH 9 0
BBX 5 12 0 0
BITMAP
F8
80
80
80
80
F0
80
80
80
80
80
F8
ENDCHAR
STARTCHAR uni1F1B
ENCODING 7963
SWIDTH 692 0
DWIDTH 9 0
BBX 5 12 0 0
BITMAP
F8
80
80
80
80
F0
80
80
80
80
80
F8
ENDCHAR
STARTCHAR uni1F1C
ENCODING 7964
SWIDTH 692 0
DWIDTH 9 0
BBX 5 12 0 0
BITMAP
F8
80
80
80
80
F0
80
80
80
80
80
F8
ENDCHAR
STARTCHAR uni1F1D
ENCODING 7965
SWIDTH 692 0
DWIDTH 9 0
BBX 5 12 0 0
BITMAP
F8
80
80
80
80
F0
80
80
80
80
80
F8
ENDCHAR
STARTCHAR uni1F20
ENCODING 7968
SWIDTH 692 0
DWIDTH 9 0
BBX 6 9 0 0
BITMAP
78
84
84
84
FC
80
80
84
78
ENDCHAR
STARTCHAR uni1F21
ENCODING 7969
SWIDTH 692 0
DWIDTH 9 0
BBX 6 9 0 0
BITMAP
78
84
84
84
FC
80
80
84
78
ENDCHAR
STARTCHAR uni1F22
ENCODING 7970
SWIDTH 692 0
DWIDTH 9 0
BBX 6 9 0 0
BITMAP
78
84
84
84
FC
80
80
84
78
ENDCHAR
STARTCHAR uni1F23
ENCODING 7971
SWIDTH 692 0
DWIDTH 9 0
BBX 6 9 0 0
BITMAP
78
84
84
84
FC
80
80
84
78
ENDCHAR
STARTCHAR uni1F24
ENCODING 7972
SWIDTH 692 0
DWIDTH 9 0
BBX 6 9 0 0
BITMAP
78
84
84
84
FC
80
80
84
78
ENDCHAR
STARTCHAR uni1F25
ENCODING 7973
SWIDTH 692 0
DWIDTH 9 0
BBX 6 9 0 0
BITMAP
78
84
84
84
FC
80
80
84
78
ENDCHAR
STARTCHAR uni1F26
ENCODING 7974
SWIDTH 692 0
DWIDTH 9 0
BBX 6 9 0 0
BITMAP
78
84
84
84
FC
80
80
84
78
ENDCHAR
STARTCHAR uni1F27
ENCODING 7975
SWIDTH 692 0
DWIDTH 9 0
BBX 6 9 0 0
BITMAP
78
84
84
84
FC
80
80
84
78
ENDCHAR
STARTCHAR uni1F28
ENCODING 7976
SWIDTH 692 0
DWIDTH 9 0
BBX 5 12 0 0
BITMAP
F8
80
80
80
80
F0
80
80
80
80
80
F8
ENDCHAR
STARTCHAR uni1F29
ENCODING 7977
SWIDTH 692 0
DWIDTH 9 0
BBX 5 12 0 0
BITMAP
F8
80
80
80
80
F0
80
80
80
80
80
F8
ENDCHAR
STARTCHAR uni1F2A
ENCODING 7978
SWIDTH 692 0
DWIDTH 9 0
BBX 5 12 0 0
BITMAP
F8
80
80
80
80
F0
80
80
80
80
80
F8
ENDCHAR
STARTCHAR uni1F2B
ENCODING 7979
SWIDTH 692 0
DWIDTH 9 0
BBX 5 12 0 0
BITMAP
F8
80
80
80
80
F0
80
80
80
80
80
F8
ENDCHAR
STARTCHAR uni1F2C
ENCODING 7980
SWIDTH 692 0
DWIDTH 9 0
BBX 5 12 0 0
BITMAP
F8
80
80
80
80
F0
80
80
80
80
80
F8
ENDCHAR
STARTCHAR uni1F2D
ENCODING 7981
SWIDTH 692 0
DWIDTH 9 0
BBX 5 12 0 0
BITMAP
F8
80
80
80
80
F0
80
80
80
80
80
F8
ENDCHAR
STARTCHAR uni1F2E
ENCODING 7982
SWIDTH 692 0
DWIDTH 9 0
BBX 5 12 0 0
BITMAP
F8
80
80
80
80
F0
80
80
80
80
80
F8
ENDCHAR
STARTCHAR uni1F2F
ENCODING 7983
SWIDTH 692 0
DWIDTH 9 0
BBX 5 12 0 0
BITMAP
F8
80
80
80
80
F0
80
80
80
80
80
F8
ENDCHAR
STARTCHAR uni1F30
ENCODING 7984
SWIDTH 692 0
DWIDTH 9 0
BBX 5 12 1 0
BITMAP
20
00
00
E0
20
20
20
20
20
20
20
F8
ENDCHAR
STARTCHAR uni1F31
ENCODING 7985
SWIDTH 692 0
DWIDTH 9 0
BBX 5 12 1 0
BITMAP
20
00
00
E0
20
20
20
20
20
20
20
F8
ENDCHAR
STARTCHAR uni1F32
ENCODING 7986
SWIDTH 692 0
DWIDTH 9 0
BBX 5 12 1 0
BITMAP
20
00
00
E0
20
20
20
20
20
20
20
F8
ENDCHAR
STARTCHAR uni1F33
ENCODING 7987
SWIDTH 692 0
DWIDTH 9 0
BBX 5 12 1 0
BITMAP
20
00
00
E0
20
20
20
20
20
20
20
F8
ENDCHAR
STARTCHAR uni1F34
ENCODING 7988
SWIDTH 692 0
DWIDTH 9 0
BBX 5 12 1 0
BITMAP
20
00
00
E0
20
20
20
20
20
20
20
F8
ENDCHAR
STARTCHAR uni1F35
ENCODING 7989
SWIDTH 692 0
DWIDTH 9 0
BBX 5 12 1 0
BITMAP
20
00
00
E0
20
20
20
20
20
20
20
F8
ENDCHAR
STARTCHAR uni1F36
ENCODING 7990
SWIDTH 692 0
DWIDTH 9 0
BBX 5 12 1 0
BITMAP
20
00
00
E0
20
20
20
20
20
20
20
F8
ENDCHAR
STARTCHAR uni1F37
ENCODING 7991
SWIDTH 692 0
DWIDTH 9 0
BBX 5 12 1 0
BITMAP
20
00
00
E0
20
20
20
20
20
20
20
F8
ENDCHAR
STARTCHAR uni1F38
ENCODING 7992
SWIDTH 692 0
DWIDTH 9 0
BBX 5 12 0 0
BITMAP
F8
20
20
20
20
20
20
20
20
20
20
F8
ENDCHAR
STARTCHAR uni1F39
ENCODING 7993
SWIDTH 692 0
DWIDTH 9 0
BBX 5 12 0 0
BITMAP
F8
20
20
20
20
20
20
20
20
20
20
F8
ENDCHAR
STARTCHAR uni1F3A
ENCODING 7994
SWIDTH 692 0
DWIDTH 9 0
BBX 5 12 0 0
BITMAP
F8
20
20
20
20
20
20
20
20
20
20
F8
ENDCHAR
STARTCHAR uni1F3B
ENCODING 7995
SWIDTH 692 0
DWIDTH 9 0
BBX 5 12 0 0
BITMAP
F8
20
20
20
20
20
20
20
20
20
20
F8
ENDCHAR
STARTCHAR uni1F3C
ENCODING 7996
SWIDTH 692 0
DWIDTH 9 0
BBX 5 12 0 0
BITMAP
F8
20
20
20
20
20
20
20
20
20
20
F8
ENDCHAR
STARTCHAR uni1F3D
ENCODING 7997
SWIDTH 692 0
DWIDTH 9 0
BBX 5 12 0 0
BITMAP
F8
20
20
20
20
20
20
20
20
20
20
F8
ENDCHAR
STARTCHAR uni1F3E
ENCODING 7998
SWIDTH 692 0
DWIDTH 9 0
BBX 5 12 0 0
BITMAP
F8
20
20
20
20
20
20
20
20
20
20
F8
ENDCHAR
STARTCHAR uni1F3F
ENCODING 7999
SWIDTH 692 0
DWIDTH 9 0
BBX 5 12 0 0
BITMAP
F8
20
20
20
20
20
20
20
20
20
20
F8
ENDCHAR
STARTCHAR uni1F40
ENCODING 8000
SWIDTH 692 0
DWIDTH 9 0
BBX 6 9 0 0
BITMAP
78
84
84
84
84
84
84
84
78
ENDCHAR
STARTCHAR uni1F41
ENCODING 8001
SWIDTH 692 0
DWIDTH 9 0
BBX 6 9 0 0
BITMAP
78
84
84
84
84
84
84
84
78
ENDCHAR
STARTCHAR uni1F42
ENCODING 8002
SWIDTH 692 0
DWIDTH 9 0
BBX 6 9 0 0
BITMAP
78
84
84
84
84
84
84
84
78
ENDCHAR
STARTCHAR uni1F43
ENCODING 8003
SWIDTH 692 0
DWIDTH 9 0
BBX 6 9 0 0
BITMAP
78
84
84
84
84
84
84
84
78
ENDCHAR
STARTCHAR uni1F44
ENCODING 8004
SWIDTH 692 0
DWIDTH 9 0
BBX 6 9 0 0
BITMAP
78
84
84
84
84
84
84
84
78
ENDCHAR
STARTCHAR uni1F45
ENCODING 8005
SWIDTH 692 0
DWIDTH 9 0
BBX 6 9 0 0
BITMAP
78
84
84
84
84
84
84
84
78
ENDCHAR
STARTCHAR uni1F48
ENCODING 8008
SWIDTH 692 0
DWIDTH 9 0
BBX 6 12 0 0
BITMAP
78
84
84
84
84
84
84
84
84
84
84
78
ENDCHAR
STARTCHAR uni1F49
ENCODING 8009
SWIDTH 692 0
DWIDTH 9 0
BBX 6 12 0 0
BITMAP
78
84
84
84
84
84
84
84
84
84
84
78
ENDCHAR
STARTCHAR uni1F4A
ENCODING 8010
SWIDTH 692 0
DWIDTH 9 0
BBX 6 12 0 0
BITMAP
78
84
84
84
84
84
84
84
84
84
84
78
ENDCHAR
STARTCHAR uni1F4B
ENCODING 8011
SWIDTH 692 0
DWIDTH 9 0
BBX 6 12 0 0
BITMAP
78
84
84
84
84
84
84
84
84
84
84
78
ENDCHAR
STARTCHAR uni1F4C
ENCODING 8012
SWIDTH 692 0
DWIDTH 9 0
BBX 6 12 0 0
BITMAP
78
84
84
84
84
84
84
84
84
84
84
78
ENDCHAR
STARTCHAR uni1F4D
ENCODING 8013
SWIDTH 692 0
DWIDTH 9 0
BBX 6 12 0 0
BITMAP
78
84
84
84
84
84
84
84
84
84
84
78
ENDCHAR
STARTCHAR uni1F50
ENCODING 8016
SWIDTH 692 0
DWIDTH 9 0
BBX 6 9 0 0
BITMAP
84
84
84
84
84
84
84
8C
74
ENDCHAR
STARTCHAR uni1F51
ENCODING 8017
SWIDTH 692 0
DWIDTH 9 0
BBX 6 9 0 0
BITMAP
84
84
84
84
84
84
84
8C
74
ENDCHAR
STARTCHAR uni1F52
ENCODING 8018
SWIDTH 692 0
DWIDTH 9 0
BBX 6 9 0 0
BITMAP
84
84
84
84
84
84
84
8C
74
ENDCHAR
STARTCHAR uni1F53
ENCODING 8019
SWIDTH 692 0
DWIDTH 9 0
BBX 6 9 0 0
BITMAP
84
84
84
84
84
84
84
8C
74
ENDCHAR
STARTCHAR uni1F54
ENCODING 8020
SWIDTH 692 0
DWIDTH 9 0
BBX 6 9 0 0
BITMAP
84
84
84
84
84
84
84
8C
74
ENDCHAR
STARTCHAR uni1F55
ENCODING 8021
SWIDTH 692 0
DWIDTH 9 0
BBX 6 9 0 0
BITMAP
84
84
84
84
84
84
84
8C
74
ENDCHAR
STARTCHAR uni1F56
ENCODING 8022
SWIDTH 692 0
DWIDTH 9 0
BBX 6 9 0 0
BITMAP
84
84
84
84
84
84
84
8C
74
ENDCHAR
STARTCHAR uni1F57
ENCODING 8023
SWIDTH 692 0
DWIDTH 9 0
BBX 6 9 0 0
BITMAP
84
84
84
84
84
84
84
8C
74
ENDCHAR
STARTCHAR uni1F59
ENCODING 8025
SWIDTH 692 0
DWIDTH 9 0
BBX 6 12 0 0
BITMAP
84
84
84
84
84
84
84
84
84
84
84
78
ENDCHAR
STARTCHAR uni1F5B
ENCODING 8027
SWIDTH 692 0
DWIDTH 9 0
BBX 6 12 0 0
BITMAP
84
84
84
84
84
84
84
84
84
84
84
78
ENDCHAR
STARTCHAR uni1F5D
ENCODING 8029
SWIDTH 692 0
DWIDTH 9 0
BBX 6 12 0 0
BITMAP
84
84
84
84
84
84
84
84
84
84
84
78
ENDCHAR
STARTCHAR uni1F5F
ENCODING 8031
SWIDTH 692 0
DWIDTH 9 0
BBX 6 12 0 0
BITMAP
84
84
84
84
84
84
84
84
84
84
84
78
ENDCHAR
STARTCHAR uni1F60
ENCODING 8032
SWIDTH 692 0
DWIDTH 9 0
BBX 6 9 0 0
BITMAP
78
84
84
84
84
84
84
84
78
ENDCHAR
STARTCHAR uni1F61
ENCODING 8033
SWIDTH 692 0
DWIDTH 9 0
BBX 6 9 0 0
BITMAP
78
84
84
84
84
84
84
84
78
ENDCHAR
STARTCHAR uni1F62
ENCODING 8034
SWIDTH 692 0
DWIDTH 9 0
BBX 6 9 0 0
BITMAP
78
84
84
84
84
84
84
84
78
ENDCHAR
STARTCHAR uni1F63
ENCODING 8035
SWIDTH 692 0
DWIDTH 9 0
BBX 6 9 0 0
BITMAP
78
84
84
84
84
84
84
84
78
ENDCHAR
STARTCHAR uni1F64
ENCODING 8036
SWIDTH 692 0
DWIDTH 9 0
BBX 6 9 0 0
BITMAP
78
84
84
84
84
84
84
84
78
ENDCHAR
STARTCHAR uni1F65
ENCODING 8037
SWIDTH 692 0
DWIDTH 9 0
BBX 6 9 0 0
BITMAP
78
84
84
84
84
84
84
84
78
ENDCHAR
STARTCHAR uni1F66
ENCODING 8038
SWIDTH 692 0
DWIDTH 9 0
BBX 6 9 0 0
BITMAP
78
84
84
84
84
84
84
84
78
ENDCHAR
STARTCHAR uni1F67
ENCODING 8039
SWIDTH 692 0
DWIDTH 9 0
BBX 6 9 0 0
BITMAP
78
84
84
84
84
84
84
84
78
ENDCHAR
STARTCHAR uni1F68
ENCODING 8040
SWIDTH 692 0
DWIDTH 9 0
BBX 6 12 0 0
BITMAP
78
84
84
84
84
84
84
84
84
84
84
78
ENDCHAR
STARTCHAR uni1F69
ENCODING 8041
SWIDTH 692 0
DWIDTH 9 0
BBX 6 12 0 0
BITMAP
78
84
84
84
84
84
84
84
84
84
84
78
ENDCHAR
STARTCHAR uni1F6A
ENCODING 8042
SWIDTH 692 0
DWIDTH 9 0
BBX 6 12 0 0
BITMAP
78
84
84
84
84
84
84
84
84
84
84
78
ENDCHAR
STARTCHAR uni1F6B
ENCODING 8043
SWIDTH 692 0
DWIDTH 9 0
BBX 6 12 0 0
BITMAP
78
84
84
84
84
84
84
84
84
84
84
78
ENDCHAR
STARTCHAR uni1F6C
ENCODING 8044
SWIDTH 692 0
DWIDTH 9 0
BBX 6 12 0 0
BITMAP
78
84
84
84
84
84
84
84
84
84
84
78
ENDCHAR
STARTCHAR uni1F6D
ENCODING 8045
SWIDTH 692 0
DWIDTH 9 0
BBX 6 12 0 0
BITMAP
78
84
84
84
84
84
84
84
84
84
84
78
ENDCHAR
STARTCHAR uni1F6E
ENCODING 8046
SWIDTH 692 0
DWIDTH 9 0
BBX 6 12 0 0
BITMAP
78
84
84
84
84
84
84
84
84
84
84
78
ENDCHAR
STARTCHAR uni1F6F
ENCODING 8047
SWIDTH 692 0
DWIDTH 9 0
BBX 6 12 0 0
BITMAP
78
84
84
84
84
84
84
84
84
84
84
78
ENDCHAR
STARTCHAR uni1F70
ENCODING 8048
SWIDTH 692 0
DWIDTH 9 0
BBX 6 9 0 0
BITMAP
78
84
04
04
7C
84
84
8C
74
ENDCHAR
STARTCHAR uni1F71
ENCODING 8049
SWIDTH 692 0
DWIDTH 9 0
BBX 6 9 0 0
BITMAP
78
84
04
04
7C
84
84
8C
74
ENDCHAR
STARTCHAR uni1F72
ENCODING 8050
SWIDTH 692 0
DWIDTH 9 0
BBX 6 9 0 0
BITMAP
78
84
84
84
FC
80
80
84
78
ENDCHAR
STARTCHAR uni1F73
ENCODING 8051
SWIDTH 692 0
DWIDTH 9 0
BBX 6 9 0 0
BITMAP
78
84
84
84
FC
80
80
84
78
ENDCHAR
STARTCHAR uni1F74
ENCODING 8052
SWIDTH 692 0
DWIDTH 9 0
BBX 6 9 0 0
BITMAP
78
84
84
84
FC
80
80
84
78
ENDCHAR
STARTCHAR uni1F75
ENCODING 8053
SWIDTH 692 0
DWIDTH 9 0
BBX 6 9 0 0
BITMAP
78
84
84
84
FC
80
80
84
78
ENDCHAR
STARTCHAR uni1F76
ENCODING 8054
SWIDTH 692 0
DWIDTH 9 0
BBX 5 12 1 0
BITMAP
20
00
00
E0
20
20
20
20
20
20
20
F8
ENDCHAR
STARTCHAR uni1F77
ENCODING 8055
SWIDTH 692 0
DWIDTH 9 0
BBX 5 12 1 0
BITMAP
20
00
00
E0
20
20
20
20
20
20
20
F8
ENDCHAR
STARTCHAR uni1F78
ENCODING 8056
SWIDTH 692 0
DWIDTH 9 0
BBX 6 9 0 0
BITMAP
78
84
84
84
84
84
84
84
78
ENDCHAR
STARTCHAR uni1F79
ENCODING 8057
SWIDTH 692 0
DWIDTH 9 0
BBX 6 9 0 0
BITMAP
78
84
84
84
84
84
84
84
78
ENDCHAR
STARTCHAR uni1F7A
ENCODING 8058
SWIDTH 692 0
DWIDTH 9 0
BBX 6 9 0 0
BITMAP
84
84
84
84
84
84
84
8C
74
ENDCHAR
STARTCHAR uni1F7B
ENCODING 8059
SWIDTH 692 0
DWIDTH 9 0
BBX 6 9 0 0
BITMAP
84
84
84
84
84
84
84
8C
74
ENDCHAR
STARTCHAR uni1F7C
ENCODING 8060
SWIDTH 692 0
DWIDTH 9 0
BBX 6 9 0 0
BITMAP
78
84
84
84
84
84
84
84
78
ENDCHAR
STARTCHAR uni1F7D
ENCODING 8061
SWIDTH 692 0
DWIDTH 9 0
BBX 6 9 0 0
BITMAP
78
84
84
84
84
84
84
84
78
ENDCHAR
STARTCHAR uni1F80
ENCODING 8064
SWIDTH 692 0
DWIDTH 9 0
BBX 6 9 0 0
BITMAP
78
84
04
04
7C
84
84
8C
74
ENDCHAR
STARTCHAR uni1F81
ENCODING 8065
SWIDTH 692 0
DWIDTH 9 0
BBX 6 9 0 0
BITMAP
78
84
04
04
7C
84
84
8C
74
ENDCHAR
STARTCHAR uni1F82
ENCODING 8066
SWIDTH 692 0
DWIDTH 9 0
BBX 6 9 0 0
BITMAP
78
84
04
04
7C
84
84
8C
74
ENDCHAR
STARTCHAR uni1F83
ENCODING 8067
SWIDTH 692 0
DWIDTH 9 0
BBX 6 9 0 0
BITMAP
78
84
04
04
7C
84
84
8C
74
ENDCHAR
STARTCHAR uni1F84
ENCODING 8068
SWIDTH 692 0
DWIDTH 9 0
BBX 6 9 0 0
BITMAP
78
84
04
04
7C
84
84
8C
74
ENDCHAR
STARTCHAR uni1F85
ENCODING 8069
SWIDTH 692 0
DWIDTH 9 0
BBX 6 9 0 0
BITMAP
78
84
04
04
7C
84
84
8C
74
ENDCHAR
STARTCHAR uni1F86
ENCODING 8070
SWIDTH 692 0
DWIDTH 9 0
BBX 6 9 0 0
BITMAP
78
84
04
04
7C
84
84
8C
74
ENDCHAR
STARTCHAR uni1F87
ENCODING 8071
SWIDTH 692 0
DWIDTH 9 0
BBX 6 9 0 0
BITMAP
78
84
04
04
7C
84
84
8C
74
ENDCHAR
STARTCHAR uni1F88
ENCODING 8072
SWIDTH 692 0
DWIDTH 9 0
BBX 6 12 0 0
BITMAP
30
48
48
48
84
84
84
FC
84
84
84
84
ENDCHAR
STARTCHAR uni1F89
ENCODING 8073
SWIDTH 692 0
DWIDTH 9 0
BBX 6 12 0 0
BITMAP
30
48
48
48
84
84
84
FC
84
84
84
84
ENDCHAR
STARTCHAR uni1F8A
ENCODING 8074
SWIDTH 692 0
DWIDTH 9 0
BBX 6 12 0 0
BITMAP
30
48
48
48
84
84
84
FC
84
84
84
84
ENDCHAR
STARTCHAR uni1F8B
ENCODING 8075
SWIDTH 692 0
DWIDTH 9 0
BBX 6 12 0 0
BITMAP
30
48
48
48
84
84
84
FC
84
84
84
84
ENDCHAR
STARTCHAR uni1F8C
ENCODING 8076
SWIDTH 692 0
DWIDTH 9 0
BBX 6 12 0 0
BITMAP
30
48
48
48
84
84
84
FC
84
84
84
84
ENDCHAR
STARTCHAR uni1F8D
ENCODING 8077
SWIDTH 692 0
DWIDTH 9 0
BBX 6 12 0 0
BITMAP
30
48
48
48
84
84
84
FC
84
84
84
84
ENDCHAR
STARTCHAR uni1F8E
ENCODING 8078
SWIDTH 692 0
DWIDTH 9 0
BBX 6 12 0 0
BITMAP
30
48
48
48
84
84
84
FC
84
84
84
84
ENDCHAR
STARTCHAR uni1F8F
ENCODING 8079
SWIDTH 692 0
DWIDTH 9 0
BBX 6 12 0 0
BITMAP
30
48
48
48
84
84
84
FC
84
84
84
84
ENDCHAR
STARTCHAR uni1F90
ENCODING 8080
SWIDTH 692 0
DWIDTH 9 0
BBX 6 9 0 0
BITMAP
78
84
84
84
FC
80
80
84
78
ENDCHAR
STARTCHAR uni1F91
ENCODING 8081
SWIDTH 692 0
DWIDTH 9 0
BBX 6 9 0 0
BITMAP
78
84
84
84
FC
80
80
84
78
ENDCHAR
STARTCHAR uni1F92
ENCODING 8082
SWIDTH 692 0
DWIDTH 9 0
BBX 6 9 0 0
BITMAP
78
84
84
84
FC
80
80
84
78
ENDCHAR
STARTCHAR uni1F93
ENCODING 8083
SWIDTH 692 0
DWIDTH 9 0
BBX 6 9 0 0
BITMAP
78
84
84
84
FC
80
80
84
78
ENDCHAR
STARTCHAR uni1F94
ENCODING 8084
SWIDTH 692 0
DWIDTH 9 0
BBX 6 9 0 0
BITMAP
78
84
84
84
FC
80
80
84
78
ENDCHAR
STARTCHAR uni1F95
ENCODING 8085
SWIDTH 692 0
DWIDTH 9 0
BBX 6 9 0 0
BITMAP
78
84
84
84
FC
80
80
84
78
ENDCHAR
STARTCHAR uni1F96
ENCODING 8086
SWIDTH 692 0
DWIDTH 9 0
BBX 6 9 0 0
BITMAP
78
84
84
84
FC
80
80
84
78
ENDCHAR
STARTCHAR uni1F97
ENCODING 8087
SWIDTH 692 0
DWIDTH 9 0
BBX 6 9 0 0
BITMAP
78
84
84
84
FC
80
80
84
78
ENDCHAR
STARTCHAR uni1F98
ENCODING 8088
SWIDTH 692 0
DWIDTH 9 0
BBX 5 12 0 0
BITMAP
F8
80
80
80
80
F0
80
80
80
80
80
F8
ENDCHAR
STARTCHAR uni1F99
ENCODING 8089
SWIDTH 692 0
DWIDTH 9 0
BBX 5 12 0 0
BITMAP
F8
80
80
80
80
F0
80
80
80
80
80
F8
ENDCHAR
STARTCHAR uni1F9A
ENCODING 8090
SWIDTH 692 0
DWIDTH 9 0
BBX 5 12 0 0
BITMAP
F8
80
80
80
80
F0
80
80
80
80
80
F8
ENDCHAR
STARTCHAR uni1F9B
ENCODING 8091
SWIDTH 692 0
DWIDTH 9 0
BBX 5 12 0 0
BITMAP
F8
80
80
80
80
F0
80
80
80
80
80
F8
ENDCHAR
STARTCHAR uni1F9C
ENCODING 8092
SWIDTH 692 0
DWIDTH 9 0
BBX 5 12 0 0
BITMAP
F8
80
80
80
80
F0
80
80
80
80
80
F8
ENDCHAR
STARTCHAR uni1F9D
ENCODING 8093
SWIDTH 692 0
DWIDTH 9 0
BBX 5 12 0 0
BITMAP
F8
80
80
80
80
F0
80
80
80
80
80
F8
ENDCHAR
STARTCHAR uni1F9E
ENCODING 8094
SWIDTH 692 0
DWIDTH 9 0
BBX 5 12 0 0
BITMAP
F8
80
80
80
80
F0
80
80
80
80
80
F8
ENDCHAR
STARTCHAR uni1F9F
ENCODING 8095
SWIDTH 692 0
DWIDTH 9 0
BBX 5 12 0 0
BITMAP
F8
80
80
80
80
F0
80
80
80
80
80
F8
ENDCHAR
STARTCHAR uni1FA0
ENCODING 8096
SWIDTH 692 0
DWIDTH 9 0
BBX 6 9 0 0
BITMAP
78
84
84
84
84
84
84
84
78
ENDCHAR
STARTCHAR uni1FA1
ENCODING 8097
SWIDTH 692 0
DWIDTH 9 0
BBX 6 9 0 0
BITMAP
78
84
84
84
84
84
84
84
78
ENDCHAR
STARTCHAR uni1FA2
ENCODING 8098
SWIDTH 692 0
DWIDTH 9 0
BBX 6 9 0 0
BITMAP
78
84
84
84
84
84
84
84
78
ENDCHAR
STARTCHAR uni1FA3
ENCODING 8099
SWIDTH 692 0
DWIDTH 9 0
BBX 6 9 0 0
BITMAP
78
84
84
84
84
84
84
84
78
ENDCHAR
STARTCHAR uni1FA4
ENCODING 8100
SWIDTH 692 0
DWIDTH 9 0
BBX 6 9 0 0
BITMAP
78
84
84
84
84
84
84
84
78
ENDCHAR
STARTCHAR uni1FA5
ENCODING 8101
SWIDTH 692 0
DWIDTH 9 0
BBX 6 9 0 0
BITMAP
78
84
84
84
84
84
84
84
78
ENDCHAR
STARTCHAR uni1FA6
ENCODING 8102
SWIDTH 692 0
DWIDTH 9 0
BBX 6 9 0 0
BITMAP
78
84
84
84
84
84
84
84
78
ENDCHAR
STARTCHAR uni1FA7
ENCODING 8103
SWIDTH 692 0
DWIDTH 9 0
BBX 6 9 0 0
BITMAP
78
84
84
84
84
84
84
84
78
ENDCHAR
STARTCHAR uni1FA8
ENCODING 8104
SWIDTH 692 0
DWIDTH 9 0
BBX 6 12 0 0
BITMAP
78
84
84
84
84
84
84
84
84
84
84
78
ENDCHAR
STARTCHAR uni1FA9
ENCODING 8105
SWIDTH 692 0
DWIDTH 9 0
BBX 6 12 0 0
BITMAP
78
84
84
84
84
84
84
84
84
84
84
78
ENDCHAR
STARTCHAR uni1FAA
ENCODING 8106
SWIDTH 692 0
DWIDTH 9 0
BBX 6 12 0 0
BITMAP
78
84
84
84
84
84
84
84
84
84
84
78
ENDCHAR
STARTCHAR uni1FAB
ENCODING 8107
SWIDTH 692 0
DWIDTH 9 0
BBX 6 12 0 0
BITMAP
78
84
84
84
84
84
84
84
84
84
84
78
ENDCHAR
STARTCHAR uni1FAC
ENCODING 8108
SWIDTH 692 0
DWIDTH 9 0
BBX 6 12 0 0
BITMAP
78
84
84
84
84
84
84
84
84
84
84
78
ENDCHAR
STARTCHAR uni1FAD
ENCODING 8109
SWIDTH 692 0
DWIDTH 9 0
BBX 6 12 0 0
BITMAP
78
84
84
84
84
84
84
84
84
84
84
78
ENDCHAR
STARTCHAR uni1FAE
ENCODING 8110
SWIDTH 692 0
DWIDTH 9 0
BBX 6 12 0 0
BITMAP
78
84
84
84
84
84
84
84
84
84
84
78
ENDCHAR
STARTCHAR uni1FAF
ENCODING 8111
SWIDTH 692 0
DWIDTH 9 0
BBX 6 12 0 0
BITMAP
78
84
84
84
84
84
84
84
84
84
84
78
ENDCHAR
STARTCHAR uni1FB0
ENCODING 8112
SWIDTH 692 0
DWIDTH 9 0
BBX 6 9 0 0
BITMAP
78
84
04
04
7C
84
84
8C
74
ENDCHAR
STARTCHAR uni1FB1
ENCODING 8113
SWIDTH 692 0
DWIDTH 9 0
BBX 6 9 0 0
BITMAP
78
84
04
04
7C
84
84
8C
74
ENDCHAR
STARTCHAR uni1FB2
ENCODING 8114
SWIDTH 692 0
DWIDTH 9 0
BBX 6 9 0 0
BITMAP
78
84
04
04
7C
84
84
8C
74
ENDCHAR
STARTCHAR uni1FB3
ENCODING 8115
SWIDTH 692 0
DWIDTH 9 0
BBX 6 9 0 0
BITMAP
78
84
04
04
7C
84
84
8C
74
ENDCHAR
STARTCHAR uni1FB4
ENCODING 8116
SWIDTH 692 0
DWIDTH 9 0
BBX 6 9 0 0
BITMAP
78
84
04
04
7C
84
84
8C
74
ENDCHAR
STARTCHAR uni1FB6
ENCODING 8118
SWIDTH 692 0
DWIDTH 9 0
BBX 6 9 0 0
BITMAP
78
84
04
04
7C
84
84
8C
74
ENDCHAR
STARTCHAR uni1FB7
ENCODING 8119
SWIDTH 692 0
DWIDTH 9 0
BBX 6 9 0 0
BITMAP
78
84
04
04
7C
84
84
8C
74
ENDCHAR
STARTCHAR uni1FB8
ENCODING 8120
SWIDTH 692 0
DWIDTH 9 0
BBX 6 12 0 0
BITMAP
30
48
48
48
84
84
84
FC
84
84
84
84
ENDCHAR
STARTCHAR uni1FB9
ENCODING 8121
SWIDTH 692 0
DWIDTH 9 0
BBX 6 12 0 0
BITMAP
30
48
48
48
84
84
84
FC
84
84
84
84
ENDCHAR
STARTCHAR uni1FBA
ENCODING 8122
SWIDTH 692 0
DWIDTH 9 0
BBX 6 12 0 0
BITMAP
30
48
48
48
84
84
84
FC
84
84
84
84
ENDCHAR
STARTCHAR uni1FBB
ENCODING 8123
SWIDTH 692 0
DWIDTH 9 0
BBX 6 12 0 0
BITMAP
30
48
48
48
84
84
84
FC
84
84
84
84
ENDCHAR
STARTCHAR uni1FBC
ENCODING 8124
SWIDTH 692 0
DWIDTH 9 0
BBX 6 12 0 0
BITMAP
30
48
48
48
84
84
84
FC
84
84
84
84
ENDCHAR
STARTCHAR uni1FBD
ENCODING 8125
SWIDTH 692 0
DWIDTH 9 0
BBX 0 0 0 0
BITMAP
ENDCHAR
STARTCHAR uni1FBE
ENCODING 8126
SWIDTH 692 0
DWIDTH 9 0
BBX 0 0 0 0
BITMAP
ENDCHAR
STARTCHAR uni1FBF
ENCODING 8127
SWIDTH 692 0
DWIDTH 9 0
BBX 0 0 0 0
BITMAP
ENDCHAR
STARTCHAR uni1FC0
ENCODING 8128
SWIDTH 692 0
DWIDTH 9 0
BBX 0 0 0 0
BITMAP
ENDCHAR
STARTCHAR uni1FC1
ENCODING 8129
SWIDTH 692 0
DWIDTH 9 0
BBX 0 0 0 0
BITMAP
ENDCHAR
STARTCHAR uni1FC2
ENCODING 8130
SWIDTH 692 0
DWIDTH 9 0
BBX 6 9 0 0
BITMAP
78
84
84
84
FC
80
80
84
78
ENDCHAR
STARTCHAR uni1FC3
ENCODING 8131
SWIDTH 692 0
DWIDTH 9 0
BBX 6 9 0 0
BITMAP
78
84
84
84
FC
80
80
84
78
ENDCHAR
STARTCHAR uni1FC4
ENCODING 8132
SWIDTH 692 0
DWIDTH 9 0
BBX 6 9 0 0
BITMAP
78
84
84
84
FC
80
80
84
78
ENDCHAR
STARTCHAR uni1FC6
ENCODING 8134
SWIDTH 692 0
DWIDTH 9 0
BBX 6 9 0 0
BITMAP
78
84
84
84
FC
80
80
84
78
ENDCHAR
STARTCHAR uni1FC7
ENCODING 8135
SWIDTH 692 0
DWIDTH 9 0
BBX 6 9 0 0
BITMAP
78
84
84
84
FC
80
80
84
78
ENDCHAR
STARTCHAR uni1FC8
ENCODING 8136
SWIDTH 692 0
DWIDTH 9 0
BBX 5 12 0 0
BITMAP
F8
80
80
80
80
F0
80
80
80
80
80
F8
ENDCHAR
STARTCHAR uni1FC9
ENCODING 8137
SWIDTH 692 0
DWIDTH 9 0
BBX 5 12 0 0
BITMAP
F8
80
80
80
80
F0
80
80
80
80
80
F8
ENDCHAR
STARTCHAR uni1FCA
ENCODING 8138
SWIDTH 692 0
DWIDTH 9 0
BBX 5 12 0 0
BITMAP
F8
80
80
80
80
F0
80
80
80
80
80
F8
ENDCHAR
STARTCHAR uni1FCB
ENCODING 8139
SWIDTH 692 0
DWIDTH 9 0
BBX 5 12 0 0
BITMAP
F8
80
80
80
80
F0
80
80
80
80
80
F8
ENDCHAR
STARTCHAR uni1FCC
ENCODING 8140
SWIDTH 692 0
DWIDTH 9 0
BBX 5 12 0 0
BITMAP
F8
80
80
80
80
F0
80
80
80
80
80
F8
ENDCHAR
STARTCHAR uni1FCD
ENCODING 8141
SWIDTH 692 0
DWIDTH 9 0
BBX 0 0 0 0
BITMAP
ENDCHAR
STARTCHAR uni1FCE
ENCODING 8142
SWIDTH 692 0
DWIDTH 9 0
BBX 0 0 0 0
BITMAP
ENDCHAR
STARTCHAR uni1FCF
ENCODING 8143
SWIDTH 692 0
DWIDTH 9 0
BBX 0 0 0 0
BITMAP
ENDCHAR
STARTCHAR uni1FD0
ENCODING 8144
SWIDTH 692 0
DWIDTH 9 0
BBX 5 12 1 0
BITMAP
20
00
00
E0
20
20
20
20
20
20
20
F8
ENDCHAR
STARTCHAR uni1FD1
ENCODING 8145
SWIDTH 692 0
DWIDTH 9 0
BBX 5 12 1 0
BITMAP
20
00
00
E0
20
20
20
20
20
20
20
F8
ENDCHAR
STARTCHAR uni1FD2
ENCODING 8146
SWIDTH 692 0
DWIDTH 9 0
BBX 5 12 1 0
BITMAP
20
00
00
E0
20
20
20
20
20
20
20
F8
ENDCHAR
STARTCHAR uni1FD3
ENCODING 8147
SWIDTH 692 0
DWIDTH 9 0
BBX 5 12 1 0
BITMAP
20
00
00
E0
20
20
20
20
20
20
20
F8
ENDCHAR
STARTCHAR uni1FD6
ENCODING 8150
SWIDTH 692 0
DWIDTH 9 0
BBX 5 12 1 0
BITMAP
20
00
00
E0
20
20
20
20
20
20
20
F8
ENDCHAR
STARTCHAR uni1FD7
ENCODING 8151
SWIDTH 692 0
DWIDTH 9 0
BBX 5 12 1 0
BITMAP
20
00
00
E0
20
20
20
20
20
20
20
F8
ENDCHAR
STARTCHAR uni1FD8
ENCODING 8152
SWIDTH 692 0
DWIDTH 9 0
BBX 5 12 0 0
BITMAP
F8
20
20
20
20
20
20
20
20
20
20
F8
ENDCHAR
STARTCHAR uni1FD9
ENCODING 8153
SWIDTH 692 0
DWIDTH 9 0
BBX 5 12 0 0
BITMAP
F8
20
20
20
20
20
20
20
20
20
20
F8
ENDCHAR
STARTCHAR uni1FDA
ENCODING 8154
SWIDTH 692 0
DWIDTH 9 0
BBX 5 12 0 0
BITMAP
F8
20
20
20
20
20
20
20
20
20
20
F8
ENDCHAR
STARTCHAR uni1FDB
ENCODING 8155
SWIDTH 692 0
DWIDTH 9 0
BBX 5 12 0 0
BITMAP
F8
20
20
20
20
20
20
20
20
20
20
F8
ENDCHAR
STARTCHAR uni1FDD
ENCODING 8157
SWIDTH 692 0
DWIDTH 9 0
BBX 0 0 0 0
BITMAP
ENDCHAR
STARTCHAR uni1FDE
ENCODING 8158
SWIDTH 692 0
DWIDTH 9 0
BBX 0 0 0 0
BITMAP
ENDCHAR
STARTCHAR uni1FDF
ENCODING 8159
SWIDTH 692 0
DWIDTH 9 0
BBX 0 0 0 0
BITMAP
ENDCHAR
STARTCHAR uni1FE0
ENCODING 8160
SWIDTH 692 0
DWIDTH 9 0
BBX 6 9 0 0
BITMAP
84
84
84
84
84
84
84
8C
74
ENDCHAR
STARTCHAR uni1FE1
ENCODING 8161
SWIDTH 692 0
DWIDTH 9 0
BBX 6 9 0 0
BITMAP
84
84
84
84
84
84
84
8C
74
ENDCHAR
STARTCHAR uni1FE2
ENCODING 8162
SWIDTH 692 0
DWIDTH 9 0
BBX 6 9 0 0
BITMAP
84
84
84
84
84
84
84
8C
74
ENDCHAR
STARTCHAR uni1FE3
ENCODING 8163
SWIDTH 692 0
DWIDTH 9 0
BBX 6 9 0 0
BITMAP
84
84
84
84
84
84
84
8C
74
ENDCHAR
STARTCHAR uni1FE4
ENCODING 8164
SWIDTH 692 0
DWIDTH 9 0
BBX 6 9 0 0
BITMAP
B8
C4
80
80
80
80
80
80
80
ENDCHAR
STARTCHAR uni1FE5
ENCODING 8165
SWIDTH 692 0
DWIDTH 9 0
BBX 6 9 0 0
BITMAP
B8
C4
80
80
80
80
80
80
80
ENDCHAR
STARTCHAR uni1FE6
ENCODING 8166
SWIDTH 692 0
DWIDTH 9 0
BBX 6 9 0 0
BITMAP
84
84
84
84
84
84
84
8C
74
ENDCHAR
STARTCHAR uni1FE7
ENCODING 8167
SWIDTH 692 0
DWIDTH 9 0
BBX 6 9 0 0
BITMAP
84
84
84
84
84
84
84
8C
74
ENDCHAR
STARTCHAR uni1FE8
ENCODING 8168
SWIDTH 692 0
DWIDTH 9 0
BBX 6 12 0 0
BITMAP
84
84
84
84
84
84
84
84
84
84
84
78
ENDCHAR
STARTCHAR uni1FE9
ENCODING 8169
SWIDTH 692 0
DWIDTH 9 0
BBX 6 12 0 0
BITMAP
84
84
84
84
84
84
84
84
84
84
84
78
ENDCHAR
STARTCHAR uni1FEA
ENCODING 8170
SWIDTH 692 0
DWIDTH 9 0
BBX 6 12 0 0
BITMAP
84
84
84
84
84
84
84
84
84
84
84
78
ENDCHAR
STARTCHAR uni1FEB
ENCODING 8171
SWIDTH 692 0
DWIDTH 9 0
BBX 6 12 0 0
BITMAP
84
84
84
84
84
84
84
84
84
84
84
78
ENDCHAR
STARTCHAR uni1FEC
ENCODING 8172
SWIDTH 692 0
DWIDTH 9 0
BBX 6 12 0 0
BITMAP
F8
84
84
84
84
F8
88
88
88
84
84
84
ENDCHAR
STARTCHAR uni1FED
ENCODING 8173
SWIDTH 692 0
DWIDTH 9 0
BBX 0 0 0 0
BITMAP
ENDCHAR
STARTCHAR uni1FEE
ENCODING 8174
SWIDTH 692 0
DWIDTH 9 0
BBX 0 0 0 0
BITMAP
ENDCHAR
STARTCHAR uni1FEF
ENCODING 8175
SWIDTH 692 0
DWIDTH 9 0
BBX 0 0 0 0
BITMAP
ENDCHAR
STARTCHAR uni1FF2
ENCODING 8178
SWIDTH 692 0
DWIDTH 9 0
BBX 6 9 0 0
BITMAP
78
84
84
84
84
84
84
84
78
ENDCHAR
STARTCHAR uni1FF3
ENCODING 8179
SWIDTH 692 0
DWIDTH 9 0
BBX 6 9 0 0
BITMAP
78
84
84
84
84
84
84
84
78
ENDCHAR
STARTCHAR uni1FF4
ENCODING 8180
SWIDTH 692 0
DWIDTH 9 0
BBX 6 9 0 0
BITMAP
78
84
84
84
84
84
84
84
78
ENDCHAR
STARTCHAR uni1FF6
ENCODING 8182
SWIDTH 692 0
DWIDTH 9 0
BBX 6 9 0 0
BITMAP
78
84
84
84
84
84
84
84
78
ENDCHAR
STARTCHAR uni1FF7
ENCODING 8183
SWIDTH 692 0
DWIDTH 9 0
BBX 6 9 0 0
BITMAP
78
84
84
84
84
84
84
84
78
ENDCHAR
STARTCHAR uni1FF8
ENCODING 8184
SWIDTH 692 0
DWIDTH 9 0
BBX 6 12 0 0
BITMAP
78
84
84
84
84
84
84
84
84
84
84
78
ENDCHAR
STARTCHAR uni1FF9
ENCODING 8185
SWIDTH 692 0
DWIDTH 9 0
BBX 6 12 0 0
BITMAP
78
84
84
84
84
84
84
84
84
84
84
78
ENDCHAR
STARTCHAR uni1FFA
ENCODING 8186
SWIDTH 692 0
DWIDTH 9 0
BBX 6 12 0 0
BITMAP
78
84
84
84
84
84
84
84
84
84
84
78
ENDCHAR
STARTCHAR uni1FFB
ENCODING 8187
SWIDTH 692 0
DWIDTH 9 0
BBX 6 12 0 0
BITMAP
78
84
84
84
84
84
84
84
84
84
84
78
ENDCHAR
STARTCHAR uni1FFC
ENCODING 8188
SWIDTH 692 0
DWIDTH 9 0
BBX 6 12 0 0
BITMAP
78
84
84
84
84
84
84
84
84
84
84
78
ENDCHAR
STARTCHAR uni1FFD
ENCODING 8189
SWIDTH 692 0
DWIDTH 9 0
BBX 0 0 0 0
BITMAP
ENDCHAR
STARTCHAR uni1FFE
ENCODING 8190
SWIDTH 692 0
DWIDTH 9 0
BBX 0 0 0 0
BITMAP
ENDCHAR
STARTCHAR uni2002
ENCODING 8194
SWIDTH 692 0
DWIDTH 9 0
BBX 0 0 0 0
BITMAP
ENDCHAR
STARTCHAR uni2003
ENCODING 8195
SWIDTH 692 0
DWIDTH 9 0
BBX 0 0 0 0
BITMAP
ENDCHAR
STARTCHAR uni2009
ENCODING 8201
SWIDTH 692 0
DWIDTH 9 0
BBX 0 0 0 0
BITMAP
ENDCHAR
STARTCHAR afii299
ENCODING 8206
SWIDTH 692 0
DWIDTH 9 0
BBX 5 9 1 1
BITMAP
80
40
20
10
08
10
20
40
80
ENDCHAR
STARTCHAR afii300
ENCODING 8207
SWIDTH 692 0
DWIDTH 9 0
BBX 5 9 1 1
BITMAP
08
10
20
40
80
40
20
10
08
ENDCHAR
STARTCHAR uni2010
ENCODING 8208
SWIDTH 692 0
DWIDTH 9 0
BBX 5 1 1 5
BITMAP
F8
ENDCHAR
STARTCHAR uni2011
ENCODING 8209
SWIDTH 692 0
DWIDTH 9 0
BBX 5 1 1 5
BITMAP
F8
ENDCHAR
STARTCHAR figuredash
ENCODING 8210
SWIDTH 692 0
DWIDTH 9 0
BBX 5 1 1 5
BITMAP
F8
ENDCHAR
STARTCHAR endash
ENCODING 8211
SWIDTH 692 0
DWIDTH 9 0
BBX 5 1 1 5
BITMAP
F8
ENDCHAR
STARTCHAR emdash
ENCODING 8212
SWIDTH 692 0
DWIDTH 9 0
BBX 5 1 1 5
BITMAP
F8
ENDCHAR
STARTCHAR afii00208
ENCODING 8213
SWIDTH 692 0
DWIDTH 9 0
BBX 5 1 1 5
BITMAP
F8
ENDCHAR
STARTCHAR uni2016
ENCODING 8214
SWIDTH 692 0
DWIDTH 9 0
BBX 1 12 3 0
BITMAP
80
80
80
80
80
80
80
80
80
80
80
80
ENDCHAR
STARTCHAR underscoredbl
ENCODING 8215
SWIDTH 692 0
DWIDTH 9 0
BBX 7 1 0 0
BITMAP
FE
ENDCHAR
STARTCHAR quoteleft
ENCODING 8216
SWIDTH 692 0
DWIDTH 9 0
BBX 2 4 2 8
BITMAP
C0
40
40
80
ENDCHAR
STARTCHAR quoteright
ENCODING 8217
SWIDTH 692 0
DWIDTH 9 0
BBX 2 4 2 8
BITMAP
C0
40
40
80
ENDCHAR
STARTCHAR quotesinglbase
ENCODING 8218
SWIDTH 692 0
DWIDTH 9 0
BBX 2 4 2 8
BITMAP
C0
40
40
80
ENDCHAR
STARTCHAR quotereversed
ENCODING 8219
SWIDTH 692 0
DWIDTH 9 0
BBX 3 3 1 10
BITMAP
80
40
20
ENDCHAR
STARTCHAR quotedblleft
ENCODING 8220
SWIDTH 692 0
DWIDTH 9 0
BBX 7 4 0 8
BITMAP
EE
22
22
44
ENDCHAR
STARTCHAR quotedblright
ENCODING 8221
SWIDTH 692 0
DWIDTH 9 0
BBX 7 4 0 8
BITMAP
EE
22
22
44
ENDCHAR
STARTCHAR quotedblbase
ENCODING 8222
SWIDTH 692 0
DWIDTH 9 0
BBX 7 4 0 8
BITMAP
EE
22
22
44
ENDCHAR
STARTCHAR uni201F
ENCODING 8223
SWIDTH 692 0
DWIDTH 9 0
BBX 7 4 0 8
BITMAP
EE
22
22
44
ENDCHAR
STARTCHAR dagger
ENCODING 8224
SWIDTH 692 0
DWIDTH 9 0
BBX 7 7 0 2
BITMAP
10
10
10
FE
10
10
10
ENDCHAR
STARTCHAR uni2023
ENCODING 8227
SWIDTH 692 0
DWIDTH 9 0
BBX 5 9 1 1
BITMAP
80
40
20
10
08
10
20
40
80
ENDCHAR
STARTCHAR onedotenleader
ENCODING 8228
SWIDTH 692 0
DWIDTH 9 0
BBX 2 3 2 0
BITMAP
C0
C0
C0
ENDCHAR
STARTCHAR twodotenleader
ENCODING 8229
SWIDTH 692 0
DWIDTH 9 0
BBX 2 3 2 0
BITMAP
C0
C0
C0
ENDCHAR
STARTCHAR ellipsis
ENCODING 8230
SWIDTH 692 0
DWIDTH 9 0
BBX 2 3 2 0
BITMAP
C0
C0
C0
ENDCHAR
STARTCHAR uni2027
ENCODING 8231
SWIDTH 692 0
DWIDTH 9 0
BBX 5 1 1 5
BITMAP
F8
ENDCHAR
STARTCHAR minute
ENCODING 8242
SWIDTH 692 0
DWIDTH 9 0
BBX 2 4 2 8
BITMAP
C0
40
40
80
ENDCHAR
STARTCHAR uni2035
ENCODING 8245
SWIDTH 692 0
DWIDTH 9 0
BBX 3 3 1 10
BITMAP
80
40
20
ENDCHAR
STARTCHAR uni2038
ENCODING 8248
SWIDTH 692 0
DWIDTH 9 0
BBX 5 5 1 7
BITMAP
20
50
50
88
88
ENDCHAR
STARTCHAR guilsinglleft
ENCODING 8249
SWIDTH 692 0
DWIDTH 9 0
BBX 5 9 1 1
BITMAP
08
10
20
40
80
40
20
10
08
ENDCHAR
STARTCHAR guilsinglright
ENCODING 8250
SWIDTH 692 0
DWIDTH 9 0
BBX 5 9 1 1
BITMAP
80
40
20
10
08
10
20
40
80
ENDCHAR
STARTCHAR uni203B
ENCODING 8251
SWIDTH 692 0
DWIDTH 9 0
BBX 7 12 0 0
BITMAP
82
82
44
44
28
10
10
28
28
44
82
82
ENDCHAR
STARTCHAR exclamdbl
ENCODING 8252
SWIDTH 692 0
DWIDTH 9 0
BBX 1 12 4 0
BITMAP
80
80
80
80
80
80
80
80
00
00
80
80
ENDCHAR
STARTCHAR uni203E
ENCODING 8254
SWIDTH 692 0
DWIDTH 9 0
BBX 5 1 1 5
BITMAP
F8
ENDCHAR
STARTCHAR uni203F
ENCODING 8255
SWIDTH 692 0
DWIDTH 9 0
BBX 7 1 0 0
BITMAP
FE
ENDCHAR
STARTCHAR uni2040
ENCODING 8256
SWIDTH 692 0
DWIDTH 9 0
BBX 7 3 0 4
BITMAP
60
92
0C
ENDCHAR
STARTCHAR uni2041
ENCODING 8257
SWIDTH 692 0
DWIDTH 9 0
BBX 2 4 2 -1
BITMAP
C0
40
40
80
ENDCHAR
STARTCHAR uni2042
ENCODING 8258
SWIDTH 692 0
DWIDTH 9 0
BBX 5 6 1 4
BITMAP
20
A8
70
70
A8
20
ENDCHAR
STARTCHAR uni2043
ENCODING 8259
SWIDTH 692 0
DWIDTH 9 0
BBX 5 1 1 5
BITMAP
F8
ENDCHAR
STARTCHAR fraction
ENCODING 8260
SWIDTH 692 0
DWIDTH 9 0
BBX 5 12 1 0
BITMAP
08
08
10
10
10
20
20
40
40
40
80
80
ENDCHAR
STARTCHAR uni2045
ENCODING 8261
SWIDTH 692 0
DWIDTH 9 0
BBX 3 13 2 0
BITMAP
E0
80
80
80
80
80
80
80
80
80
80
80
E0
ENDCHAR
STARTCHAR uni2046
ENCODING 8262
SWIDTH 692 0
DWIDTH 9 0
BBX 3 13 2 0
BITMAP
E0
20
20
20
20
20
20
20
20
20
20
20
E0
ENDCHAR
STARTCHAR zerosuperior
ENCODING 8304
SWIDTH 692 0
DWIDTH 9 0
BBX 7 12 0 0
BITMAP
38
44
82
82
8A
92
92
A2
82
82
44
38
ENDCHAR
STARTCHAR foursuperior
ENCODING 8308
SWIDTH 692 0
DWIDTH 9 0
BBX 6 12 1 0
BITMAP
08
18
18
28
28
48
48
88
FC
08
08
08
ENDCHAR
STARTCHAR fivesuperior
ENCODING 8309
SWIDTH 692 0
DWIDTH 9 0
BBX 6 12 1 0
BITMAP
FC
80
80
80
F8
04
04
04
04
04
84
78
ENDCHAR
STARTCHAR sixsuperior
ENCODING 8310
SWIDTH 692 0
DWIDTH 9 0
BBX 6 12 1 0
BITMAP
78
84
80
80
80
F8
84
84
84
84
84
78
ENDCHAR
STARTCHAR sevensuperior
ENCODING 8311
SWIDTH 692 0
DWIDTH 9 0
BBX 6 12 1 0
BITMAP
FC
04
04
08
08
10
10
10
20
20
20
20
ENDCHAR
STARTCHAR eightsuperior
ENCODING 8312
SWIDTH 692 0
DWIDTH 9 0
BBX 6 12 1 0
BITMAP
78
84
84
84
84
78
84
84
84
84
84
78
ENDCHAR
STARTCHAR ninesuperior
ENCODING 8313
SWIDTH 692 0
DWIDTH 9 0
BBX 6 12 1 0
BITMAP
78
84
84
84
84
84
7C
04
04
04
84
78
ENDCHAR
STARTCHAR uni207A
ENCODING 8314
SWIDTH 692 0
DWIDTH 9 0
BBX 7 7 0 2
BITMAP
10
10
10
FE
10
10
10
ENDCHAR
STARTCHAR uni207B
ENCODING 8315
SWIDTH 692 0
DWIDTH 9 0
BBX 5 1 1 5
BITMAP
F8
ENDCHAR
STARTCHAR uni207C
ENCODING 8316
SWIDTH 692 0
DWIDTH 9 0
BBX 6 5 0 3
BITMAP
FC
00
00
00
FC
ENDCHAR
STARTCHAR parenleftsuperior
ENCODING 8317
SWIDTH 692 0
DWIDTH 9 0
BBX 4 14 1 -1
BITMAP
10
20
40
40
80
80
80
80
80
80
40
40
20
10
ENDCHAR
STARTCHAR parenrightsuperior
ENCODING 8318
SWIDTH 692 0
DWIDTH 9 0
BBX 4 14 1 -1
BITMAP
80
40
20
20
10
10
10
10
10
10
20
20
40
80
ENDCHAR
STARTCHAR nsuperior
ENCODING 8319
SWIDTH 692 0
DWIDTH 9 0
BBX 6 9 0 0
BITMAP
B8
C4
84
84
84
84
84
84
84
ENDCHAR
STARTCHAR zeroinferior
ENCODING 8320
SWIDTH 692 0
DWIDTH 9 0
BBX 7 12 0 0
BITMAP
38
44
82
82
8A
92
92
A2
82
82
44
38
ENDCHAR
STARTCHAR oneinferior
ENCODING 8321
SWIDTH 692 0
DWIDTH 9 0
BBX 4 12 1 0
BITMAP
30
50
90
10
10
10
10
10
10
10
10
10
ENDCHAR
STARTCHAR twoinferior
ENCODING 8322
SWIDTH 692 0
DWIDTH 9 0
BBX 6 12 1 0
BITMAP
78
84
04
04
08
10
20
40
40
80
80
FC
ENDCHAR
STARTCHAR threeinferior
ENCODING 8323
SWIDTH 692 0
DWIDTH 9 0
BBX 6 12 1 0
BITMAP
78
84
04
04
04
38
04
04
04
04
84
78
ENDCHAR
STARTCHAR fourinferior
ENCODING 8324
SWIDTH 692 0
DWIDTH 9 0
BBX 6 12 1 0
BITMAP
08
18
18
28
28
48
48
88
FC
08
08
08
ENDCHAR
STARTCHAR fiveinferior
ENCODING 8325
SWIDTH 692 0
DWIDTH 9 0
BBX 6 12 1 0
BITMAP
FC
80
80
80
F8
04
04
04
04
04
84
78
ENDCHAR
STARTCHAR sixinferior
ENCODING 8326
SWIDTH 692 0
DWIDTH 9 0
BBX 6 12 1 0
BITMAP
78
84
80
80
80
F8
84
84
84
84
84
78
ENDCHAR
STARTCHAR seveninferior
ENCODING 8327
SWIDTH 692 0
DWIDTH 9 0
BBX 6 12 1 0
BITMAP
FC
04
04
08
08
10
10
10
20
20
20
20
ENDCHAR
STARTCHAR eightinferior
ENCODING 8328
SWIDTH 692 0
DWIDTH 9 0
BBX 6 12 1 0
BITMAP
78
84
84
84
84
78
84
84
84
84
84
78
ENDCHAR
STARTCHAR nineinferior
ENCODING 8329
SWIDTH 692 0
DWIDTH 9 0
BBX 6 12 1 0
BITMAP
78
84
84
84
84
84
7C
04
04
04
84
78
ENDCHAR
STARTCHAR uni208A
ENCODING 8330
SWIDTH 692 0
DWIDTH 9 0
BBX 7 7 0 2
BITMAP
10
10
10
FE
10
10
10
ENDCHAR
STARTCHAR uni208B
ENCODING 8331
SWIDTH 692 0
DWIDTH 9 0
BBX 5 1 1 5
BITMAP
F8
ENDCHAR
STARTCHAR uni208C
ENCODING 8332
SWIDTH 692 0
DWIDTH 9 0
BBX 6 5 0 3
BITMAP
FC
00
00
00
FC
ENDCHAR
STARTCHAR parenleftinferior
ENCODING 8333
SWIDTH 692 0
DWIDTH 9 0
BBX 4 14 1 -1
BITMAP
10
20
40
40
80
80
80
80
80
80
40
40
20
10
ENDCHAR
STARTCHAR parenrightinferior
ENCODING 8334
SWIDTH 692 0
DWIDTH 9 0
BBX 4 14 1 -1
BITMAP
80
40
20
20
10
10
10
10
10
10
20
20
40
80
ENDCHAR
STARTCHAR colonmonetary
ENCODING 8353
SWIDTH 692 0
DWIDTH 9 0
BBX 6 12 0 0
BITMAP
78
84
80
80
80
80
80
80
80
80
84
78
ENDCHAR
STARTCHAR uni20A2
ENCODING 8354
SWIDTH 692 0
DWIDTH 9 0
BBX 6 12 0 0
BITMAP
78
84
80
80
80
80
80
80
80
80
84
78
ENDCHAR
STARTCHAR franc
ENCODING 8355
SWIDTH 692 0
DWIDTH 9 0
BBX 5 12 0 0
BITMAP
F8
80
80
80
F0
80
80
80
80
80
80
80
ENDCHAR
STARTCHAR lira
ENCODING 8356
SWIDTH 692 0
DWIDTH 9 0
BBX 6 12 0 0
BITMAP
80
80
80
80
80
80
80
80
80
80
80
FC
ENDCHAR
STARTCHAR uni20A5
ENCODING 8357
SWIDTH 692 0
DWIDTH 9 0
BBX 7 9 0 0
BITMAP
EC
92
92
92
92
92
92
92
92
ENDCHAR
STARTCHAR uni20A6
ENCODING 8358
SWIDTH 692 0
DWIDTH 9 0
BBX 6 12 0 0
BITMAP
84
C4
A4
A4
94
94
8C
84
84
84
84
84
ENDCHAR
STARTCHAR peseta
ENCODING 8359
SWIDTH 692 0
DWIDTH 9 0
BBX 6 12 0 0
BITMAP
F8
84
84
84
84
F8
80
80
80
80
80
80
ENDCHAR
STARTCHAR uni20A8
ENCODING 8360
SWIDTH 692 0
DWIDTH 9 0
BBX 6 12 0 0
BITMAP
F8
84
84
84
84
F8
88
88
88
84
84
84
ENDCHAR
STARTCHAR uni20A9
ENCODING 8361
SWIDTH 692 0
DWIDTH 9 0
BBX 7 12 0 0
BITMAP
82
82
82
82
82
82
92
92
AA
AA
44
44
ENDCHAR
STARTCHAR Euro
ENCODING 8364
SWIDTH 692 0
DWIDTH 9 0
BBX 5 12 0 0
BITMAP
F8
80
80
80
80
F0
80
80
80
80
80
F8
ENDCHAR
STARTCHAR uni20AE
ENCODING 8366
SWIDTH 692 0
DWIDTH 9 0
BBX 7 12 0 0
BITMAP
10
7C
92
90
90
70
1C
12
12
92
7C
10
ENDCHAR
STARTCHAR uni2102
ENCODING 8450
SWIDTH 692 0
DWIDTH 9 0
BBX 6 12 0 0
BITMAP
78
84
80
80
80
80
80
80
80
80
84
78
ENDCHAR
STARTCHAR uni2103
ENCODING 8451
SWIDTH 692 0
DWIDTH 9 0
BBX 6 12 0 0
BITMAP
78
84
80
80
80
80
80
80
80
80
84
78
ENDCHAR
STARTCHAR uni2107
ENCODING 8455
SWIDTH 692 0
DWIDTH 9 0
BBX 5 12 0 0
BITMAP
F8
80
80
80
80
F0
80
80
80
80
80
F8
ENDCHAR
STARTCHAR uni2108
ENCODING 8456
SWIDTH 692 0
DWIDTH 9 0
BBX 5 12 0 0
BITMAP
F8
80
80
80
80
F0
80
80
80
80
80
F8
ENDCHAR
STARTCHAR uni2109
ENCODING 8457
SWIDTH 692 0
DWIDTH 9 0
BBX 5 12 0 0
BITMAP
F8
80
80
80
F0
80
80
80
80
80
80
80
ENDCHAR
STARTCHAR uni210A
ENCODING 8458
SWIDTH 692 0
DWIDTH 9 0
BBX 7 12 0 -3
BITMAP
7E
84
84
84
78
80
80
7C
82
82
82
7C
ENDCHAR
STARTCHAR uni210B
ENCODING 8459
SWIDTH 692 0
DWIDTH 9 0
BBX 6 12 0 0
BITMAP
84
84
84
84
84
FC
84
84
84
84
84
84
ENDCHAR
STARTCHAR uni210C
ENCODING 8460
SWIDTH 692 0
DWIDTH 9 0
BBX 6 12 0 0
BITMAP
84
84
84
84
84
FC
84
84
84
84
84
84
ENDCHAR
STARTCHAR uni210D
ENCODING 8461
SWIDTH 692 0
DWIDTH 9 0
BBX 6 12 0 0
BITMAP
84
84
84
84
84
FC
84
84
84
84
84
84
ENDCHAR
STARTCHAR uni210E
ENCODING 8462
SWIDTH 692 0
DWIDTH 9 0
BBX 6 12 0 0
BITMAP
80
80
80
B8
C4
84
84
84
84
84
84
84
ENDCHAR
STARTCHAR uni210F
ENCODING 8463
SWIDTH 692 0
DWIDTH 9 0
BBX 6 12 0 0
BITMAP
80
80
80
B8
C4
84
84
84
84
84
84
84
ENDCHAR
STARTCHAR uni2110
ENCODING 8464
SWIDTH 692 0
DWIDTH 9 0
BBX 5 12 0 0
BITMAP
F8
20
20
20
20
20
20
20
20
20
20
F8
ENDCHAR
STARTCHAR Ifraktur
ENCODING 8465
SWIDTH 692 0
DWIDTH 9 0
BBX 5 12 0 0
BITMAP
F8
20
20
20
20
20
20
20
20
20
20
F8
ENDCHAR
STARTCHAR uni2112
ENCODING 8466
SWIDTH 692 0
DWIDTH 9 0
BBX 6 12 0 0
BITMAP
80
80
80
80
80
80
80
80
80
80
80
FC
ENDCHAR
STARTCHAR afii61289
ENCODING 8467
SWIDTH 692 0
DWIDTH 9 0
BBX 5 12 1 0
BITMAP
E0
20
20
20
20
20
20
20
20
20
20
F8
ENDCHAR
STARTCHAR uni2115
ENCODING 8469
SWIDTH 692 0
DWIDTH 9 0
BBX 6 12 0 0
BITMAP
84
C4
A4
A4
94
94
8C
84
84
84
84
84
ENDCHAR
STARTCHAR afii61352
ENCODING 8470
SWIDTH 692 0
DWIDTH 9 0
BBX 6 12 0 0
BITMAP
84
C4
A4
A4
94
94
8C
84
84
84
84
84
ENDCHAR
STARTCHAR uni2117
ENCODING 8471
SWIDTH 692 0
DWIDTH 9 0
BBX 6 12 0 0
BITMAP
F8
84
84
84
84
F8
80
80
80
80
80
80
ENDCHAR
STARTCHAR weierstrass
ENCODING 8472
SWIDTH 692 0
DWIDTH 9 0
BBX 6 12 0 -3
BITMAP
B8
C4
84
84
84
84
84
C4
B8
80
80
80
ENDCHAR
STARTCHAR uni2119
ENCODING 8473
SWIDTH 692 0
DWIDTH 9 0
BBX 6 12 0 0
BITMAP
F8
84
84
84
84
F8
80
80
80
80
80
80
ENDCHAR
STARTCHAR uni211A
ENCODING 8474
SWIDTH 692 0
DWIDTH 9 0
BBX 6 12 0 0
BITMAP
78
84
84
84
84
84
84
84
84
94
88
74
ENDCHAR
STARTCHAR uni211B
ENCODING 8475
SWIDTH 692 0
DWIDTH 9 0
BBX 6 12 0 0
BITMAP
F8
84
84
84
84
F8
88
88
88
84
84
84
ENDCHAR
STARTCHAR Rfraktur
ENCODING 8476
SWIDTH 692 0
DWIDTH 9 0
BBX 6 12 0 0
BITMAP
F8
84
84
84
84
F8
88
88
88
84
84
84
ENDCHAR
STARTCHAR uni211D
ENCODING 8477
SWIDTH 692 0
DWIDTH 9 0
BBX 6 12 0 0
BITMAP
F8
84
84
84
84
F8
88
88
88
84
84
84
ENDCHAR
STARTCHAR prescription
ENCODING 8478
SWIDTH 692 0
DWIDTH 9 0
BBX 6 12 0 0
BITMAP
F8
84
84
84
84
F8
88
88
88
84
84
84
ENDCHAR
STARTCHAR uni211F
ENCODING 8479
SWIDTH 692 0
DWIDTH 9 0
BBX 6 12 0 0
BITMAP
F8
84
84
84
84
F8
88
88
88
84
84
84
ENDCHAR
STARTCHAR uni2123
ENCODING 8483
SWIDTH 692 0
DWIDTH 9 0
BBX 7 12 0 0
BITMAP
82
82
82
82
44
44
44
28
28
28
10
10
ENDCHAR
STARTCHAR uni2124
ENCODING 8484
SWIDTH 692 0
DWIDTH 9 0
BBX 6 12 0 0
BITMAP
FC
04
04
08
10
10
20
40
40
80
80
FC
ENDCHAR
STARTCHAR uni2125
ENCODING 8485
SWIDTH 692 0
DWIDTH 9 0
BBX 6 9 0 0
BITMAP
FC
04
08
10
20
20
40
80
FC
ENDCHAR
STARTCHAR Omega
ENCODING 8486
SWIDTH 692 0
DWIDTH 9 0
BBX 6 12 0 0
BITMAP
78
84
84
84
84
84
84
84
84
84
84
78
ENDCHAR
STARTCHAR uni2128
ENCODING 8488
SWIDTH 692 0
DWIDTH 9 0
BBX 6 12 0 0
BITMAP
FC
04
04
08
10
10
20
40
40
80
80
FC
ENDCHAR
STARTCHAR uni2129
ENCODING 8489
SWIDTH 692 0
DWIDTH 9 0
BBX 5 12 1 0
BITMAP
20
00
00
E0
20
20
20
20
20
20
20
F8
ENDCHAR
STARTCHAR uni212A
ENCODING 8490
SWIDTH 692 0
DWIDTH 9 0
BBX 6 12 0 0
BITMAP
84
84
88
90
90
A0
E0
90
88
88
84
84
ENDCHAR
STARTCHAR uni212B
ENCODING 8491
SWIDTH 692 0
DWIDTH 9 0
BBX 6 12 0 0
BITMAP
30
48
48
48
84
84
84
FC
84
84
84
84
ENDCHAR
STARTCHAR uni212C
ENCODING 8492
SWIDTH 692 0
DWIDTH 9 0
BBX 6 12 0 0
BITMAP
F8
84
84
84
84
F8
84
84
84
84
84
F8
ENDCHAR
STARTCHAR uni212D
ENCODING 8493
SWIDTH 692 0
DWIDTH 9 0
BBX 6 12 0 0
BITMAP
78
84
80
80
80
80
80
80
80
80
84
78
ENDCHAR
STARTCHAR estimated
ENCODING 8494
SWIDTH 692 0
DWIDTH 9 0
BBX 6 9 0 0
BITMAP
78
84
84
84
FC
80
80
84
78
ENDCHAR
STARTCHAR uni212F
ENCODING 8495
SWIDTH 692 0
DWIDTH 9 0
BBX 6 9 0 0
BITMAP
78
84
84
84
FC
80
80
84
78
ENDCHAR
STARTCHAR uni2130
ENCODING 8496
SWIDTH 692 0
DWIDTH 9 0
BBX 5 12 0 0
BITMAP
F8
80
80
80
80
F0
80
80
80
80
80
F8
ENDCHAR
STARTCHAR uni2131
ENCODING 8497
SWIDTH 692 0
DWIDTH 9 0
BBX 5 12 0 0
BITMAP
F8
80
80
80
F0
80
80
80
80
80
80
80
ENDCHAR
STARTCHAR uni2132
ENCODING 8498
SWIDTH 692 0
DWIDTH 9 0
BBX 5 12 0 0
BITMAP
F8
80
80
80
F0
80
80
80
80
80
80
80
ENDCHAR
STARTCHAR uni2133
ENCODING 8499
SWIDTH 692 0
DWIDTH 9 0
BBX 7 12 0 0
BITMAP
82
C6
AA
AA
92
82
82
82
82
82
82
82
ENDCHAR
STARTCHAR uni2134
ENCODING 8500
SWIDTH 692 0
DWIDTH 9 0
BBX 6 9 0 0
BITMAP
78
84
84
84
84
84
84
84
78
ENDCHAR
STARTCHAR uni2160
ENCODING 8544
SWIDTH 692 0
DWIDTH 9 0
BBX 5 12 0 0
BITMAP
F8
20
20
20
20
20
20
20
20
20
20
F8
ENDCHAR
STARTCHAR uni2164
ENCODING 8548
SWIDTH 692 0
DWIDTH 9 0
BBX 7 12 0 0
BITMAP
82
82
82
82
44
44
44
28
28
28
10
10
ENDCHAR
STARTCHAR uni2169
ENCODING 8553
SWIDTH 692 0
DWIDTH 9 0
BBX 7 12 0 0
BITMAP
82
82
44
44
28
10
10
28
28
44
82
82
ENDCHAR
STARTCHAR uni216C
ENCODING 8556
SWIDTH 692 0
DWIDTH 9 0
BBX 6 12 0 0
BITMAP
80
80
80
80
80
80
80
80
80
80
80
FC
ENDCHAR
STARTCHAR uni216D
ENCODING 8557
SWIDTH 692 0
DWIDTH 9 0
BBX 6 12 0 0
BITMAP
78
84
80
80
80
80
80
80
80
80
84
78
ENDCHAR
STARTCHAR uni216E
ENCODING 8558
SWIDTH 692 0
DWIDTH 9 0
BBX 6 12 0 0
BITMAP
F0
88
84
84
84
84
84
84
84
84
88
F0
ENDCHAR
STARTCHAR uni216F
ENCODING 8559
SWIDTH 692 0
DWIDTH 9 0
BBX 7 12 0 0
BITMAP
82
C6
AA
AA
92
82
82
82
82
82
82
82
ENDCHAR
STARTCHAR uni2170
ENCODING 8560
SWIDTH 692 0
DWIDTH 9 0
BBX 5 12 1 0
BITMAP
20
00
00
E0
20
20
20
20
20
20
20
F8
ENDCHAR
STARTCHAR uni2174
ENCODING 8564
SWIDTH 692 0
DWIDTH 9 0
BBX 7 9 0 0
BITMAP
82
82
82
44
44
28
28
28
10
ENDCHAR
STARTCHAR uni2179
ENCODING 8569
SWIDTH 692 0
DWIDTH 9 0
BBX 7 9 0 0
BITMAP
82
82
44
28
10
28
44
82
82
ENDCHAR
STARTCHAR uni217C
ENCODING 8572
SWIDTH 692 0
DWIDTH 9 0
BBX 5 12 1 0
BITMAP
E0
20
20
20
20
20
20
20
20
20
20
F8
ENDCHAR
STARTCHAR uni217D
ENCODING 8573
SWIDTH 692 0
DWIDTH 9 0
BBX 6 9 0 0
BITMAP
78
84
80
80
80
80
80
84
78
ENDCHAR
STARTCHAR uni217E
ENCODING 8574
SWIDTH 692 0
DWIDTH 9 0
BBX 6 12 0 0
BITMAP
04
04
04
74
8C
84
84
84
84
84
8C
74
ENDCHAR
STARTCHAR uni217F
ENCODING 8575
SWIDTH 692 0
DWIDTH 9 0
BBX 7 9 0 0
BITMAP
EC
92
92
92
92
92
92
92
92
ENDCHAR
STARTCHAR arrowleft
ENCODING 8592
SWIDTH 692 0
DWIDTH 9 0
BBX 5 9 1 1
BITMAP
08
10
20
40
80
40
20
10
08
ENDCHAR
STARTCHAR arrowup
ENCODING 8593
SWIDTH 692 0
DWIDTH 9 0
BBX 5 5 1 7
BITMAP
20
50
50
88
88
ENDCHAR
STARTCHAR arrowright
ENCODING 8594
SWIDTH 692 0
DWIDTH 9 0
BBX 5 9 1 1
BITMAP
80
40
20
10
08
10
20
40
80
ENDCHAR
STARTCHAR arrowdown
ENCODING 8595
SWIDTH 692 0
DWIDTH 9 0
BBX 7 9 0 0
BITMAP
82
82
82
44
44
28
28
28
10
ENDCHAR
STARTCHAR arrowboth
ENCODING 8596
SWIDTH 692 0
DWIDTH 9 0
BBX 5 1 1 5
BITMAP
F8
ENDCHAR
STARTCHAR arrowupdn
ENCODING 8597
SWIDTH 692 0
DWIDTH 9 0
BBX 1 12 3 0
BITMAP
80
80
80
80
80
80
80
80
80
80
80
80
ENDCHAR
STARTCHAR arrowupdnbse
ENCODING 8616
SWIDTH 692 0
DWIDTH 9 0
BBX 1 12 3 0
BITMAP
80
80
80
80
80
80
80
80
80
80
80
80
ENDCHAR
STARTCHAR arrowdblleft
ENCODING 8656
SWIDTH 692 0
DWIDTH 9 0
BBX 5 9 1 1
BITMAP
08
10
20
40
80
40
20
10
08
ENDCHAR
STARTCHAR arrowdblup
ENCODING 8657
SWIDTH 692 0
DWIDTH 9 0
BBX 5 5 1 7
BITMAP
20
50
50
88
88
ENDCHAR
STARTCHAR arrowdblright
ENCODING 8658
SWIDTH 692 0
DWIDTH 9 0
BBX 5 9 1 1
BITMAP
80
40
20
10
08
10
20
40
80
ENDCHAR
STARTCHAR arrowdbldown
ENCODING 8659
SWIDTH 692 0
DWIDTH 9 0
BBX 7 9 0 0
BITMAP
82
82
82
44
44
28
28
28
10
ENDCHAR
STARTCHAR arrowdblboth
ENCODING 8660
SWIDTH 692 0
DWIDTH 9 0
BBX 6 5 0 3
BITMAP
FC
00
00
00
FC
ENDCHAR
STARTCHAR universal
ENCODING 8704
SWIDTH 692 0
DWIDTH 9 0
BBX 6 12 0 0
BITMAP
30
48
48
48
84
84
84
FC
84
84
84
84
ENDCHAR
STARTCHAR partialdiff
ENCODING 8706
SWIDTH 692 0
DWIDTH 9 0
BBX 6 12 0 0
BITMAP
04
04
04
74
8C
84
84
84
84
84
8C
74
ENDCHAR
STARTCHAR existential
ENCODING 8707
SWIDTH 692 0
DWIDTH 9 0
BBX 5 12 0 0
BITMAP
F8
80
80
80
80
F0
80
80
80
80
80
F8
ENDCHAR
STARTCHAR emptyset
ENCODING 8709
SWIDTH 692 0
DWIDTH 9 0
BBX 7 12 0 0
BITMAP
38
44
82
82
8A
92
92
A2
82
82
44
38
ENDCHAR
STARTCHAR Delta
ENCODING 8710
SWIDTH 692 0
DWIDTH 9 0
BBX 6 12 0 0
BITMAP
F0
88
84
84
84
84
84
84
84
84
88
F0
ENDCHAR
STARTCHAR element
ENCODING 8712
SWIDTH 692 0
DWIDTH 9 0
BBX 4 14 1 -1
BITMAP
10
20
40
40
80
80
80
80
80
80
40
40
20
10
ENDCHAR
STARTCHAR suchthat
ENCODING 8715
SWIDTH 692 0
DWIDTH 9 0
BBX 4 14 1 -1
BITMAP
80
40
20
20
10
10
10
10
10
10
20
20
40
80
ENDCHAR
STARTCHAR product
ENCODING 8719
SWIDTH 692 0
DWIDTH 9 0
BBX 6 12 0 0
BITMAP
F8
84
84
84
84
F8
80
80
80
80
80
80
ENDCHAR
STARTCHAR summation
ENCODING 8721
SWIDTH 692 0
DWIDTH 9 0
BBX 6 12 0 0
BITMAP
78
84
80
80
40
30
08
04
04
04
84
78
ENDCHAR
STARTCHAR minus
ENCODING 8722
SWIDTH 692 0
DWIDTH 9 0
BBX 5 1 1 5
BITMAP
F8
ENDCHAR
STARTCHAR fraction
ENCODING 8725
SWIDTH 692 0
DWIDTH 9 0
BBX 5 12 1 0
BITMAP
08
08
10
10
10
20
20
40
40
40
80
80
ENDCHAR
STARTCHAR uni2216
ENCODING 8726
SWIDTH 692 0
DWIDTH 9 0
BBX 5 12 1 0
BITMAP
80
80
40
40
40
20
20
10
10
10
08
08
ENDCHAR
STARTCHAR asteriskmath
ENCODING 8727
SWIDTH 692 0
DWIDTH 9 0
BBX 5 6 1 4
BITMAP
20
A8
70
70
A8
20
ENDCHAR
STARTCHAR uni2218
ENCODING 8728
SWIDTH 692 0
DWIDTH 9 0
BBX 4 4 1 8
BITMAP
60
90
90
60
ENDCHAR
STARTCHAR periodcentered
ENCODING 8729
SWIDTH 692 0
DWIDTH 9 0
BBX 2 3 2 0
BITMAP
C0
C0
C0
ENDCHAR
STARTCHAR orthogonal
ENCODING 8735
SWIDTH 692 0
DWIDTH 9 0
BBX 6 12 0 0
BITMAP
80
80
80
80
80
80
80
80
80
80
80
FC
ENDCHAR
STARTCHAR angle
ENCODING 8736
SWIDTH 692 0
DWIDTH 9 0
BBX 7 12 0 0
BITMAP
82
82
82
82
44
44
44
28
28
28
10
10
ENDCHAR
STARTCHAR uni2223
ENCODING 8739
SWIDTH 692 0
DWIDTH 9 0
BBX 1 12 3 0
BITMAP
80
80
80
80
80
80
80
80
80
80
80
80
ENDCHAR
STARTCHAR logicaland
ENCODING 8743
SWIDTH 692 0
DWIDTH 9 0
BBX 7 12 0 0
BITMAP
30
48
48
48
30
60
D2
92
8A
8A
C4
7A
ENDCHAR
STARTCHAR logicalor
ENCODING 8744
SWIDTH 692 0
DWIDTH 9 0
BBX 1 12 3 0
BITMAP
80
80
80
80
80
80
80
80
80
80
80
80
ENDCHAR
STARTCHAR intersection
ENCODING 8745
SWIDTH 692 0
DWIDTH 9 0
BBX 5 6 1 4
BITMAP
20
A8
70
70
A8
20
ENDCHAR
STARTCHAR union
ENCODING 8746
SWIDTH 692 0
DWIDTH 9 0
BBX 7 7 0 2
BITMAP
10
10
10
FE
10
10
10
ENDCHAR
STARTCHAR uni2236
ENCODING 8758
SWIDTH 692 0
DWIDTH 9 0
BBX 2 8 3 1
BITMAP
C0
C0
00
00
00
00
C0
C0
ENDCHAR
STARTCHAR similar
ENCODING 8764
SWIDTH 692 0
DWIDTH 9 0
BBX 7 3 0 4
BITMAP
60
92
0C
ENDCHAR
STARTCHAR congruent
ENCODING 8773
SWIDTH 692 0
DWIDTH 9 0
BBX 6 5 0 3
BITMAP
FC
00
00
00
FC
ENDCHAR
STARTCHAR approxequal
ENCODING 8776
SWIDTH 692 0
DWIDTH 9 0
BBX 6 5 0 3
BITMAP
FC
00
00
00
FC
ENDCHAR
STARTCHAR uni2254
ENCODING 8788
SWIDTH 692 0
DWIDTH 9 0
BBX 6 5 0 3
BITMAP
FC
00
00
00
FC
ENDCHAR
STARTCHAR uni2255
ENCODING 8789
SWIDTH 692 0
DWIDTH 9 0
BBX 6 5 0 3
BITMAP
FC
00
00
00
FC
ENDCHAR
STARTCHAR equivalence
ENCODING 8801
SWIDTH 692 0
DWIDTH 9 0
BBX 6 5 0 3
BITMAP
FC
00
00
00
FC
ENDCHAR
STARTCHAR lessequal
ENCODING 8804
SWIDTH 692 0
DWIDTH 9 0
BBX 5 9 1 1
BITMAP
08
10
20
40
80
40
20
10
08
ENDCHAR
STARTCHAR greaterequal
ENCODING 8805
SWIDTH 692 0
DWIDTH 9 0
BBX 5 9 1 1
BITMAP
80
40
20
10
08
10
20
40
80
ENDCHAR
STARTCHAR uni226A
ENCODING 8810
SWIDTH 692 0
DWIDTH 9 0
BBX 5 9 1 1
BITMAP
08
10
20
40
80
40
20
10
08
ENDCHAR
STARTCHAR uni226B
ENCODING 8811
SWIDTH 692 0
DWIDTH 9 0
BBX 5 9 1 1
BITMAP
80
40
20
10
08
10
20
40
80
ENDCHAR
STARTCHAR propersubset
ENCODING 8834
SWIDTH 692 0
DWIDTH 9 0
BBX 4 14 1 -1
BITMAP
10
20
40
40
80
80
80
80
80
80
40
40
20
10
ENDCHAR
STARTCHAR propersuperset
ENCODING 8835
SWIDTH 692 0
DWIDTH 9 0
BBX 4 14 1 -1
BITMAP
80
40
20
20
10
10
10
10
10
10
20
20
40
80
ENDCHAR
STARTCHAR circleplus
ENCODING 8853
SWIDTH 692 0
DWIDTH 9 0
BBX 7 7 0 2
BITMAP
10
10
10
FE
10
10
10
ENDCHAR
STARTCHAR circlemultiply
ENCODING 8855
SWIDTH 692 0
DWIDTH 9 0
BBX 7 9 0 0
BITMAP
82
82
44
28
10
28
44
82
82
ENDCHAR
STARTCHAR uni2299
ENCODING 8857
SWIDTH 692 0
DWIDTH 9 0
BBX 2 3 2 0
BITMAP
C0
C0
C0
ENDCHAR
STARTCHAR uni229A
ENCODING 8858
SWIDTH 692 0
DWIDTH 9 0
BBX 6 9 0 0
BITMAP
78
84
84
84
84
84
84
84
78
ENDCHAR
STARTCHAR dotmath
ENCODING 8901
SWIDTH 692 0
DWIDTH 9 0
BBX 2 3 2 0
BITMAP
C0
C0
C0
ENDCHAR
STARTCHAR uni22D5
ENCODING 8917
SWIDTH 692 0
DWIDTH 9 0
BBX 8 11 0 0
BITMAP
12
12
12
7F
24
24
24
FE
48
48
48
ENDCHAR
STARTCHAR uni22EE
ENCODING 8942
SWIDTH 692 0
DWIDTH 9 0
BBX 2 3 2 0
BITMAP
C0
C0
C0
ENDCHAR
STARTCHAR uni22EF
ENCODING 8943
SWIDTH 692 0
DWIDTH 9 0
BBX 2 3 2 0
BITMAP
C0
C0
C0
ENDCHAR
STARTCHAR uni22F0
ENCODING 8944
SWIDTH 692 0
DWIDTH 9 0
BBX 2 3 2 0
BITMAP
C0
C0
C0
ENDCHAR
STARTCHAR uni22F1
ENCODING 8945
SWIDTH 692 0
DWIDTH 9 0
BBX 2 3 2 0
BITMAP
C0
C0
C0
ENDCHAR
STARTCHAR house
ENCODING 8962
SWIDTH 692 0
DWIDTH 9 0
BBX 5 5 1 7
BITMAP
20
50
50
88
88
ENDCHAR
STARTCHAR revlogicalnot
ENCODING 8976
SWIDTH 692 0
DWIDTH 9 0
BBX 5 1 1 5
BITMAP
F8
ENDCHAR
STARTCHAR integraltp
ENCODING 8992
SWIDTH 692 0
DWIDTH 9 0
BBX 5 12 1 0
BITMAP
08
08
10
10
10
20
20
40
40
40
80
80
ENDCHAR
STARTCHAR integralbt
ENCODING 8993
SWIDTH 692 0
DWIDTH 9 0
BBX 5 12 1 0
BITMAP
08
08
10
10
10
20
20
40
40
40
80
80
ENDCHAR
STARTCHAR uni2400
ENCODING 9216
SWIDTH 692 0
DWIDTH 9 0
BBX 6 12 0 0
BITMAP
78
84
84
84
9C
A4
A4
A4
9C
80
80
78
ENDCHAR
STARTCHAR uni2401
ENCODING 9217
SWIDTH 692 0
DWIDTH 9 0
BBX 6 12 0 0
BITMAP
30
48
48
48
84
84
84
FC
84
84
84
84
ENDCHAR
STARTCHAR uni2402
ENCODING 9218
SWIDTH 692 0
DWIDTH 9 0
BBX 6 12 0 0
BITMAP
F8
84
84
84
84
F8
84
84
84
84
84
F8
ENDCHAR
STARTCHAR uni2403
ENCODING 9219
SWIDTH 692 0
DWIDTH 9 0
BBX 6 12 0 0
BITMAP
78
84
80
80
80
80
80
80
80
80
84
78
ENDCHAR
STARTCHAR uni2404
ENCODING 9220
SWIDTH 692 0
DWIDTH 9 0
BBX 6 12 0 0
BITMAP
F0
88
84
84
84
84
84
84
84
84
88
F0
ENDCHAR
STARTCHAR uni2405
ENCODING 9221
SWIDTH 692 0
DWIDTH 9 0
BBX 5 12 0 0
BITMAP
F8
80
80
80
80
F0
80
80
80
80
80
F8
ENDCHAR
STARTCHAR uni2406
ENCODING 9222
SWIDTH 692 0
DWIDTH 9 0
BBX 5 12 0 0
BITMAP
F8
80
80
80
F0
80
80
80
80
80
80
80
ENDCHAR
STARTCHAR uni2407
ENCODING 9223
SWIDTH 692 0
DWIDTH 9 0
BBX 6 12 0 0
BITMAP
78
84
80
80
80
80
80
8C
84
84
84
78
ENDCHAR
STARTCHAR uni2408
ENCODING 9224
SWIDTH 692 0
DWIDTH 9 0
BBX 6 12 0 0
BITMAP
84
84
84
84
84
FC
84
84
84
84
84
84
ENDCHAR
STARTCHAR uni2409
ENCODING 9225
SWIDTH 692 0
DWIDTH 9 0
BBX 5 12 0 0
BITMAP
F8
20
20
20
20
20
20
20
20
20
20
F8
ENDCHAR
STARTCHAR uni240A
ENCODING 9226
SWIDTH 692 0
DWIDTH 9 0
BBX 6 12 0 0
BITMAP
FC
04
04
04
04
04
04
04
04
84
84
78
ENDCHAR
STARTCHAR uni240B
ENCODING 9227
SWIDTH 692 0
DWIDTH 9 0
BBX 6 12 0 0
BITMAP
84
84
88
90
90
A0
E0
90
88
88
84
84
ENDCHAR
STARTCHAR uni240C
ENCODING 9228
SWIDTH 692 0
DWIDTH 9 0
BBX 6 12 0 0
BITMAP
80
80
80
80
80
80
80
80
80
80
80
FC
ENDCHAR
STARTCHAR uni240D
ENCODING 9229
SWIDTH 692 0
DWIDTH 9 0
BBX 7 12 0 0
BITMAP
82
C6
AA
AA
92
82
82
82
82
82
82
82
ENDCHAR
STARTCHAR uni240E
ENCODING 9230
SWIDTH 692 0
DWIDTH 9 0
BBX 6 12 0 0
BITMAP
84
C4
A4
A4
94
94
8C
84
84
84
84
84
ENDCHAR
STARTCHAR uni240F
ENCODING 9231
SWIDTH 692 0
DWIDTH 9 0
BBX 6 12 0 0
BITMAP
78
84
84
84
84
84
84
84
84
84
84
78
ENDCHAR
STARTCHAR uni2410
ENCODING 9232
SWIDTH 692 0
DWIDTH 9 0
BBX 6 12 0 0
BITMAP
F8
84
84
84
84
F8
80
80
80
80
80
80
ENDCHAR
STARTCHAR uni2411
ENCODING 9233
SWIDTH 692 0
DWIDTH 9 0
BBX 6 12 0 0
BITMAP
78
84
84
84
84
84
84
84
84
94
88
74
ENDCHAR
STARTCHAR uni2412
ENCODING 9234
SWIDTH 692 0
DWIDTH 9 0
BBX 6 12 0 0
BITMAP
F8
84
84
84
84
F8
88
88
88
84
84
84
ENDCHAR
STARTCHAR uni2413
ENCODING 9235
SWIDTH 692 0
DWIDTH 9 0
BBX 6 12 0 0
BITMAP
78
84
80
80
40
30
08
04
04
04
84
78
ENDCHAR
STARTCHAR uni2414
ENCODING 9236
SWIDTH 692 0
DWIDTH 9 0
BBX 7 12 0 0
BITMAP
FE
10
10
10
10
10
10
10
10
10
10
10
ENDCHAR
STARTCHAR uni2415
ENCODING 9237
SWIDTH 692 0
DWIDTH 9 0
BBX 6 12 0 0
BITMAP
84
84
84
84
84
84
84
84
84
84
84
78
ENDCHAR
STARTCHAR uni2416
ENCODING 9238
SWIDTH 692 0
DWIDTH 9 0
BBX 7 12 0 0
BITMAP
82
82
82
82
44
44
44
28
28
28
10
10
ENDCHAR
STARTCHAR uni2417
ENCODING 9239
SWIDTH 692 0
DWIDTH 9 0
BBX 7 12 0 0
BITMAP
82
82
82
82
82
82
92
92
AA
AA
44
44
ENDCHAR
STARTCHAR uni2418
ENCODING 9240
SWIDTH 692 0
DWIDTH 9 0
BBX 7 12 0 0
BITMAP
82
82
44
44
28
10
10
28
28
44
82
82
ENDCHAR
STARTCHAR uni2419
ENCODING 9241
SWIDTH 692 0
DWIDTH 9 0
BBX 7 12 0 0
BITMAP
82
82
44
44
28
28
10
10
10
10
10
10
ENDCHAR
STARTCHAR uni241A
ENCODING 9242
SWIDTH 692 0
DWIDTH 9 0
BBX 6 12 0 0
BITMAP
FC
04
04
08
10
10
20
40
40
80
80
FC
ENDCHAR
STARTCHAR uni241B
ENCODING 9243
SWIDTH 692 0
DWIDTH 9 0
BBX 3 13 2 0
BITMAP
E0
80
80
80
80
80
80
80
80
80
80
80
E0
ENDCHAR
STARTCHAR uni241C
ENCODING 9244
SWIDTH 692 0
DWIDTH 9 0
BBX 5 12 1 0
BITMAP
80
80
40
40
40
20
20
10
10
10
08
08
ENDCHAR
STARTCHAR uni241D
ENCODING 9245
SWIDTH 692 0
DWIDTH 9 0
BBX 3 13 2 0
BITMAP
E0
20
20
20
20
20
20
20
20
20
20
20
E0
ENDCHAR
STARTCHAR uni241E
ENCODING 9246
SWIDTH 692 0
DWIDTH 9 0
BBX 5 5 1 7
BITMAP
20
50
50
88
88
ENDCHAR
STARTCHAR uni241F
ENCODING 9247
SWIDTH 692 0
DWIDTH 9 0
BBX 7 1 0 0
BITMAP
FE
ENDCHAR
STARTCHAR uni2420
ENCODING 9248
SWIDTH 692 0
DWIDTH 9 0
BBX 7 1 0 0
BITMAP
FE
ENDCHAR
STARTCHAR uni2421
ENCODING 9249
SWIDTH 692 0
DWIDTH 9 0
BBX 6 12 0 0
BITMAP
78
84
04
04
04
08
10
20
00
00
20
20
ENDCHAR
STARTCHAR uni2422
ENCODING 9250
SWIDTH 692 0
DWIDTH 9 0
BBX 6 12 0 0
BITMAP
80
80
80
B8
C4
84
84
84
84
84
C4
B8
ENDCHAR
STARTCHAR uni2423
ENCODING 9251
SWIDTH 692 0
DWIDTH 9 0
BBX 7 1 0 0
BITMAP
FE
ENDCHAR
STARTCHAR uni2460
ENCODING 9312
SWIDTH 692 0
DWIDTH 9 0
BBX 4 12 1 0
BITMAP
30
50
90
10
10
10
10
10
10
10
10
10
ENDCHAR
STARTCHAR uni2461
ENCODING 9313
SWIDTH 692 0
DWIDTH 9 0
BBX 6 12 1 0
BITMAP
78
84
04
04
08
10
20
40
40
80
80
FC
ENDCHAR
STARTCHAR uni2462
ENCODING 9314
SWIDTH 692 0
DWIDTH 9 0
BBX 6 12 1 0
BITMAP
78
84
04
04
04
38
04
04
04
04
84
78
ENDCHAR
STARTCHAR uni2463
ENCODING 9315
SWIDTH 692 0
DWIDTH 9 0
BBX 6 12 1 0
BITMAP
08
18
18
28
28
48
48
88
FC
08
08
08
ENDCHAR
STARTCHAR uni2464
ENCODING 9316
SWIDTH 692 0
DWIDTH 9 0
BBX 6 12 1 0
BITMAP
FC
80
80
80
F8
04
04
04
04
04
84
78
ENDCHAR
STARTCHAR uni2465
ENCODING 9317
SWIDTH 692 0
DWIDTH 9 0
BBX 6 12 1 0
BITMAP
78
84
80
80
80
F8
84
84
84
84
84
78
ENDCHAR
STARTCHAR uni2466
ENCODING 9318
SWIDTH 692 0
DWIDTH 9 0
BBX 6 12 1 0
BITMAP
FC
04
04
08
08
10
10
10
20
20
20
20
ENDCHAR
STARTCHAR uni2467
ENCODING 9319
SWIDTH 692 0
DWIDTH 9 0
BBX 6 12 1 0
BITMAP
78
84
84
84
84
78
84
84
84
84
84
78
ENDCHAR
STARTCHAR uni2468
ENCODING 9320
SWIDTH 692 0
DWIDTH 9 0
BBX 6 12 1 0
BITMAP
78
84
84
84
84
84
7C
04
04
04
84
78
ENDCHAR
STARTCHAR uni2474
ENCODING 9332
SWIDTH 692 0
DWIDTH 9 0
BBX 4 12 1 0
BITMAP
30
50
90
10
10
10
10
10
10
10
10
10
ENDCHAR
STARTCHAR uni2475
ENCODING 9333
SWIDTH 692 0
DWIDTH 9 0
BBX 6 12 1 0
BITMAP
78
84
04
04
08
10
20
40
40
80
80
FC
ENDCHAR
STARTCHAR uni2476
ENCODING 9334
SWIDTH 692 0
DWIDTH 9 0
BBX 6 12 1 0
BITMAP
78
84
04
04
04
38
04
04
04
04
84
78
ENDCHAR
STARTCHAR uni2477
ENCODING 9335
SWIDTH 692 0
DWIDTH 9 0
BBX 6 12 1 0
BITMAP
08
18
18
28
28
48
48
88
FC
08
08
08
ENDCHAR
STARTCHAR uni2478
ENCODING 9336
SWIDTH 692 0
DWIDTH 9 0
BBX 6 12 1 0
BITMAP
FC
80
80
80
F8
04
04
04
04
04
84
78
ENDCHAR
STARTCHAR uni2479
ENCODING 9337
SWIDTH 692 0
DWIDTH 9 0
BBX 6 12 1 0
BITMAP
78
84
80
80
80
F8
84
84
84
84
84
78
ENDCHAR
STARTCHAR uni247A
ENCODING 9338
SWIDTH 692 0
DWIDTH 9 0
BBX 6 12 1 0
BITMAP
FC
04
04
08
08
10
10
10
20
20
20
20
ENDCHAR
STARTCHAR uni247B
ENCODING 9339
SWIDTH 692 0
DWIDTH 9 0
BBX 6 12 1 0
BITMAP
78
84
84
84
84
78
84
84
84
84
84
78
ENDCHAR
STARTCHAR uni247C
ENCODING 9340
SWIDTH 692 0
DWIDTH 9 0
BBX 6 12 1 0
BITMAP
78
84
84
84
84
84
7C
04
04
04
84
78
ENDCHAR
STARTCHAR uni2488
ENCODING 9352
SWIDTH 692 0
DWIDTH 9 0
BBX 4 12 1 0
BITMAP
30
50
90
10
10
10
10
10
10
10
10
10
ENDCHAR
STARTCHAR uni2489
ENCODING 9353
SWIDTH 692 0
DWIDTH 9 0
BBX 6 12 1 0
BITMAP
78
84
04
04
08
10
20
40
40
80
80
FC
ENDCHAR
STARTCHAR uni248A
ENCODING 9354
SWIDTH 692 0
DWIDTH 9 0
BBX 6 12 1 0
BITMAP
78
84
04
04
04
38
04
04
04
04
84
78
ENDCHAR
STARTCHAR uni248B
ENCODING 9355
SWIDTH 692 0
DWIDTH 9 0
BBX 6 12 1 0
BITMAP
08
18
18
28
28
48
48
88
FC
08
08
08
ENDCHAR
STARTCHAR uni248C
ENCODING 9356
SWIDTH 692 0
DWIDTH 9 0
BBX 6 12 1 0
BITMAP
FC
80
80
80
F8
04
04
04
04
04
84
78
ENDCHAR
STARTCHAR uni248D
ENCODING 9357
SWIDTH 692 0
DWIDTH 9 0
BBX 6 12 1 0
BITMAP
78
84
80
80
80
F8
84
84
84
84
84
78
ENDCHAR
STARTCHAR uni248E
ENCODING 9358
SWIDTH 692 0
DWIDTH 9 0
BBX 6 12 1 0
BITMAP
FC
04
04
08
08
10
10
10
20
20
20
20
ENDCHAR
STARTCHAR uni248F
ENCODING 9359
SWIDTH 692 0
DWIDTH 9 0
BBX 6 12 1 0
BITMAP
78
84
84
84
84
78
84
84
84
84
84
78
ENDCHAR
STARTCHAR uni2490
ENCODING 9360
SWIDTH 692 0
DWIDTH 9 0
BBX 6 12 1 0
BITMAP
78
84
84
84
84
84
7C
04
04
04
84
78
ENDCHAR
STARTCHAR uni249C
ENCODING 9372
SWIDTH 692 0
DWIDTH 9 0
BBX 6 9 0 0
BITMAP
78
84
04
04
7C
84
84
8C
74
ENDCHAR
STARTCHAR uni249D
ENCODING 9373
SWIDTH 692 0
DWIDTH 9 0
BBX 6 12 0 0
BITMAP
80
80
80
B8
C4
84
84
84
84
84
C4
B8
ENDCHAR
STARTCHAR uni249E
ENCODING 9374
SWIDTH 692 0
DWIDTH 9 0
BBX 6 9 0 0
BITMAP
78
84
80
80
80
80
80
84
78
ENDCHAR
STARTCHAR uni249F
ENCODING 9375
SWIDTH 692 0
DWIDTH 9 0
BBX 6 12 0 0
BITMAP
04
04
04
74
8C
84
84
84
84
84
8C
74
ENDCHAR
STARTCHAR uni24A0
ENCODING 9376
SWIDTH 692 0
DWIDTH 9 0
BBX 6 9 0 0
BITMAP
78
84
84
84
FC
80
80
84
78
ENDCHAR
STARTCHAR uni24A1
ENCODING 9377
SWIDTH 692 0
DWIDTH 9 0
BBX 6 12 0 0
BITMAP
1C
20
20
20
FC
20
20
20
20
20
20
20
ENDCHAR
STARTCHAR uni24A2
ENCODING 9378
SWIDTH 692 0
DWIDTH 9 0
BBX 7 12 0 -3
BITMAP
7E
84
84
84
78
80
80
7C
82
82
82
7C
ENDCHAR
STARTCHAR uni24A3
ENCODING 9379
SWIDTH 692 0
DWIDTH 9 0
BBX 6 12 0 0
BITMAP
80
80
80
B8
C4
84
84
84
84
84
84
84
ENDCHAR
STARTCHAR uni24A4
ENCODING 9380
SWIDTH 692 0
DWIDTH 9 0
BBX 5 12 1 0
BITMAP
20
00
00
E0
20
20
20
20
20
20
20
F8
ENDCHAR
STARTCHAR uni24A5
ENCODING 9381
SWIDTH 692 0
DWIDTH 9 0
BBX 5 14 1 -2
BITMAP
08
00
00
38
08
08
08
08
08
08
08
08
88
70
ENDCHAR
STARTCHAR uni24A6
ENCODING 9382
SWIDTH 692 0
DWIDTH 9 0
BBX 6 12 0 0
BITMAP
80
80
80
84
88
90
A0
E0
90
88
84
84
ENDCHAR
STARTCHAR uni24A7
ENCODING 9383
SWIDTH 692 0
DWIDTH 9 0
BBX 5 12 1 0
BITMAP
E0
20
20
20
20
20
20
20
20
20
20
F8
ENDCHAR
STARTCHAR uni24A8
ENCODING 9384
SWIDTH 692 0
DWIDTH 9 0
BBX 7 9 0 0
BITMAP
EC
92
92
92
92
92
92
92
92
ENDCHAR
STARTCHAR uni24A9
ENCODING 9385
SWIDTH 692 0
DWIDTH 9 0
BBX 6 9 0 0
BITMAP
B8
C4
84
84
84
84
84
84
84
ENDCHAR
STARTCHAR uni24AA
ENCODING 9386
SWIDTH 692 0
DWIDTH 9 0
BBX 6 9 0 0
BITMAP
78
84
84
84
84
84
84
84
78
ENDCHAR
STARTCHAR uni24AB
ENCODING 9387
SWIDTH 692 0
DWIDTH 9 0
BBX 6 12 0 -3
BITMAP
B8
C4
84
84
84
84
84
C4
B8
80
80
80
ENDCHAR
STARTCHAR uni24AC
ENCODING 9388
SWIDTH 692 0
DWIDTH 9 0
BBX 6 12 0 -3
BITMAP
74
8C
84
84
84
84
84
8C
74
04
04
04
ENDCHAR
STARTCHAR uni24AD
ENCODING 9389
SWIDTH 692 0
DWIDTH 9 0
BBX 6 9 0 0
BITMAP
B8
C4
80
80
80
80
80
80
80
ENDCHAR
STARTCHAR uni24AE
ENCODING 9390
SWIDTH 692 0
DWIDTH 9 0
BBX 6 9 0 0
BITMAP
78
84
80
80
78
04
04
84
78
ENDCHAR
STARTCHAR uni24AF
ENCODING 9391
SWIDTH 692 0
DWIDTH 9 0
BBX 6 12 0 0
BITMAP
20
20
20
FC
20
20
20
20
20
20
20
1C
ENDCHAR
STARTCHAR uni24B0
ENCODING 9392
SWIDTH 692 0
DWIDTH 9 0
BBX 6 9 0 0
BITMAP
84
84
84
84
84
84
84
8C
74
ENDCHAR
STARTCHAR uni24B1
ENCODING 9393
SWIDTH 692 0
DWIDTH 9 0
BBX 7 9 0 0
BITMAP
82
82
82
44
44
28
28
28
10
ENDCHAR
STARTCHAR uni24B2
ENCODING 9394
SWIDTH 692 0
DWIDTH 9 0
BBX 7 9 0 0
BITMAP
82
82
82
82
92
AA
AA
44
44
ENDCHAR
STARTCHAR uni24B3
ENCODING 9395
SWIDTH 692 0
DWIDTH 9 0
BBX 7 9 0 0
BITMAP
82
82
44
28
10
28
44
82
82
ENDCHAR
STARTCHAR uni24B4
ENCODING 9396
SWIDTH 692 0
DWIDTH 9 0
BBX 7 12 0 -3
BITMAP
82
82
44
44
28
28
10
10
20
20
40
40
ENDCHAR
STARTCHAR uni24B5
ENCODING 9397
SWIDTH 692 0
DWIDTH 9 0
BBX 6 9 0 0
BITMAP
FC
04
08
10
20
20
40
80
FC
ENDCHAR
STARTCHAR uni24B6
ENCODING 9398
SWIDTH 692 0
DWIDTH 9 0
BBX 6 12 0 0
BITMAP
30
48
48
48
84
84
84
FC
84
84
84
84
ENDCHAR
STARTCHAR uni24B7
ENCODING 9399
SWIDTH 692 0
DWIDTH 9 0
BBX 6 12 0 0
BITMAP
F8
84
84
84
84
F8
84
84
84
84
84
F8
ENDCHAR
STARTCHAR uni24B8
ENCODING 9400
SWIDTH 692 0
DWIDTH 9 0
BBX 6 12 0 0
BITMAP
78
84
80
80
80
80
80
80
80
80
84
78
ENDCHAR
STARTCHAR uni24B9
ENCODING 9401
SWIDTH 692 0
DWIDTH 9 0
BBX 6 12 0 0
BITMAP
F0
88
84
84
84
84
84
84
84
84
88
F0
ENDCHAR
STARTCHAR uni24BA
ENCODING 9402
SWIDTH 692 0
DWIDTH 9 0
BBX 5 12 0 0
BITMAP
F8
80
80
80
80
F0
80
80
80
80
80
F8
ENDCHAR
STARTCHAR uni24BB
ENCODING 9403
SWIDTH 692 0
DWIDTH 9 0
BBX 5 12 0 0
BITMAP
F8
80
80
80
F0
80
80
80
80
80
80
80
ENDCHAR
STARTCHAR uni24BC
ENCODING 9404
SWIDTH 692 0
DWIDTH 9 0
BBX 6 12 0 0
BITMAP
78
84
80
80
80
80
80
8C
84
84
84
78
ENDCHAR
STARTCHAR uni24BD
ENCODING 9405
SWIDTH 692 0
DWIDTH 9 0
BBX 6 12 0 0
BITMAP
84
84
84
84
84
FC
84
84
84
84
84
84
ENDCHAR
STARTCHAR uni24BE
ENCODING 9406
SWIDTH 692 0
DWIDTH 9 0
BBX 5 12 0 0
BITMAP
F8
20
20
20
20
20
20
20
20
20
20
F8
ENDCHAR
STARTCHAR uni24BF
ENCODING 9407
SWIDTH 692 0
DWIDTH 9 0
BBX 6 12 0 0
BITMAP
FC
04
04
04
04
04
04
04
04
84
84
78
ENDCHAR
STARTCHAR uni24C0
ENCODING 9408
SWIDTH 692 0
DWIDTH 9 0
BBX 6 12 0 0
BITMAP
84
84
88
90
90
A0
E0
90
88
88
84
84
ENDCHAR
STARTCHAR uni24C1
ENCODING 9409
SWIDTH 692 0
DWIDTH 9 0
BBX 6 12 0 0
BITMAP
80
80
80
80
80
80
80
80
80
80
80
FC
ENDCHAR
STARTCHAR uni24C2
ENCODING 9410
SWIDTH 692 0
DWIDTH 9 0
BBX 7 12 0 0
BITMAP
82
C6
AA
AA
92
82
82
82
82
82
82
82
ENDCHAR
STARTCHAR uni24C3
ENCODING 9411
SWIDTH 692 0
DWIDTH 9 0
BBX 6 12 0 0
BITMAP
84
C4
A4
A4
94
94
8C
84
84
84
84
84
ENDCHAR
STARTCHAR uni24C4
ENCODING 9412
SWIDTH 692 0
DWIDTH 9 0
BBX 6 12 0 0
BITMAP
78
84
84
84
84
84
84
84
84
84
84
78
ENDCHAR
STARTCHAR uni24C5
ENCODING 9413
SWIDTH 692 0
DWIDTH 9 0
BBX 6 12 0 0
BITMAP
F8
84
84
84
84
F8
80
80
80
80
80
80
ENDCHAR
STARTCHAR uni24C6
ENCODING 9414
SWIDTH 692 0
DWIDTH 9 0
BBX 6 12 0 0
BITMAP
78
84
84
84
84
84
84
84
84
94
88
74
ENDCHAR
STARTCHAR uni24C7
ENCODING 9415
SWIDTH 692 0
DWIDTH 9 0
BBX 6 12 0 0
BITMAP
F8
84
84
84
84
F8
88
88
88
84
84
84
ENDCHAR
STARTCHAR uni24C8
ENCODING 9416
SWIDTH 692 0
DWIDTH 9 0
BBX 6 12 0 0
BITMAP
78
84
80
80
40
30
08
04
04
04
84
78
ENDCHAR
STARTCHAR uni24C9
ENCODING 9417
SWIDTH 692 0
DWIDTH 9 0
BBX 7 12 0 0
BITMAP
FE
10
10
10
10
10
10
10
10
10
10
10
ENDCHAR
STARTCHAR uni24CA
ENCODING 9418
SWIDTH 692 0
DWIDTH 9 0
BBX 6 12 0 0
BITMAP
84
84
84
84
84
84
84
84
84
84
84
78
ENDCHAR
STARTCHAR uni24CB
ENCODING 9419
SWIDTH 692 0
DWIDTH 9 0
BBX 7 12 0 0
BITMAP
82
82
82
82
44
44
44
28
28
28
10
10
ENDCHAR
STARTCHAR uni24CC
ENCODING 9420
SWIDTH 692 0
DWIDTH 9 0
BBX 7 12 0 0
BITMAP
82
82
82
82
82
82
92
92
AA
AA
44
44
ENDCHAR
STARTCHAR uni24CD
ENCODING 9421
SWIDTH 692 0
DWIDTH 9 0
BBX 7 12 0 0
BITMAP
82
82
44
44
28
10
10
28
28
44
82
82
ENDCHAR
STARTCHAR uni24CE
ENCODING 9422
SWIDTH 692 0
DWIDTH 9 0
BBX 7 12 0 0
BITMAP
82
82
44
44
28
28
10
10
10
10
10
10
ENDCHAR
STARTCHAR uni24CF
ENCODING 9423
SWIDTH 692 0
DWIDTH 9 0
BBX 6 12 0 0
BITMAP
FC
04
04
08
10
10
20
40
40
80
80
FC
ENDCHAR
STARTCHAR uni24D0
ENCODING 9424
SWIDTH 692 0
DWIDTH 9 0
BBX 6 9 0 0
BITMAP
78
84
04
04
7C
84
84
8C
74
ENDCHAR
STARTCHAR uni24D1
ENCODING 9425
SWIDTH 692 0
DWIDTH 9 0
BBX 6 12 0 0
BITMAP
80
80
80
B8
C4
84
84
84
84
84
C4
B8
ENDCHAR
STARTCHAR uni24D2
ENCODING 9426
SWIDTH 692 0
DWIDTH 9 0
BBX 6 9 0 0
BITMAP
78
84
80
80
80
80
80
84
78
ENDCHAR
STARTCHAR uni24D3
ENCODING 9427
SWIDTH 692 0
DWIDTH 9 0
BBX 6 12 0 0
BITMAP
04
04
04
74
8C
84
84
84
84
84
8C
74
ENDCHAR
STARTCHAR uni24D4
ENCODING 9428
SWIDTH 692 0
DWIDTH 9 0
BBX 6 9 0 0
BITMAP
78
84
84
84
FC
80
80
84
78
ENDCHAR
STARTCHAR uni24D5
ENCODING 9429
SWIDTH 692 0
DWIDTH 9 0
BBX 6 12 0 0
BITMAP
1C
20
20
20
FC
20
20
20
20
20
20
20
ENDCHAR
STARTCHAR uni24D6
ENCODING 9430
SWIDTH 692 0
DWIDTH 9 0
BBX 7 12 0 -3
BITMAP
7E
84
84
84
78
80
80
7C
82
82
82
7C
ENDCHAR
STARTCHAR uni24D7
ENCODING 9431
SWIDTH 692 0
DWIDTH 9 0
BBX 6 12 0 0
BITMAP
80
80
80
B8
C4
84
84
84
84
84
84
84
ENDCHAR
STARTCHAR uni24D8
ENCODING 9432
SWIDTH 692 0
DWIDTH 9 0
BBX 5 12 1 0
BITMAP
20
00
00
E0
20
20
20
20
20
20
20
F8
ENDCHAR
STARTCHAR uni24D9
ENCODING 9433
SWIDTH 692 0
DWIDTH 9 0
BBX 5 14 1 -2
BITMAP
08
00
00
38
08
08
08
08
08
08
08
08
88
70
ENDCHAR
STARTCHAR uni24DA
ENCODING 9434
SWIDTH 692 0
DWIDTH 9 0
BBX 6 12 0 0
BITMAP
80
80
80
84
88
90
A0
E0
90
88
84
84
ENDCHAR
STARTCHAR uni24DB
ENCODING 9435
SWIDTH 692 0
DWIDTH 9 0
BBX 5 12 1 0
BITMAP
E0
20
20
20
20
20
20
20
20
20
20
F8
ENDCHAR
STARTCHAR uni24DC
ENCODING 9436
SWIDTH 692 0
DWIDTH 9 0
BBX 7 9 0 0
BITMAP
EC
92
92
92
92
92
92
92
92
ENDCHAR
STARTCHAR uni24DD
ENCODING 9437
SWIDTH 692 0
DWIDTH 9 0
BBX 6 9 0 0
BITMAP
B8
C4
84
84
84
84
84
84
84
ENDCHAR
STARTCHAR uni24DE
ENCODING 9438
SWIDTH 692 0
DWIDTH 9 0
BBX 6 9 0 0
BITMAP
78
84
84
84
84
84
84
84
78
ENDCHAR
STARTCHAR uni24DF
ENCODING 9439
SWIDTH 692 0
DWIDTH 9 0
BBX 6 12 0 -3
BITMAP
B8
C4
84
84
84
84
84
C4
B8
80
80
80
ENDCHAR
STARTCHAR uni24E0
ENCODING 9440
SWIDTH 692 0
DWIDTH 9 0
BBX 6 12 0 -3
BITMAP
74
8C
84
84
84
84
84
8C
74
04
04
04
ENDCHAR
STARTCHAR uni24E1
ENCODING 9441
SWIDTH 692 0
DWIDTH 9 0
BBX 6 9 0 0
BITMAP
B8
C4
80
80
80
80
80
80
80
ENDCHAR
STARTCHAR uni24E2
ENCODING 9442
SWIDTH 692 0
DWIDTH 9 0
BBX 6 9 0 0
BITMAP
78
84
80
80
78
04
04
84
78
ENDCHAR
STARTCHAR uni24E3
ENCODING 9443
SWIDTH 692 0
DWIDTH 9 0
BBX 6 12 0 0
BITMAP
20
20
20
FC
20
20
20
20
20
20
20
1C
ENDCHAR
STARTCHAR uni24E4
ENCODING 9444
SWIDTH 692 0
DWIDTH 9 0
BBX 6 9 0 0
BITMAP
84
84
84
84
84
84
84
8C
74
ENDCHAR
STARTCHAR uni24E5
ENCODING 9445
SWIDTH 692 0
DWIDTH 9 0
BBX 7 9 0 0
BITMAP
82
82
82
44
44
28
28
28
10
ENDCHAR
STARTCHAR uni24E6
ENCODING 9446
SWIDTH 692 0
DWIDTH 9 0
BBX 7 9 0 0
BITMAP
82
82
82
82
92
AA
AA
44
44
ENDCHAR
STARTCHAR uni24E7
ENCODING 9447
SWIDTH 692 0
DWIDTH 9 0
BBX 7 9 0 0
BITMAP
82
82
44
28
10
28
44
82
82
ENDCHAR
STARTCHAR uni24E8
ENCODING 9448
SWIDTH 692 0
DWIDTH 9 0
BBX 7 12 0 -3
BITMAP
82
82
44
44
28
28
10
10
20
20
40
40
ENDCHAR
STARTCHAR uni24E9
ENCODING 9449
SWIDTH 692 0
DWIDTH 9 0
BBX 6 9 0 0
BITMAP
FC
04
08
10
20
20
40
80
FC
ENDCHAR
STARTCHAR uni24EA
ENCODING 9450
SWIDTH 692 0
DWIDTH 9 0
BBX 7 12 0 0
BITMAP
38
44
82
82
8A
92
92
A2
82
82
44
38
ENDCHAR
STARTCHAR SF100000
ENCODING 9472
SWIDTH 692 0
DWIDTH 9 0
BBX 9 1 0 5
BITMAP
FF80
ENDCHAR
STARTCHAR uni2501
ENCODING 9473
SWIDTH 692 0
DWIDTH 9 0
BBX 6 5 0 3
BITMAP
FC
00
00
00
FC
ENDCHAR
STARTCHAR SF110000
ENCODING 9474
SWIDTH 692 0
DWIDTH 9 0
BBX 1 20 4 -5
BITMAP
80
80
80
80
80
80
80
80
80
80
80
80
80
80
80
80
80
80
80
80
ENDCHAR
STARTCHAR uni2503
ENCODING 9475
SWIDTH 692 0
DWIDTH 9 0
BBX 1 12 3 0
BITMAP
80
80
80
80
80
80
80
80
80
80
80
80
ENDCHAR
STARTCHAR uni2504
ENCODING 9476
SWIDTH 692 0
DWIDTH 9 0
BBX 5 1 1 5
BITMAP
F8
ENDCHAR
STARTCHAR uni2505
ENCODING 9477
SWIDTH 692 0
DWIDTH 9 0
BBX 6 5 0 3
BITMAP
FC
00
00
00
FC
ENDCHAR
STARTCHAR uni2506
ENCODING 9478
SWIDTH 692 0
DWIDTH 9 0
BBX 1 12 3 0
BITMAP
80
80
80
80
80
80
80
80
80
80
80
80
ENDCHAR
STARTCHAR uni2507
ENCODING 9479
SWIDTH 692 0
DWIDTH 9 0
BBX 1 12 3 0
BITMAP
80
80
80
80
80
80
80
80
80
80
80
80
ENDCHAR
STARTCHAR uni2508
ENCODING 9480
SWIDTH 692 0
DWIDTH 9 0
BBX 5 1 1 5
BITMAP
F8
ENDCHAR
STARTCHAR uni2509
ENCODING 9481
SWIDTH 692 0
DWIDTH 9 0
BBX 6 5 0 3
BITMAP
FC
00
00
00
FC
ENDCHAR
STARTCHAR uni250A
ENCODING 9482
SWIDTH 692 0
DWIDTH 9 0
BBX 1 12 3 0
BITMAP
80
80
80
80
80
80
80
80
80
80
80
80
ENDCHAR
STARTCHAR uni250B
ENCODING 9483
SWIDTH 692 0
DWIDTH 9 0
BBX 1 12 3 0
BITMAP
80
80
80
80
80
80
80
80
80
80
80
80
ENDCHAR
STARTCHAR SF010000
ENCODING 9484
SWIDTH 692 0
DWIDTH 9 0
BBX 5 11 4 -5
BITMAP
38
40
80
80
80
80
80
80
80
80
80
ENDCHAR
STARTCHAR uni250D
ENCODING 9485
SWIDTH 692 0
DWIDTH 9 0
BBX 7 7 0 2
BITMAP
10
10
10
FE
10
10
10
ENDCHAR
STARTCHAR uni250E
ENCODING 9486
SWIDTH 692 0
DWIDTH 9 0
BBX 7 7 0 2
BITMAP
10
10
10
FE
10
10
10
ENDCHAR
STARTCHAR uni250F
ENCODING 9487
SWIDTH 692 0
DWIDTH 9 0
BBX 7 7 0 2
BITMAP
10
10
10
FE
10
10
10
ENDCHAR
STARTCHAR SF030000
ENCODING 9488
SWIDTH 692 0
DWIDTH 9 0
BBX 5 11 0 -5
BITMAP
E0
10
08
08
08
08
08
08
08
08
08
ENDCHAR
STARTCHAR uni2511
ENCODING 9489
SWIDTH 692 0
DWIDTH 9 0
BBX 7 7 0 2
BITMAP
10
10
10
FE
10
10
10
ENDCHAR
STARTCHAR uni2512
ENCODING 9490
SWIDTH 692 0
DWIDTH 9 0
BBX 7 7 0 2
BITMAP
10
10
10
FE
10
10
10
ENDCHAR
STARTCHAR uni2513
ENCODING 9491
SWIDTH 692 0
DWIDTH 9 0
BBX 7 7 0 2
BITMAP
10
10
10
FE
10
10
10
ENDCHAR
STARTCHAR SF020000
ENCODING 9492
SWIDTH 692 0
DWIDTH 9 0
BBX 5 10 4 5
BITMAP
80
80
80
80
80
80
80
80
40
38
ENDCHAR
STARTCHAR uni2515
ENCODING 9493
SWIDTH 692 0
DWIDTH 9 0
BBX 7 7 0 2
BITMAP
10
10
10
FE
10
10
10
ENDCHAR
STARTCHAR uni2516
ENCODING 9494
SWIDTH 692 0
DWIDTH 9 0
BBX 7 7 0 2
BITMAP
10
10
10
FE
10
10
10
ENDCHAR
STARTCHAR uni2517
ENCODING 9495
SWIDTH 692 0
DWIDTH 9 0
BBX 7 7 0 2
BITMAP
10
10
10
FE
10
10
10
ENDCHAR
STARTCHAR SF040000
ENCODING 9496
SWIDTH 692 0
DWIDTH 9 0
BBX 5 10 0 5
BITMAP
08
08
08
08
08
08
08
08
10
E0
ENDCHAR
STARTCHAR uni2519
ENCODING 9497
SWIDTH 692 0
DWIDTH 9 0
BBX 7 7 0 2
BITMAP
10
10
10
FE
10
10
10
ENDCHAR
STARTCHAR uni251A
ENCODING 9498
SWIDTH 692 0
DWIDTH 9 0
BBX 7 7 0 2
BITMAP
10
10
10
FE
10
10
10
ENDCHAR
STARTCHAR uni251B
ENCODING 9499
SWIDTH 692 0
DWIDTH 9 0
BBX 7 7 0 2
BITMAP
10
10
10
FE
10
10
10
ENDCHAR
STARTCHAR SF080000
ENCODING 9500
SWIDTH 692 0
DWIDTH 9 0
BBX 5 20 4 -5
BITMAP
80
80
80
80
80
80
80
80
80
78
80
80
80
80
80
80
80
80
80
80
ENDCHAR
STARTCHAR uni251D
ENCODING 9501
SWIDTH 692 0
DWIDTH 9 0
BBX 1 12 3 0
BITMAP
80
80
80
80
80
80
80
80
80
80
80
80
ENDCHAR
STARTCHAR uni251E
ENCODING 9502
SWIDTH 692 0
DWIDTH 9 0
BBX 1 12 3 0
BITMAP
80
80
80
80
80
80
80
80
80
80
80
80
ENDCHAR
STARTCHAR uni251F
ENCODING 9503
SWIDTH 692 0
DWIDTH 9 0
BBX 1 12 3 0
BITMAP
80
80
80
80
80
80
80
80
80
80
80
80
ENDCHAR
STARTCHAR uni2520
ENCODING 9504
SWIDTH 692 0
DWIDTH 9 0
BBX 1 12 3 0
BITMAP
80
80
80
80
80
80
80
80
80
80
80
80
ENDCHAR
STARTCHAR uni2521
ENCODING 9505
SWIDTH 692 0
DWIDTH 9 0
BBX 1 12 3 0
BITMAP
80
80
80
80
80
80
80
80
80
80
80
80
ENDCHAR
STARTCHAR uni2522
ENCODING 9506
SWIDTH 692 0
DWIDTH 9 0
BBX 1 12 3 0
BITMAP
80
80
80
80
80
80
80
80
80
80
80
80
ENDCHAR
STARTCHAR uni2523
ENCODING 9507
SWIDTH 692 0
DWIDTH 9 0
BBX 1 12 3 0
BITMAP
80
80
80
80
80
80
80
80
80
80
80
80
ENDCHAR
STARTCHAR SF090000
ENCODING 9508
SWIDTH 692 0
DWIDTH 9 0
BBX 5 20 0 -5
BITMAP
08
08
08
08
08
08
08
08
08
F0
08
08
08
08
08
08
08
08
08
08
ENDCHAR
STARTCHAR uni2525
ENCODING 9509
SWIDTH 692 0
DWIDTH 9 0
BBX 1 12 3 0
BITMAP
80
80
80
80
80
80
80
80
80
80
80
80
ENDCHAR
STARTCHAR uni2526
ENCODING 9510
SWIDTH 692 0
DWIDTH 9 0
BBX 1 12 3 0
BITMAP
80
80
80
80
80
80
80
80
80
80
80
80
ENDCHAR
STARTCHAR uni2527
ENCODING 9511
SWIDTH 692 0
DWIDTH 9 0
BBX 1 12 3 0
BITMAP
80
80
80
80
80
80
80
80
80
80
80
80
ENDCHAR
STARTCHAR uni2528
ENCODING 9512
SWIDTH 692 0
DWIDTH 9 0
BBX 1 12 3 0
BITMAP
80
80
80
80
80
80
80
80
80
80
80
80
ENDCHAR
STARTCHAR uni2529
ENCODING 9513
SWIDTH 692 0
DWIDTH 9 0
BBX 1 12 3 0
BITMAP
80
80
80
80
80
80
80
80
80
80
80
80
ENDCHAR
STARTCHAR uni252A
ENCODING 9514
SWIDTH 692 0
DWIDTH 9 0
BBX 1 12 3 0
BITMAP
80
80
80
80
80
80
80
80
80
80
80
80
ENDCHAR
STARTCHAR uni252B
ENCODING 9515
SWIDTH 692 0
DWIDTH 9 0
BBX 1 12 3 0
BITMAP
80
80
80
80
80
80
80
80
80
80
80
80
ENDCHAR
STARTCHAR SF060000
ENCODING 9516
SWIDTH 692 0
DWIDTH 9 0
BBX 9 11 0 -5
BITMAP
F780
0800
0800
0800
0800
0800
0800
0800
0800
0800
0800
ENDCHAR
STARTCHAR uni252D
ENCODING 9517
SWIDTH 692 0
DWIDTH 9 0
BBX 5 1 1 5
BITMAP
F8
ENDCHAR
STARTCHAR uni252E
ENCODING 9518
SWIDTH 692 0
DWIDTH 9 0
BBX 5 1 1 5
BITMAP
F8
ENDCHAR
STARTCHAR uni252F
ENCODING 9519
SWIDTH 692 0
DWIDTH 9 0
BBX 6 5 0 3
BITMAP
FC
00
00
00
FC
ENDCHAR
STARTCHAR uni2530
ENCODING 9520
SWIDTH 692 0
DWIDTH 9 0
BBX 5 1 1 5
BITMAP
F8
ENDCHAR
STARTCHAR uni2531
ENCODING 9521
SWIDTH 692 0
DWIDTH 9 0
BBX 5 1 1 5
BITMAP
F8
ENDCHAR
STARTCHAR uni2532
ENCODING 9522
SWIDTH 692 0
DWIDTH 9 0
BBX 5 1 1 5
BITMAP
F8
ENDCHAR
STARTCHAR uni2533
ENCODING 9523
SWIDTH 692 0
DWIDTH 9 0
BBX 6 5 0 3
BITMAP
FC
00
00
00
FC
ENDCHAR
STARTCHAR SF070000
ENCODING 9524
SWIDTH 692 0
DWIDTH 9 0
BBX 9 10 0 5
BITMAP
0800
0800
0800
0800
0800
0800
0800
0800
0800
F780
ENDCHAR
STARTCHAR uni2535
ENCODING 9525
SWIDTH 692 0
DWIDTH 9 0
BBX 5 1 1 5
BITMAP
F8
ENDCHAR
STARTCHAR uni2536
ENCODING 9526
SWIDTH 692 0
DWIDTH 9 0
BBX 5 1 1 5
BITMAP
F8
ENDCHAR
STARTCHAR uni2537
ENCODING 9527
SWIDTH 692 0
DWIDTH 9 0
BBX 6 5 0 3
BITMAP
FC
00
00
00
FC
ENDCHAR
STARTCHAR uni2538
ENCODING 9528
SWIDTH 692 0
DWIDTH 9 0
BBX 5 1 1 5
BITMAP
F8
ENDCHAR
STARTCHAR uni2539
ENCODING 9529
SWIDTH 692 0
DWIDTH 9 0
BBX 5 1 1 5
BITMAP
F8
ENDCHAR
STARTCHAR uni253A
ENCODING 9530
SWIDTH 692 0
DWIDTH 9 0
BBX 5 1 1 5
BITMAP
F8
ENDCHAR
STARTCHAR uni253B
ENCODING 9531
SWIDTH 692 0
DWIDTH 9 0
BBX 6 5 0 3
BITMAP
FC
00
00
00
FC
ENDCHAR
STARTCHAR SF050000
ENCODING 9532
SWIDTH 692 0
DWIDTH 9 0
BBX 9 20 0 -5
BITMAP
0800
0800
0800
0800
0800
0800
0800
0800
0800
FF80
0800
0800
0800
0800
0800
0800
0800
0800
0800
0800
ENDCHAR
STARTCHAR uni253D
ENCODING 9533
SWIDTH 692 0
DWIDTH 9 0
BBX 1 12 3 0
BITMAP
80
80
80
80
80
80
80
80
80
80
80
80
ENDCHAR
STARTCHAR uni253E
ENCODING 9534
SWIDTH 692 0
DWIDTH 9 0
BBX 1 12 3 0
BITMAP
80
80
80
80
80
80
80
80
80
80
80
80
ENDCHAR
STARTCHAR uni253F
ENCODING 9535
SWIDTH 692 0
DWIDTH 9 0
BBX 1 12 3 0
BITMAP
80
80
80
80
80
80
80
80
80
80
80
80
ENDCHAR
STARTCHAR uni2540
ENCODING 9536
SWIDTH 692 0
DWIDTH 9 0
BBX 1 12 3 0
BITMAP
80
80
80
80
80
80
80
80
80
80
80
80
ENDCHAR
STARTCHAR uni2541
ENCODING 9537
SWIDTH 692 0
DWIDTH 9 0
BBX 1 12 3 0
BITMAP
80
80
80
80
80
80
80
80
80
80
80
80
ENDCHAR
STARTCHAR uni2542
ENCODING 9538
SWIDTH 692 0
DWIDTH 9 0
BBX 1 12 3 0
BITMAP
80
80
80
80
80
80
80
80
80
80
80
80
ENDCHAR
STARTCHAR uni2543
ENCODING 9539
SWIDTH 692 0
DWIDTH 9 0
BBX 1 12 3 0
BITMAP
80
80
80
80
80
80
80
80
80
80
80
80
ENDCHAR
STARTCHAR uni2544
ENCODING 9540
SWIDTH 692 0
DWIDTH 9 0
BBX 1 12 3 0
BITMAP
80
80
80
80
80
80
80
80
80
80
80
80
ENDCHAR
STARTCHAR uni2545
ENCODING 9541
SWIDTH 692 0
DWIDTH 9 0
BBX 1 12 3 0
BITMAP
80
80
80
80
80
80
80
80
80
80
80
80
ENDCHAR
STARTCHAR uni2546
ENCODING 9542
SWIDTH 692 0
DWIDTH 9 0
BBX 1 12 3 0
BITMAP
80
80
80
80
80
80
80
80
80
80
80
80
ENDCHAR
STARTCHAR uni2547
ENCODING 9543
SWIDTH 692 0
DWIDTH 9 0
BBX 1 12 3 0
BITMAP
80
80
80
80
80
80
80
80
80
80
80
80
ENDCHAR
STARTCHAR uni2548
ENCODING 9544
SWIDTH 692 0
DWIDTH 9 0
BBX 1 12 3 0
BITMAP
80
80
80
80
80
80
80
80
80
80
80
80
ENDCHAR
STARTCHAR uni2549
ENCODING 9545
SWIDTH 692 0
DWIDTH 9 0
BBX 1 12 3 0
BITMAP
80
80
80
80
80
80
80
80
80
80
80
80
ENDCHAR
STARTCHAR uni254A
ENCODING 9546
SWIDTH 692 0
DWIDTH 9 0
BBX 1 12 3 0
BITMAP
80
80
80
80
80
80
80
80
80
80
80
80
ENDCHAR
STARTCHAR uni254B
ENCODING 9547
SWIDTH 692 0
DWIDTH 9 0
BBX 1 12 3 0
BITMAP
80
80
80
80
80
80
80
80
80
80
80
80
ENDCHAR
STARTCHAR uni254C
ENCODING 9548
SWIDTH 692 0
DWIDTH 9 0
BBX 5 1 1 5
BITMAP
F8
ENDCHAR
STARTCHAR uni254D
ENCODING 9549
SWIDTH 692 0
DWIDTH 9 0
BBX 6 5 0 3
BITMAP
FC
00
00
00
FC
ENDCHAR
STARTCHAR uni254E
ENCODING 9550
SWIDTH 692 0
DWIDTH 9 0
BBX 1 12 3 0
BITMAP
80
80
80
80
80
80
80
80
80
80
80
80
ENDCHAR
STARTCHAR uni254F
ENCODING 9551
SWIDTH 692 0
DWIDTH 9 0
BBX 1 12 3 0
BITMAP
80
80
80
80
80
80
80
80
80
80
80
80
ENDCHAR
STARTCHAR SF430000
ENCODING 9552
SWIDTH 692 0
DWIDTH 9 0
BBX 9 1 0 5
BITMAP
FF80
ENDCHAR
STARTCHAR SF240000
ENCODING 9553
SWIDTH 692 0
DWIDTH 9 0
BBX 1 20 4 -5
BITMAP
80
80
80
80
80
80
80
80
80
80
80
80
80
80
80
80
80
80
80
80
ENDCHAR
STARTCHAR SF510000
ENCODING 9554
SWIDTH 692 0
DWIDTH 9 0
BBX 2 3 2 0
BITMAP
C0
C0
C0
ENDCHAR
STARTCHAR SF520000
ENCODING 9555
SWIDTH 692 0
DWIDTH 9 0
BBX 2 3 2 0
BITMAP
C0
C0
C0
ENDCHAR
STARTCHAR SF390000
ENCODING 9556
SWIDTH 692 0
DWIDTH 9 0
BBX 7 7 0 2
BITMAP
10
10
10
FE
10
10
10
ENDCHAR
STARTCHAR SF220000
ENCODING 9557
SWIDTH 692 0
DWIDTH 9 0
BBX 2 3 2 0
BITMAP
C0
C0
C0
ENDCHAR
STARTCHAR SF210000
ENCODING 9558
SWIDTH 692 0
DWIDTH 9 0
BBX 2 3 2 0
BITMAP
C0
C0
C0
ENDCHAR
STARTCHAR SF250000
ENCODING 9559
SWIDTH 692 0
DWIDTH 9 0
BBX 5 11 0 -5
BITMAP
E0
10
08
08
08
08
08
08
08
08
08
ENDCHAR
STARTCHAR SF500000
ENCODING 9560
SWIDTH 692 0
DWIDTH 9 0
BBX 3 3 1 10
BITMAP
80
40
20
ENDCHAR
STARTCHAR SF490000
ENCODING 9561
SWIDTH 692 0
DWIDTH 9 0
BBX 3 3 1 10
BITMAP
80
40
20
ENDCHAR
STARTCHAR SF380000
ENCODING 9562
SWIDTH 692 0
DWIDTH 9 0
BBX 5 10 4 5
BITMAP
80
80
80
80
80
80
80
80
40
38
ENDCHAR
STARTCHAR SF280000
ENCODING 9563
SWIDTH 692 0
DWIDTH 9 0
BBX 2 4 2 8
BITMAP
C0
40
40
80
ENDCHAR
STARTCHAR SF270000
ENCODING 9564
SWIDTH 692 0
DWIDTH 9 0
BBX 2 4 2 8
BITMAP
C0
40
40
80
ENDCHAR
STARTCHAR SF260000
ENCODING 9565
SWIDTH 692 0
DWIDTH 9 0
BBX 5 10 0 5
BITMAP
08
08
08
08
08
08
08
08
10
E0
ENDCHAR
STARTCHAR SF360000
ENCODING 9566
SWIDTH 692 0
DWIDTH 9 0
BBX 2 8 3 1
BITMAP
C0
C0
00
00
00
00
C0
C0
ENDCHAR
STARTCHAR SF370000
ENCODING 9567
SWIDTH 692 0
DWIDTH 9 0
BBX 7 7 0 2
BITMAP
10
10
10
FE
10
10
10
ENDCHAR
STARTCHAR SF420000
ENCODING 9568
SWIDTH 692 0
DWIDTH 9 0
BBX 5 20 4 -5
BITMAP
80
80
80
80
80
80
80
80
80
78
80
80
80
80
80
80
80
80
80
80
ENDCHAR
STARTCHAR SF190000
ENCODING 9569
SWIDTH 692 0
DWIDTH 9 0
BBX 2 8 3 1
BITMAP
C0
C0
00
00
00
00
C0
C0
ENDCHAR
STARTCHAR SF200000
ENCODING 9570
SWIDTH 692 0
DWIDTH 9 0
BBX 7 7 0 2
BITMAP
10
10
10
FE
10
10
10
ENDCHAR
STARTCHAR SF230000
ENCODING 9571
SWIDTH 692 0
DWIDTH 9 0
BBX 5 20 0 -5
BITMAP
08
08
08
08
08
08
08
08
08
F0
08
08
08
08
08
08
08
08
08
08
ENDCHAR
STARTCHAR SF470000
ENCODING 9572
SWIDTH 692 0
DWIDTH 9 0
BBX 2 8 3 1
BITMAP
C0
C0
00
00
00
00
C0
C0
ENDCHAR
STARTCHAR SF480000
ENCODING 9573
SWIDTH 692 0
DWIDTH 9 0
BBX 7 7 0 2
BITMAP
10
10
10
FE
10
10
10
ENDCHAR
STARTCHAR SF410000
ENCODING 9574
SWIDTH 692 0
DWIDTH 9 0
BBX 9 11 0 -5
BITMAP
F780
0800
0800
0800
0800
0800
0800
0800
0800
0800
0800
ENDCHAR
STARTCHAR SF450000
ENCODING 9575
SWIDTH 692 0
DWIDTH 9 0
BBX 2 8 3 1
BITMAP
C0
C0
00
00
00
00
C0
C0
ENDCHAR
STARTCHAR SF460000
ENCODING 9576
SWIDTH 692 0
DWIDTH 9 0
BBX 7 7 0 2
BITMAP
10
10
10
FE
10
10
10
ENDCHAR
STARTCHAR SF400000
ENCODING 9577
SWIDTH 692 0
DWIDTH 9 0
BBX 9 10 0 5
BITMAP
0800
0800
0800
0800
0800
0800
0800
0800
0800
F780
ENDCHAR
STARTCHAR SF540000
ENCODING 9578
SWIDTH 692 0
DWIDTH 9 0
BBX 2 8 3 1
BITMAP
C0
C0
00
00
00
00
C0
C0
ENDCHAR
STARTCHAR SF530000
ENCODING 9579
SWIDTH 692 0
DWIDTH 9 0
BBX 7 7 0 2
BITMAP
10
10
10
FE
10
10
10
ENDCHAR
STARTCHAR SF440000
ENCODING 9580
SWIDTH 692 0
DWIDTH 9 0
BBX 9 20 0 -5
BITMAP
0800
0800
0800
0800
0800
0800
0800
0800
0800
FF80
0800
0800
0800
0800
0800
0800
0800
0800
0800
0800
ENDCHAR
STARTCHAR uni256D
ENCODING 9581
SWIDTH 692 0
DWIDTH 9 0
BBX 2 3 2 0
BITMAP
C0
C0
C0
ENDCHAR
STARTCHAR uni256E
ENCODING 9582
SWIDTH 692 0
DWIDTH 9 0
BBX 2 3 2 0
BITMAP
C0
C0
C0
ENDCHAR
STARTCHAR uni256F
ENCODING 9583
SWIDTH 692 0
DWIDTH 9 0
BBX 2 4 2 8
BITMAP
C0
40
40
80
ENDCHAR
STARTCHAR uni2570
ENCODING 9584
SWIDTH 692 0
DWIDTH 9 0
BBX 3 3 1 10
BITMAP
80
40
20
ENDCHAR
STARTCHAR uni2571
ENCODING 9585
SWIDTH 692 0
DWIDTH 9 0
BBX 5 12 1 0
BITMAP
08
08
10
10
10
20
20
40
40
40
80
80
ENDCHAR
STARTCHAR uni2572
ENCODING 9586
SWIDTH 692 0
DWIDTH 9 0
BBX 5 12 1 0
BITMAP
80
80
40
40
40
20
20
10
10
10
08
08
ENDCHAR
STARTCHAR uni2573
ENCODING 9587
SWIDTH 692 0
DWIDTH 9 0
BBX 7 12 0 0
BITMAP
82
82
44
44
28
10
10
28
28
44
82
82
ENDCHAR
STARTCHAR uni2574
ENCODING 9588
SWIDTH 692 0
DWIDTH 9 0
BBX 5 1 1 5
BITMAP
F8
ENDCHAR
STARTCHAR uni2575
ENCODING 9589
SWIDTH 692 0
DWIDTH 9 0
BBX 2 4 2 8
BITMAP
C0
40
40
80
ENDCHAR
STARTCHAR uni2576
ENCODING 9590
SWIDTH 692 0
DWIDTH 9 0
BBX 5 1 1 5
BITMAP
F8
ENDCHAR
STARTCHAR uni2577
ENCODING 9591
SWIDTH 692 0
DWIDTH 9 0
BBX 2 3 2 0
BITMAP
C0
C0
C0
ENDCHAR
STARTCHAR uni2578
ENCODING 9592
SWIDTH 692 0
DWIDTH 9 0
BBX 6 5 0 3
BITMAP
FC
00
00
00
FC
ENDCHAR
STARTCHAR uni2579
ENCODING 9593
SWIDTH 692 0
DWIDTH 9 0
BBX 2 4 2 8
BITMAP
C0
40
40
80
ENDCHAR
STARTCHAR uni257A
ENCODING 9594
SWIDTH 692 0
DWIDTH 9 0
BBX 6 5 0 3
BITMAP
FC
00
00
00
FC
ENDCHAR
STARTCHAR uni257B
ENCODING 9595
SWIDTH 692 0
DWIDTH 9 0
BBX 2 3 2 0
BITMAP
C0
C0
C0
ENDCHAR
STARTCHAR uni257C
ENCODING 9596
SWIDTH 692 0
DWIDTH 9 0
BBX 5 1 1 5
BITMAP
F8
ENDCHAR
STARTCHAR uni257D
ENCODING 9597
SWIDTH 692 0
DWIDTH 9 0
BBX 1 12 3 0
BITMAP
80
80
80
80
80
80
80
80
80
80
80
80
ENDCHAR
STARTCHAR uni257E
ENCODING 9598
SWIDTH 692 0
DWIDTH 9 0
BBX 5 1 1 5
BITMAP
F8
ENDCHAR
STARTCHAR uni257F
ENCODING 9599
SWIDTH 692 0
DWIDTH 9 0
BBX 1 12 3 0
BITMAP
80
80
80
80
80
80
80
80
80
80
80
80
ENDCHAR
STARTCHAR upblock
ENCODING 9600
SWIDTH 692 0
DWIDTH 9 0
BBX 8 11 0 0
BITMAP
12
12
12
7F
24
24
24
FE
48
48
48
ENDCHAR
STARTCHAR uni2581
ENCODING 9601
SWIDTH 692 0
DWIDTH 9 0
BBX 0 0 0 0
BITMAP
ENDCHAR
STARTCHAR uni2582
ENCODING 9602
SWIDTH 692 0
DWIDTH 9 0
BBX 0 0 0 0
BITMAP
ENDCHAR
STARTCHAR uni2583
ENCODING 9603
SWIDTH 692 0
DWIDTH 9 0
BBX 0 0 0 0
BITMAP
ENDCHAR
STARTCHAR dnblock
ENCODING 9604
SWIDTH 692 0
DWIDTH 9 0
BBX 8 11 0 0
BITMAP
12
12
12
7F
24
24
24
FE
48
48
48
ENDCHAR
STARTCHAR uni2585
ENCODING 9605
SWIDTH 692 0
DWIDTH 9 0
BBX 8 11 0 0
BITMAP
12
12
12
7F
24
24
24
FE
48
48
48
ENDCHAR
STARTCHAR uni2586
ENCODING 9606
SWIDTH 692 0
DWIDTH 9 0
BBX 8 11 0 0
BITMAP
12
12
12
7F
24
24
24
FE
48
48
48
ENDCHAR
STARTCHAR uni2587
ENCODING 9607
SWIDTH 692 0
DWIDTH 9 0
BBX 8 11 0 0
BITMAP
12
12
12
7F
24
24
24
FE
48
48
48
ENDCHAR
STARTCHAR block
ENCODING 9608
SWIDTH 692 0
DWIDTH 9 0
BBX 9 13 0 0
BITMAP
5500
AA80
5500
AA80
5500
AA80
5500
AA80
5500
AA80
5500
AA80
5500
ENDCHAR
STARTCHAR uni2589
ENCODING 9609
SWIDTH 692 0
DWIDTH 9 0
BBX 8 11 0 0
BITMAP
12
12
12
7F
24
24
24
FE
48
48
48
ENDCHAR
STARTCHAR uni258A
ENCODING 9610
SWIDTH 692 0
DWIDTH 9 0
BBX 8 11 0 0
BITMAP
12
12
12
7F
24
24
24
FE
48
48
48
ENDCHAR
STARTCHAR uni258B
ENCODING 9611
SWIDTH 692 0
DWIDTH 9 0
BBX 8 11 0 0
BITMAP
12
12
12
7F
24
24
24
FE
48
48
48
ENDCHAR
STARTCHAR lfblock
ENCODING 9612
SWIDTH 692 0
DWIDTH 9 0
BBX 8 11 0 0
BITMAP
12
12
12
7F
24
24
24
FE
48
48
48
ENDCHAR
STARTCHAR uni258D
ENCODING 9613
SWIDTH 692 0
DWIDTH 9 0
BBX 0 0 0 0
BITMAP
ENDCHAR
STARTCHAR uni258E
ENCODING 9614
SWIDTH 692 0
DWIDTH 9 0
BBX 0 0 0 0
BITMAP
ENDCHAR
STARTCHAR uni258F
ENCODING 9615
SWIDTH 692 0
DWIDTH 9 0
BBX 0 0 0 0
BITMAP
ENDCHAR
STARTCHAR rtblock
ENCODING 9616
SWIDTH 692 0
DWIDTH 9 0
BBX 8 11 0 0
BITMAP
12
12
12
7F
24
24
24
FE
48
48
48
ENDCHAR
STARTCHAR ltshade
ENCODING 9617
SWIDTH 692 0
DWIDTH 9 0
BBX 8 11 0 0
BITMAP
12
12
12
7F
24
24
24
FE
48
48
48
ENDCHAR
STARTCHAR shade
ENCODING 9618
SWIDTH 692 0
DWIDTH 9 0
BBX 9 13 0 0
BITMAP
5500
AA80
5500
AA80
5500
AA80
5500
AA80
5500
AA80
5500
AA80
5500
ENDCHAR
STARTCHAR dkshade
ENCODING 9619
SWIDTH 692 0
DWIDTH 9 0
BBX 8 11 0 0
BITMAP
12
12
12
7F
24
24
24
FE
48
48
48
ENDCHAR
STARTCHAR uni2594
ENCODING 9620
SWIDTH 692 0
DWIDTH 9 0
BBX 0 0 0 0
BITMAP
ENDCHAR
STARTCHAR uni2595
ENCODING 9621
SWIDTH 692 0
DWIDTH 9 0
BBX 0 0 0 0
BITMAP
ENDCHAR
STARTCHAR filledbox
ENCODING 9632
SWIDTH 692 0
DWIDTH 9 0
BBX 8 11 0 0
BITMAP
12
12
12
7F
24
24
24
FE
48
48
48
ENDCHAR
STARTCHAR filledrect
ENCODING 9644
SWIDTH 692 0
DWIDTH 9 0
BBX 8 11 0 0
BITMAP
12
12
12
7F
24
24
24
FE
48
48
48
ENDCHAR
STARTCHAR uni25AE
ENCODING 9646
SWIDTH 692 0
DWIDTH 9 0
BBX 9 13 0 0
BITMAP
FF80
FF80
FF80
FF80
FF80
FF80
FF80
FF80
FF80
FF80
FF80
FF80
FF80
ENDCHAR
STARTCHAR triagup
ENCODING 9650
SWIDTH 692 0
DWIDTH 9 0
BBX 5 5 1 7
BITMAP
20
50
50
88
88
ENDCHAR
STARTCHAR uni25B4
ENCODING 9652
SWIDTH 692 0
DWIDTH 9 0
BBX 5 5 1 7
BITMAP
20
50
50
88
88
ENDCHAR
STARTCHAR uni25B6
ENCODING 9654
SWIDTH 692 0
DWIDTH 9 0
BBX 5 9 1 1
BITMAP
80
40
20
10
08
10
20
40
80
ENDCHAR
STARTCHAR uni25B8
ENCODING 9656
SWIDTH 692 0
DWIDTH 9 0
BBX 5 9 1 1
BITMAP
80
40
20
10
08
10
20
40
80
ENDCHAR
STARTCHAR triagrt
ENCODING 9658
SWIDTH 692 0
DWIDTH 9 0
BBX 5 9 1 1
BITMAP
80
40
20
10
08
10
20
40
80
ENDCHAR
STARTCHAR triagdn
ENCODING 9660
SWIDTH 692 0
DWIDTH 9 0
BBX 7 9 0 0
BITMAP
82
82
82
44
44
28
28
28
10
ENDCHAR
STARTCHAR uni25BE
ENCODING 9662
SWIDTH 692 0
DWIDTH 9 0
BBX 7 9 0 0
BITMAP
82
82
82
44
44
28
28
28
10
ENDCHAR
STARTCHAR uni25C0
ENCODING 9664
SWIDTH 692 0
DWIDTH 9 0
BBX 5 9 1 1
BITMAP
08
10
20
40
80
40
20
10
08
ENDCHAR
STARTCHAR uni25C2
ENCODING 9666
SWIDTH 692 0
DWIDTH 9 0
BBX 5 9 1 1
BITMAP
08
10
20
40
80
40
20
10
08
ENDCHAR
STARTCHAR triaglf
ENCODING 9668
SWIDTH 692 0
DWIDTH 9 0
BBX 5 9 1 1
BITMAP
08
10
20
40
80
40
20
10
08
ENDCHAR
STARTCHAR uni25C6
ENCODING 9670
SWIDTH 692 0
DWIDTH 9 0
BBX 9 9 0 2
BITMAP
0800
1C00
3E00
7F00
FF80
7F00
3E00
1C00
0800
ENDCHAR
STARTCHAR circle
ENCODING 9675
SWIDTH 692 0
DWIDTH 9 0
BBX 5 6 1 4
BITMAP
20
A8
70
70
A8
20
ENDCHAR
STARTCHAR invbullet
ENCODING 9688
SWIDTH 692 0
DWIDTH 9 0
BBX 5 6 1 4
BITMAP
20
A8
70
70
A8
20
ENDCHAR
STARTCHAR invcircle
ENCODING 9689
SWIDTH 692 0
DWIDTH 9 0
BBX 5 6 1 4
BITMAP
20
A8
70
70
A8
20
ENDCHAR
STARTCHAR uni25E2
ENCODING 9698
SWIDTH 692 0
DWIDTH 9 0
BBX 5 12 1 0
BITMAP
08
08
10
10
10
20
20
40
40
40
80
80
ENDCHAR
STARTCHAR uni25E3
ENCODING 9699
SWIDTH 692 0
DWIDTH 9 0
BBX 5 12 1 0
BITMAP
80
80
40
40
40
20
20
10
10
10
08
08
ENDCHAR
STARTCHAR uni2610
ENCODING 9744
SWIDTH 692 0
DWIDTH 9 0
BBX 0 0 0 0
BITMAP
ENDCHAR
STARTCHAR uni2611
ENCODING 9745
SWIDTH 692 0
DWIDTH 9 0
BBX 7 9 0 0
BITMAP
82
82
44
28
10
28
44
82
82
ENDCHAR
STARTCHAR uni2612
ENCODING 9746
SWIDTH 692 0
DWIDTH 9 0
BBX 7 9 0 0
BITMAP
82
82
44
28
10
28
44
82
82
ENDCHAR
STARTCHAR uni2613
ENCODING 9747
SWIDTH 692 0
DWIDTH 9 0
BBX 7 7 0 2
BITMAP
82
44
28
10
28
44
82
ENDCHAR
STARTCHAR sun
ENCODING 9788
SWIDTH 692 0
DWIDTH 9 0
BBX 5 6 1 4
BITMAP
20
A8
70
70
A8
20
ENDCHAR
STARTCHAR female
ENCODING 9792
SWIDTH 692 0
DWIDTH 9 0
BBX 6 12 0 0
BITMAP
1C
20
20
20
FC
20
20
20
20
20
20
20
ENDCHAR
STARTCHAR male
ENCODING 9794
SWIDTH 692 0
DWIDTH 9 0
BBX 7 9 0 0
BITMAP
EC
92
92
92
92
92
92
92
92
ENDCHAR
STARTCHAR spade
ENCODING 9824
SWIDTH 692 0
DWIDTH 9 0
BBX 6 12 0 0
BITMAP
78
84
80
80
40
30
08
04
04
04
84
78
ENDCHAR
STARTCHAR uni2661
ENCODING 9825
SWIDTH 692 0
DWIDTH 9 0
BBX 6 12 0 0
BITMAP
84
84
84
84
84
FC
84
84
84
84
84
84
ENDCHAR
STARTCHAR uni2662
ENCODING 9826
SWIDTH 692 0
DWIDTH 9 0
BBX 6 12 0 0
BITMAP
F0
88
84
84
84
84
84
84
84
84
88
F0
ENDCHAR
STARTCHAR club
ENCODING 9827
SWIDTH 692 0
DWIDTH 9 0
BBX 6 12 0 0
BITMAP
78
84
80
80
80
80
80
80
80
80
84
78
ENDCHAR
STARTCHAR uni2664
ENCODING 9828
SWIDTH 692 0
DWIDTH 9 0
BBX 6 12 0 0
BITMAP
78
84
80
80
40
30
08
04
04
04
84
78
ENDCHAR
STARTCHAR heart
ENCODING 9829
SWIDTH 692 0
DWIDTH 9 0
BBX 6 12 0 0
BITMAP
84
84
84
84
84
FC
84
84
84
84
84
84
ENDCHAR
STARTCHAR diamond
ENCODING 9830
SWIDTH 692 0
DWIDTH 9 0
BBX 6 12 0 0
BITMAP
F0
88
84
84
84
84
84
84
84
84
88
F0
ENDCHAR
STARTCHAR uni2667
ENCODING 9831
SWIDTH 692 0
DWIDTH 9 0
BBX 6 12 0 0
BITMAP
78
84
80
80
80
80
80
80
80
80
84
78
ENDCHAR
STARTCHAR uni266D
ENCODING 9837
SWIDTH 692 0
DWIDTH 9 0
BBX 6 12 0 0
BITMAP
80
80
80
B8
C4
84
84
84
84
84
C4
B8
ENDCHAR
STARTCHAR uni266F
ENCODING 9839
SWIDTH 692 0
DWIDTH 9 0
BBX 8 11 0 0
BITMAP
12
12
12
7F
24
24
24
FE
48
48
48
ENDCHAR
STARTCHAR uni3041
ENCODING 12353
SWIDTH 692 0
DWIDTH 9 0
BBX 6 9 0 0
BITMAP
78
84
04
04
7C
84
84
8C
74
ENDCHAR
STARTCHAR uni3042
ENCODING 12354
SWIDTH 692 0
DWIDTH 9 0
BBX 6 9 0 0
BITMAP
78
84
04
04
7C
84
84
8C
74
ENDCHAR
STARTCHAR uni3043
ENCODING 12355
SWIDTH 692 0
DWIDTH 9 0
BBX 5 12 1 0
BITMAP
20
00
00
E0
20
20
20
20
20
20
20
F8
ENDCHAR
STARTCHAR uni3044
ENCODING 12356
SWIDTH 692 0
DWIDTH 9 0
BBX 5 12 1 0
BITMAP
20
00
00
E0
20
20
20
20
20
20
20
F8
ENDCHAR
STARTCHAR uni3045
ENCODING 12357
SWIDTH 692 0
DWIDTH 9 0
BBX 6 9 0 0
BITMAP
84
84
84
84
84
84
84
8C
74
ENDCHAR
STARTCHAR uni3046
ENCODING 12358
SWIDTH 692 0
DWIDTH 9 0
BBX 6 9 0 0
BITMAP
84
84
84
84
84
84
84
8C
74
ENDCHAR
STARTCHAR uni3047
ENCODING 12359
SWIDTH 692 0
DWIDTH 9 0
BBX 6 9 0 0
BITMAP
78
84
84
84
FC
80
80
84
78
ENDCHAR
STARTCHAR uni3048
ENCODING 12360
SWIDTH 692 0
DWIDTH 9 0
BBX 6 9 0 0
BITMAP
78
84
84
84
FC
80
80
84
78
ENDCHAR
STARTCHAR uni3049
ENCODING 12361
SWIDTH 692 0
DWIDTH 9 0
BBX 6 9 0 0
BITMAP
78
84
84
84
84
84
84
84
78
ENDCHAR
STARTCHAR uni304A
ENCODING 12362
SWIDTH 692 0
DWIDTH 9 0
BBX 6 9 0 0
BITMAP
78
84
84
84
84
84
84
84
78
ENDCHAR
STARTCHAR uni3093
ENCODING 12435
SWIDTH 692 0
DWIDTH 9 0
BBX 6 9 0 0
BITMAP
B8
C4
84
84
84
84
84
84
84
ENDCHAR
STARTCHAR uni30A1
ENCODING 12449
SWIDTH 692 0
DWIDTH 9 0
BBX 6 9 0 0
BITMAP
78
84
04
04
7C
84
84
8C
74
ENDCHAR
STARTCHAR uni30A2
ENCODING 12450
SWIDTH 692 0
DWIDTH 9 0
BBX 6 9 0 0
BITMAP
78
84
04
04
7C
84
84
8C
74
ENDCHAR
STARTCHAR uni30A3
ENCODING 12451
SWIDTH 692 0
DWIDTH 9 0
BBX 5 12 1 0
BITMAP
20
00
00
E0
20
20
20
20
20
20
20
F8
ENDCHAR
STARTCHAR uni30A4
ENCODING 12452
SWIDTH 692 0
DWIDTH 9 0
BBX 5 12 1 0
BITMAP
20
00
00
E0
20
20
20
20
20
20
20
F8
ENDCHAR
STARTCHAR uni30A5
ENCODING 12453
SWIDTH 692 0
DWIDTH 9 0
BBX 6 9 0 0
BITMAP
84
84
84
84
84
84
84
8C
74
ENDCHAR
STARTCHAR uni30A6
ENCODING 12454
SWIDTH 692 0
DWIDTH 9 0
BBX 6 9 0 0
BITMAP
84
84
84
84
84
84
84
8C
74
ENDCHAR
STARTCHAR uni30A7
ENCODING 12455
SWIDTH 692 0
DWIDTH 9 0
BBX 6 9 0 0
BITMAP
78
84
84
84
FC
80
80
84
78
ENDCHAR
STARTCHAR uni30A8
ENCODING 12456
SWIDTH 692 0
DWIDTH 9 0
BBX 6 9 0 0
BITMAP
78
84
84
84
FC
80
80
84
78
ENDCHAR
STARTCHAR uni30A9
ENCODING 12457
SWIDTH 692 0
DWIDTH 9 0
BBX 6 9 0 0
BITMAP
78
84
84
84
84
84
84
84
78
ENDCHAR
STARTCHAR uni30AA
ENCODING 12458
SWIDTH 692 0
DWIDTH 9 0
BBX 6 9 0 0
BITMAP
78
84
84
84
84
84
84
84
78
ENDCHAR
STARTCHAR uni30F3
ENCODING 12531
SWIDTH 692 0
DWIDTH 9 0
BBX 6 9 0 0
BITMAP
B8
C4
84
84
84
84
84
84
84
ENDCHAR
ENDFONT
